<?xml version="1.0" encoding="utf-8"?>
<!-- Generator: Adobe Illustrator 16.0.0, SVG Export Plug-In . SVG Version: 6.00 Build 0)  -->
<!DOCTYPE svg PUBLIC "-//W3C//DTD SVG 1.1//EN" "http://www.w3.org/Graphics/SVG/1.1/DTD/svg11.dtd">
<svg version="1.1" xmlns="http://www.w3.org/2000/svg" xmlns:xlink="http://www.w3.org/1999/xlink" x="0px" y="0px" width="467px"
	 height="454px" viewBox="0 0 467 454" enable-background="new 0 0 467 454" xml:space="preserve">
<g id="Layer_2">
</g>
<g id="Layer_1">
	<g>
		<g>
			<path fill="#BE1E2D" d="M83.293,440.233c-1.465,0-2.794-0.58-3.987-1.734h-0.231c-0.887,0-1.965,0.058-3.236,0.173
				c-1.694,0.154-2.755,0.231-3.178,0.231c-2.621,0-4.835-0.596-6.646-1.791c-2.12-1.388-3.179-3.312-3.179-5.778
				c0-2.697,1.54-4.661,4.624-5.896l5.836-1.154c1.078-0.192,2.986-0.578,5.721-1.157c0.077-0.23,0.115-0.404,0.115-0.52
				c0-3.312-1.136-4.97-3.409-4.97c-1.234,0-2.889,0.867-4.97,2.6l-4.392,3.929l-1.213-0.46c-0.693-0.732-1.156-1.658-1.387-2.774
				c0.655-1.85,2.234-3.631,4.739-5.345c2.504-1.716,4.739-2.573,6.704-2.573c0.27,0,1.579,0.252,3.929,0.753
				c3.353,0.731,5.557,1.731,6.617,3.004c1.059,1.271,1.589,3.603,1.589,6.991c0,0.694-0.079,2.371-0.231,5.029
				c-0.116,2.003-0.173,3.66-0.173,4.97c0-0.154,0.116,0.981,0.347,3.408c0.038,0.385,0.058,0.715,0.058,0.984
				c0,1.386-1.003,2.08-3.005,2.08H83.293z M78.207,428.964c-1.117,0-2.6,0.252-4.449,0.752c-2.08,0.54-3.43,1.117-4.045,1.733
				l-0.404,0.403c-0.463,0.464-0.694,0.772-0.694,0.927c0,0.885,1.656,1.327,4.97,1.327c0.655,0,1.58-0.114,2.774-0.346
				c1.349-0.231,2.176-0.482,2.485-0.751c0.308-0.269,0.462-1.021,0.462-2.254C79.306,429.562,78.939,428.964,78.207,428.964z"/>
			<path fill="#BE1E2D" d="M101.063,415.037c2.383-1.489,3.985-2.234,4.804-2.234c3.016,0,4.525,1.08,4.525,3.239l-0.167,1.285
				l-1.229,0.726c-0.186,0-0.624-0.13-1.313-0.391c-0.689-0.26-1.164-0.391-1.424-0.391c-1.751,0-3.203,2.123-4.357,6.369
				c-0.893,3.275-1.34,6.199-1.34,8.77c0,0.669,0.056,1.526,0.167,2.569c0.148,1.417,0.224,2.272,0.224,2.569
				c0,1.266-0.802,1.899-2.402,1.899c-4.022,0-6.034-0.953-6.034-2.86c0-0.449,0.074-1.112,0.224-1.992
				c0.148-0.879,0.223-1.543,0.223-1.99v-4.882c0-6.132-0.391-10.583-1.174-13.35c0.708-1.048,2.738-1.571,6.089-1.571
				C99.927,412.803,100.988,413.548,101.063,415.037z"/>
			<path fill="#BE1E2D" d="M121.842,415.037c2.383-1.489,3.985-2.234,4.804-2.234c3.017,0,4.525,1.08,4.525,3.239l-0.167,1.285
				l-1.229,0.726c-0.187,0-0.624-0.13-1.313-0.391c-0.689-0.26-1.164-0.391-1.424-0.391c-1.751,0-3.204,2.123-4.357,6.369
				c-0.894,3.275-1.34,6.199-1.34,8.77c0,0.669,0.056,1.526,0.167,2.569c0.149,1.417,0.224,2.272,0.224,2.569
				c0,1.266-0.802,1.899-2.402,1.899c-4.022,0-6.034-0.953-6.034-2.86c0-0.449,0.074-1.112,0.224-1.992
				c0.148-0.879,0.224-1.543,0.224-1.99v-4.882c0-6.132-0.392-10.583-1.174-13.35c0.708-1.048,2.738-1.571,6.089-1.571
				C120.707,412.803,121.768,413.548,121.842,415.037z"/>
			<path fill="#BE1E2D" d="M152.764,440.233c-1.465,0-2.793-0.58-3.987-1.734h-0.231c-0.887,0-1.965,0.058-3.236,0.173
				c-1.695,0.154-2.755,0.231-3.178,0.231c-2.621,0-4.835-0.596-6.646-1.791c-2.12-1.388-3.179-3.312-3.179-5.778
				c0-2.697,1.54-4.661,4.624-5.896l5.836-1.154c1.078-0.192,2.986-0.578,5.721-1.157c0.077-0.23,0.115-0.404,0.115-0.52
				c0-3.312-1.136-4.97-3.409-4.97c-1.234,0-2.889,0.867-4.97,2.6l-4.393,3.929l-1.213-0.46c-0.693-0.732-1.156-1.658-1.387-2.774
				c0.654-1.85,2.234-3.631,4.739-5.345c2.504-1.716,4.739-2.573,6.704-2.573c0.269,0,1.579,0.252,3.929,0.753
				c3.352,0.731,5.557,1.731,6.617,3.004c1.059,1.271,1.59,3.603,1.59,6.991c0,0.694-0.079,2.371-0.231,5.029
				c-0.116,2.003-0.173,3.66-0.173,4.97c0-0.154,0.116,0.981,0.347,3.408c0.037,0.385,0.058,0.715,0.058,0.984
				c0,1.386-1.003,2.08-3.005,2.08H152.764z M147.678,428.964c-1.117,0-2.6,0.252-4.449,0.752c-2.08,0.54-3.43,1.117-4.045,1.733
				l-0.404,0.403c-0.463,0.464-0.694,0.772-0.694,0.927c0,0.885,1.657,1.327,4.97,1.327c0.654,0,1.579-0.114,2.774-0.346
				c1.348-0.231,2.176-0.482,2.485-0.751c0.308-0.269,0.462-1.021,0.462-2.254C148.777,429.562,148.41,428.964,147.678,428.964z"/>
			<path fill="#BE1E2D" d="M187.033,437.573c-0.04,1.04-1.466,1.562-4.277,1.562c-0.771,0-1.696-0.136-2.774-0.404
				c-1.349-0.346-2.023-0.828-2.023-1.444c0-1.041,0.103-2.254,0.309-3.641c0.328-2.12,0.493-3.314,0.493-3.584
				c0.082-0.615,0.124-1.251,0.124-1.907v-1.964c0-6.087-1.222-9.131-3.664-9.131c-3.606,0-5.409,4.925-5.409,14.774
				c0,1.724,0.154,3.661,0.462,5.807l-0.635,1.149c-1.002,0.229-1.812,0.345-2.427,0.345h-0.925c-3.121,0-4.681-0.729-4.681-2.186
				c0-1.189,0.057-2.398,0.172-3.625c0.347-3.644,0.521-5.658,0.521-6.042v-1.61c0-4.757-0.309-8.555-0.924-11.394
				c0.307-0.882,1.077-1.4,2.306-1.553h3.114c0.615,0,2.018,0.405,4.209,1.213c-0.192,0,0.98-0.114,3.518-0.345
				c0.423-0.038,0.749-0.06,0.979-0.06c4.266,0,7.293,0.867,9.081,2.6c1.788,1.735,2.681,4.721,2.681,8.958v2.544
				c0,0.114,0,0.827,0,2.137L187.033,437.573z"/>
			<path fill="#BE1E2D" d="M215.983,423.993c0,1.812,0.096,4.2,0.289,7.167l0.463,7.165c0.038,0.616,0.058,1.887,0.058,3.814
				c0,2.811-1.329,4.988-3.987,6.53c-2.158,1.271-4.758,1.905-7.801,1.905c-7.975,0-12.656-1.655-14.042-4.968
				c0.385-0.617,1-1.138,1.849-1.562c0.846-0.424,1.636-0.636,2.369-0.636c0.191,0,1.416,0.627,3.669,1.88
				c2.253,1.25,3.9,1.877,4.94,1.877c1.888,0,3.217-0.519,3.988-1.56c0.615-0.889,0.924-2.312,0.924-4.277
				c0-1.849-1.002-2.773-3.005-2.773c-0.693,0-1.888,0.077-3.583,0.231c-0.425,0.038-0.752,0.057-0.983,0.057
				c-6.51,0-9.766-3.581-9.766-10.748c0-3.773,0.77-7.203,2.311-10.286c1.926-3.851,4.584-5.778,7.975-5.778
				c0.809,0,1.676,0.135,2.601,0.404c2.234,0.656,3.486,0.983,3.757,0.983c0.115,0,0.567-0.183,1.357-0.549
				c0.789-0.367,1.377-0.55,1.763-0.55c1.695,0,3.66,0.309,5.895,0.923l0.347,1.041
				C216.446,416.943,215.983,420.181,215.983,423.993z M208.009,419.775c-0.116-2.118-0.81-3.179-2.081-3.179
				c-1.812,0-3.352,1.639-4.624,4.912c-1.117,2.853-1.675,5.414-1.675,7.687c0,4.392,1.175,6.587,3.525,6.587
				c1.54,0,2.754-0.923,3.64-2.772c0.731-1.464,1.099-3.064,1.099-4.797v-0.231c0.116-2.735,0.173-4.835,0.173-6.3v-0.75
				C208.066,420.778,208.047,420.393,208.009,419.775z"/>
			<path fill="#BE1E2D" d="M240.311,439.424c-2.62,0.73-4.585,1.097-5.894,1.097c-8.978,0-13.465-3.782-13.465-11.349
				c0-2.586,0.52-5.367,1.561-8.339c1.156-3.359,2.619-5.694,4.392-7.007c0.963-0.733,2.581-1.101,4.854-1.101
				c3.505,0,6.491,0.811,8.958,2.433c2.89,1.854,4.334,4.445,4.334,7.765c0,3.093-0.599,5.603-1.792,7.534
				c-1.426,2.355-3.583,3.535-6.472,3.535c-0.887,0-2.207-0.192-3.958-0.578c-1.753-0.386-3.074-0.579-3.959-0.579
				c-0.115,0-0.173,0.099-0.173,0.289c0,2.312,1.752,3.468,5.259,3.468c1.001,0,2.465-0.27,4.392-0.81
				c1.926-0.537,3.389-0.81,4.392-0.81c1.541,0,2.312,0.522,2.312,1.562S243.469,438.537,240.311,439.424z M234.646,416.655
				c-1.271,0-2.542,1.373-3.813,4.122c-1.08,2.358-1.618,4.353-1.618,5.976c0,1.007,0.463,1.819,1.387,2.438
				c0.809,0.542,1.733,0.812,2.774,0.812c1.348,0,2.465-1.121,3.352-3.365c0.731-1.857,1.098-3.734,1.098-5.63
				c0-1.122-0.251-2.091-0.752-2.903C236.497,417.139,235.687,416.655,234.646,416.655z"/>
			<path fill="#BE1E2D" d="M288.101,439.135c-2.39,0-4.508-0.29-6.357-0.867l-0.924-1.271c0.654-3.082,0.982-7.029,0.982-11.846
				c0-5.047-0.848-7.571-2.543-7.571c-2.235,0-3.813,2.165-4.738,6.495c-0.578,2.722-0.866,5.672-0.866,8.853
				c0,1.227,0.076,2.721,0.23,4.482c-0.578,1.149-2.311,1.726-5.201,1.726c-1.349,0-2.409-0.364-3.178-1.092l-0.347-0.517
				c-0.116-0.23-0.173-0.462-0.173-0.69c0-0.767,0.095-1.629,0.289-2.587c0.462-2.338,0.693-3.754,0.693-4.253v-2.586
				c0-6.438-1.176-9.656-3.525-9.656c-1.965,0-3.352,2.11-4.16,6.332c-0.463,2.441-0.694,5.229-0.694,8.366
				c0,1.821,0.077,3.622,0.231,5.403l-0.751,0.987c-0.616,0-1.531,0.049-2.744,0.147c-1.213,0.096-2.129,0.145-2.745,0.145
				c-1.618,0-2.428-0.562-2.428-1.685c0-1.739,0.077-3.868,0.231-6.384c0.347-5.649,0.521-9.209,0.521-10.679
				c0-2.167-0.31-4.063-0.924-5.688c0.73-1.2,2.06-1.8,3.987-1.8c2.465,0,4.257,0.386,5.375,1.154l0.289,0.694
				c2.928-0.538,4.777-0.81,5.547-0.81c1.464,0,2.832,0.251,4.104,0.751c0.153,0.078,0.5,0.231,1.04,0.463l2.658,1.157l4.275-1.735
				c1.619-0.653,3.333-0.98,5.144-0.98c3.158,0,5.421,0.703,6.79,2.108c1.366,1.407,2.051,3.688,2.051,6.847
				c0,0.348-0.02,1.35-0.058,3.006v1.964c0,0.463-0.058,0.829-0.173,1.099c0,0.27,0,0.347,0,0.231c0,0.27,0.037,0.847,0.115,1.732
				l0.405,4.738c0.038,0.463,0.058,1.041,0.058,1.735c0,0.576-0.26,1.067-0.781,1.473
				C289.286,438.932,288.716,439.135,288.101,439.135z"/>
			<path fill="#BE1E2D" d="M313.643,439.424c-2.621,0.73-4.585,1.097-5.895,1.097c-8.978,0-13.465-3.782-13.465-11.349
				c0-2.586,0.52-5.367,1.561-8.339c1.156-3.359,2.619-5.694,4.392-7.007c0.963-0.733,2.581-1.101,4.854-1.101
				c3.505,0,6.491,0.811,8.958,2.433c2.89,1.854,4.334,4.445,4.334,7.765c0,3.093-0.598,5.603-1.792,7.534
				c-1.425,2.355-3.583,3.535-6.472,3.535c-0.887,0-2.207-0.192-3.958-0.578c-1.753-0.386-3.073-0.579-3.959-0.579
				c-0.115,0-0.173,0.099-0.173,0.289c0,2.312,1.752,3.468,5.259,3.468c1.001,0,2.465-0.27,4.392-0.81
				c1.926-0.537,3.389-0.81,4.392-0.81c1.541,0,2.312,0.522,2.312,1.562S316.801,438.537,313.643,439.424z M307.979,416.655
				c-1.27,0-2.542,1.373-3.813,4.122c-1.079,2.358-1.618,4.353-1.618,5.976c0,1.007,0.463,1.819,1.388,2.438
				c0.809,0.542,1.733,0.812,2.774,0.812c1.347,0,2.464-1.121,3.351-3.365c0.731-1.857,1.098-3.734,1.098-5.63
				c0-1.122-0.251-2.091-0.751-2.903C309.829,417.139,309.019,416.655,307.979,416.655z"/>
			<path fill="#BE1E2D" d="M348.026,437.573c-0.04,1.04-1.465,1.562-4.276,1.562c-0.771,0-1.696-0.136-2.774-0.404
				c-1.349-0.346-2.023-0.828-2.023-1.444c0-1.041,0.103-2.254,0.309-3.641c0.328-2.12,0.493-3.314,0.493-3.584
				c0.082-0.615,0.124-1.251,0.124-1.907v-1.964c0-6.087-1.222-9.131-3.665-9.131c-3.606,0-5.409,4.925-5.409,14.774
				c0,1.724,0.154,3.661,0.463,5.807l-0.635,1.149c-1.002,0.229-1.812,0.345-2.427,0.345h-0.924c-3.121,0-4.682-0.729-4.682-2.186
				c0-1.189,0.057-2.398,0.173-3.625c0.347-3.644,0.521-5.658,0.521-6.042v-1.61c0-4.757-0.309-8.555-0.924-11.394
				c0.307-0.882,1.076-1.4,2.306-1.553h3.114c0.614,0,2.018,0.405,4.209,1.213c-0.193,0,0.98-0.114,3.518-0.345
				c0.423-0.038,0.749-0.06,0.979-0.06c4.266,0,7.293,0.867,9.081,2.6c1.788,1.735,2.681,4.721,2.681,8.958v2.544
				c0,0.114,0,0.827,0,2.137L348.026,437.573z"/>
			<path fill="#BE1E2D" d="M369.086,417.695c-1.507,0.27-2.976,0.501-4.404,0.692c-0.319,0.311-0.478,1.657-0.478,4.046
				c0,3.236,0.099,6.261,0.29,9.073l0.117,6.355c0.038,1.002-1.178,1.504-3.649,1.504c-1.445,0-2.927-0.425-4.444-1.272
				c-0.19-0.576-0.286-1.502-0.286-2.774c0,0.348,0-0.019,0-1.097v-4.564c0-0.27,0-0.754,0-1.445l0.231-9.939l-0.231-0.173
				l-2.311,0.113c-1.31,0.08-2.409-0.403-3.294-1.443c0.267-1.078,0.877-1.811,1.831-2.196l2.515-0.693
				c0.839-0.231,1.259-0.731,1.259-1.502c0,0.54-0.154-1.561-0.462-6.299c0.037-0.654,0.058-1.193,0.058-1.618
				c0-1.926,1.462-2.89,4.391-2.89h0.867c2.735,0,4.101,0.732,4.101,2.195c0,0.733-0.056,1.33-0.172,1.793l-0.403,5.026
				c0,0.963,0,1.58,0,1.85c0,0.849,0.711,1.271,2.137,1.271c1.656,0,2.793,0.945,3.409,2.832L369.086,417.695z"/>
			<path fill="#BE1E2D" d="M387.838,439.481c-0.5,0-1.232-0.05-2.196-0.146c-0.963-0.096-1.694-0.144-2.194-0.144
				c-2.39,0-4.662-0.174-6.819-0.521c-3.622-0.578-5.433-1.578-5.433-3.005c0-0.925,0.29-1.713,0.867-2.369
				c0.577-0.655,1.309-0.981,2.197-0.981c3.39,2.234,6.046,3.351,7.972,3.351c0.542,0,1.253-0.154,2.141-0.463
				c1.076-0.345,1.617-0.712,1.617-1.098c0-0.461-1.502-1.214-4.507-2.254c-1.196-0.423-3.006-1.04-5.433-1.849
				c-2.581-1.503-3.871-3.698-3.871-6.588c0-2.734,0.557-5.22,1.674-7.455c1.388-2.812,3.353-4.218,5.895-4.218
				c0.81,0,1.964,0.154,3.468,0.462l3.35,0.694c2.698,0.54,4.537,1.386,5.519,2.543c0.982,1.154,1.475,3.08,1.475,5.778
				c0,1.657-0.231,2.852-0.694,3.582c-0.578,0.925-1.639,1.388-3.178,1.388c-2.737,0-4.104-1.906-4.104-5.722v-1.387
				c0-2.158-0.384-3.235-1.155-3.235c-0.926,0-1.792,0.944-2.6,2.83c-0.694,1.658-1.042,3.026-1.042,4.104
				c0,2.08,1.197,3.661,3.586,4.738c1.115,0.502,3.33,1.522,6.644,3.062c2.389,1.119,3.583,2.41,3.583,3.873
				c0,1.271-0.829,2.446-2.485,3.525C390.613,438.98,389.188,439.481,387.838,439.481z"/>
		</g>
		<g>
			<path fill="#BE1E2D" d="M411.384,358.266c-2.197-0.481-1.967,6.757-9.689,16.848c-2.729,2.456-6.742,4.999-11.813,5.188
				c-6.501,0.239-10.835-4.575-13.245-8.441c-4.409-7.078-5.857-13.39-5.857-13.39s12.201-2.405,18.139-8.668
				c8.064-8.504,8.913-23.723-5.499-24.754c-19.932-1.424-31.741,18.403-31.741,32.78c-0.14-0.021-0.73,8.322,3.713,16.403
				c-3.235,3.59-7.333,7.212-10.468,7.745c-4.246,0.718-9.814-5.93-11.2-8.826c-5.081-10.613-6.254-26.441-5.773-37.872
				c0.117-2.762,0.459-3.143,0.459-3.143s10.674-9.552,17.416-20.387c7.698-12.372,21.91-47.435-0.025-57.583
				c-22.672-10.488-31.197,29.649-35.193,44.558c-1.219,4.594-4.763,19.566-4.619,36.806c-2.522,1.937-5.041,3.797-7.474,5.434
				c-3.646-21.675-40.691-22.903-47.452-4.197c1.573-4.349,10.192-21.45,12.154-25.894c4.289-9.741,8.437-20.337,9.983-30.937
				c1.501-10.298,1.651-24.322-5.582-28.375c-8.294-4.642-17.376-0.865-22.019,4.933c-9.089,11.318-16.068,30.829-17.562,49.35
				c-2.19,27.17,3.946,50.604,3.946,50.604s-8.657,19.857-13.26,19.28c-6.533-0.817-3.829-26.385-3.273-30.778
				c0.539-4.277,1.766-11.474,1.388-16.658c-0.444-6.099-19.127,7.728-19.237,13.539c-0.11,5.811,1.125,17.748-5.982,29.229
				c-4,6.462-7.961,4.011-10.867-1.556c-3.62-10.286-4.546-23.61-4.014-33.582c0.271-5.274,1.124-9.037,1.124-9.037
				s7.255-8.781,10.365-13.76c7.727-12.354,28.516-49.494,6.361-58.316c-23.208-9.24-31.199,29.649-35.194,44.56
				c-0.805,3.032-2.62,10.615-3.723,20.364c-18.023-5.189-40.26,5.328-45.239,30.636c-2.191,11.146,3.038,22.284,3.038,22.284
				s-5.105,6.387-11.236,7.449c-4.755,0.822-10.015-2.814-13.892-7.76c-5.143-6.562-5.857-13.39-5.857-13.39
				s12.201-2.405,18.138-8.668c8.065-8.505,8.913-23.723-5.498-24.753c-18.139-1.297-29.548,15.007-31.453,28.788
				c-3.609-0.672-6.59-1.584-9.312-3.907c-4.515-3.853-7.691-9.714-7.341-15.894c0.304-5.372,4.049-13.841,9.548-16.083
				c5.705-2.325,10.79,0.496,10.704-0.918c-0.283-4.612-9.518-4.423-13.668-1.781c-5.807,3.695-9.185,8.768-10.174,15.639
				c-1.781,12.373,3.661,21.789,15.792,25.926c1.612,0.548,3.056,1.047,4.098,1.413c-0.152,1.854-0.088,9.801,4.445,17.171
				c2.121,3.446,7.513,10.37,11.878,11.985c7.517,2.783,11.343,2.749,19.246,1.053c6.313-1.345,15.742-10.595,16.963-11.59
				c11.26,22.3,32.277,8.384,43.43-7.673c1.953,7.203,4.872,13.611,9.558,17.327c1.063,1.095,2.236,1.926,3.532,2.356
				c0.724,0.242,1.437,0.395,2.143,0.498c0.095,0.025,0.177,0.068,0.272,0.091c0.687,0.161,1.422,0.146,2.18,0
				c8.166-0.501,14.843-9.334,18.87-16.061c0,0,1.684,12.405,7.991,14.497c4.554,1.499,7.123,1.123,10.924-0.237
				c9.805-3.508,17.167-20.295,20.546-25.937c4.016,5.585,1.971,4.862,5.944,6.188c1.254,0.417,3.16-0.125,3.25-1.205
				c0.09-1.077-0.151-2.683-0.597-4.3c-0.096-1.665,0.043-6.354,3.081-15.195c2.68-5.759,6.526-10.832,11.968-14.436
				c12.914-8.555,23.847,7.276,19.889,17.832c0,0-8.294,3.771-12.63,6.596c-8.119,5.298-17.508,13.995-12.062,23.372
				c4.428,7.618,17.355,11.332,25.067,6.48c10.944-6.888,19.662-15.086,19.663-39.922c2.505-1.486,5-3.081,7.422-4.734
				c0.133,1.813,0.296,3.636,0.53,5.466c2.705,21.137,7.615,53.395,35.305,42.8c5.479-2.096,11.687-7.169,16.231-12.423
				c2.611,3.435,6.369,7.486,9.576,8.676c3.11,1.15,5.583,1.796,7.979,2.065c7.072,1.331,14.432,0.478,20.869-3.029
				c2.785-1.518,8.766-6.926,12.28-13.82C411.892,367.053,415.56,359.182,411.384,358.266z M349.801,268.138
				c2.545,1.479,2.079,15.896-3.014,27.48c-8.187,18.62-13.725,25.283-18.058,28.173
				C328.409,309.664,345.144,265.434,349.801,268.138z M198.591,268.781c4.659,2.706-13.386,40.044-19.219,46.606
				C179.372,304.542,193.933,266.076,198.591,268.781z M101.977,332.483c2.296,2.026,0.458,10.982-4.403,15.071
				c-7.062,5.941-15.445,6.356-15.57,6.422C82.114,350.16,91.811,323.516,101.977,332.483z M138.83,373.236
				c-7.771-2.432-8.592-11.606-7.384-22.473c0.963-8.667,6.206-15.878,8.672-19.477c6.372-9.292,14.225-6.443,14.861-6.08
				c0.008,0.587,0.026,1.206,0.054,1.852c-0.423,6.845-0.391,14.347,0.579,21.922c0.522,4.079,1.11,8.533,1.929,12.957
				C153.064,367.581,143.479,374.688,138.83,373.236z M253.978,289.678c0.305-0.934,11.302-31.799,13.567-25.871
				c3.539,9.324-2.096,24.17-5.079,33.159c-2.391,7.261-13.249,30.815-13.687,31.045
				C248.29,314.654,249.813,302.393,253.978,289.678z M260.976,380.16c-5.398-1.133-3.841-8.209,1.908-13.534
				c5.178-4.798,14.695-9.096,15.191-8.951C276.41,363.897,270.787,382.214,260.976,380.16z M390.272,332.002
				c2.296,2.026,0.458,10.981-4.403,15.071c-7.062,5.94-15.446,6.355-15.57,6.423C370.41,349.679,380.105,323.034,390.272,332.002z"
				/>
			<path fill="#BE1E2D" d="M198.793,311.093c-0.571,6.888,6.598,10.7,12.625,7.384c5.957-3.277,7.041-8.731,7.759-14.932
				c-0.179,1.55-0.241-0.883-0.057-0.249C216.33,289.354,199.565,301.795,198.793,311.093z"/>
		</g>
	</g>
	<g>
		<path fill="#BE1E2D" d="M125.793,291.75c13.519-6.287,23.874-17.857,30.027-31.34c1.216-2.668,0.829-5.48-1.273-7.578
			c-6.132-6.123-13.189-10.85-21.389-13.645c-0.394-0.133-0.772-0.205-1.14-0.232c-13.435-8.609-26.831-17.244-40.049-26.229
			c-18.411-12.51-36.741-25.219-56.357-35.795c-2.468-1.332-6.274-0.479-7.446,2.271c-10.559,24.754-8.547,51.967,5.282,75.025
			c12.047,20.088,32.635,36.018,55.686,40.965C101.284,297.801,114.452,297.025,125.793,291.75z"/>
	</g>
	<path fill="#BE1E2D" d="M141.543,111.236c0,0-46.51-22.213-24.484-52.672c0,0,27.071-22.9,51.655,9.84
		c0,0,8.541-36.324,38.635-23.994c0,0,36.961,10.34,14.939,40.801c0,0,39.688-3.988,43.524,9.943
		c3.835,13.932,13.111,43.541-34.152,36.189c0,0,38.452,25.621,29.776,40.965c-8.676,15.338-34.031,39.297-55.786,8.75
		c0,0-4.755,42-42.372,26.582c0,0-26.71-21.592-9.331-44.684c0,0-54.409,15.107-57.614-12.627
		C93.124,122.6,109.979,115.127,141.543,111.236z"/>
	<circle fill="#BE1E2D" cx="188.438" cy="128.695" r="23.493"/>
	<path fill="#BE1E2D" d="M331.271,39.721c-2.631,11.281-13.908,18.295-25.188,15.664c-11.283-2.631-18.296-13.91-15.663-25.188
		c2.629-11.285,13.908-18.297,25.188-15.666C326.89,17.164,333.9,28.439,331.271,39.721z"/>
	<path fill="#BE1E2D" d="M322.373,78.701c-2.422,10.379-12.795,16.83-23.176,14.41c-10.377-2.422-16.83-12.797-14.411-23.176
		c2.421-10.379,12.799-16.828,23.173-14.408C318.343,57.949,324.792,68.32,322.373,78.701z"/>
	<path fill="#BE1E2D" d="M314.76,112.137c-1.893,8.123-10.012,13.17-18.137,11.273c-8.118-1.891-13.168-10.01-11.274-18.133
		c1.895-8.123,10.014-13.166,18.134-11.275C311.606,95.896,316.655,104.016,314.76,112.137z"/>
	<path fill="#BE1E2D" d="M360.347,149.627c0,0-21.772-26.887-6.817-40.881c0,0,21.172,21.613,16.069,37.686
		c0,0,37.77-24.623,48.74-3.447c0,0-7.522,27.566-37.425,22.98c0,0,39.749,6.664,36.546,29.998c0,0-34.569,1.285-41.217-24.123"/>
	<path fill="#BE1E2D" d="M328.006,131.977c-9.947,7.377-52.623,72.803-31.455,94.412c21.167,21.613,90.869-15.479,94.464-22.871
		C402.048,180.834,348.119,117.057,328.006,131.977z"/>
	<path fill="#BE1E2D" d="M446.991,269.354c-10.697,4.445-22.973-0.621-27.418-11.318c-4.446-10.699,0.622-22.975,11.317-27.416
		c10.699-4.449,22.974,0.619,27.418,11.316C462.754,252.633,457.688,264.906,446.991,269.354z"/>
	<path fill="#BE1E2D" d="M410.142,284.869c-9.843,4.09-21.133-0.572-25.225-10.414c-4.088-9.84,0.573-21.135,10.413-25.227
		c9.843-4.09,21.135,0.576,25.223,10.414C424.645,269.488,419.984,280.777,410.142,284.869z"/>
	<g>
		<g>
			<g>
				<path fill="#FFFFFF" d="M130.854,108.206c-15.722-5.959-28.231-28.432-23.427-44.739c2.955-10.026,13.986-15.082,23.758-13.276
					c9.583,1.77,17.655,9.373,20.167,18.707c0.717,2.662,4.329,3.726,6.268,1.654c5.883-6.284,11.567-12.74,17.896-18.591
					c6.495-6.003,14.589-12.274,23.795-12.632c8.977-0.349,15.728,6.919,17.689,15.059c2.366,9.82-0.318,21.027-2.144,30.703
					c-0.485,2.571,1.696,5.65,4.613,4.613c8.734-3.105,18.118-3.981,26.33,0.979c6.337,3.828,10.054,10.75,11.455,17.833
					c1.3,6.575-0.067,14.142-4.398,19.368c-5.662,6.833-14.769,7.807-23.055,6.836c-3.904-0.457-4.836,5.199-1.893,6.988
					c9.806,5.958,19.538,13.97,22.401,25.594c1.854,7.527-0.99,15.211-6.262,20.633c-5.32,5.471-12.925,7.995-20.447,7.425
					c-9.601-0.729-16.949-8.126-21.547-15.978c-2.059-3.518-6.543-1.575-6.988,1.893c-2.071,16.151-13.332,39.556-33.169,33.147
					c-21.122-6.823-15.542-33.386-12.409-49.846c0.451-2.369-1.03-4.743-3.616-4.747c-9.052-0.013-18.073,1.103-27.126,1.213
					c-8.683,0.106-19.468-0.143-26.407-6.137c-8.415-7.27-4.685-18.769,2.177-25.367c9.094-8.746,23.125-12.651,35.339-13.967
					c4.756-0.513,4.806-8.018,0-7.5c-21.556,2.322-61.584,17.998-46.984,46.826c5.038,9.947,17.454,12.571,27.514,13.398
					c11.849,0.975,23.648-0.983,35.486-0.967c-1.206-1.582-2.411-3.164-3.616-4.747c-2.219,11.663-4.337,23.446-2.596,35.316
					c1.779,12.127,10.066,20.468,21.492,24.159c24.452,7.898,38.916-21.292,41.415-40.783c-2.329,0.631-4.659,1.262-6.988,1.893
					c5.919,10.109,15.161,18.315,27.181,19.602c9.843,1.055,19.545-2.678,26.592-9.531c7.272-7.072,10.12-17.18,8.377-27.044
					c-2.447-13.854-14.706-24.078-26.035-30.962c-0.631,2.33-1.262,4.659-1.893,6.988c10.338,1.212,21.22-0.941,28.358-9.033
					c6.277-7.113,7.841-16.833,6.451-25.958c-1.394-9.149-6.808-17.429-14.398-22.619c-9.646-6.595-22.188-5.889-32.736-2.139
					c1.538,1.538,3.076,3.075,4.613,4.613c3.661-19.412,8.016-48.205-17.204-54.647c-21.416-5.472-40.059,19.447-52.57,32.812
					c2.089,0.552,4.179,1.103,6.268,1.654c-6.745-25.064-43.553-34.875-56.754-9.46c-10.718,20.633,7.046,50.42,27.03,57.995
					C133.391,117.155,135.33,109.903,130.854,108.206L130.854,108.206z"/>
			</g>
		</g>
		<g>
			<g>
				<path fill="#FFFFFF" d="M323.971,10.306c-10.953-9.116-24.825-8.817-34.349,2.198c-7.94,9.185-11.293,24.135-4.011,34.654
					c8.163,11.792,26.837,13.522,35.709,1.839c8.7-11.458,7.883-30.39-3.173-40.049c-3.625-3.167-8.953,2.115-5.304,5.303
					c8.064,7.046,8.701,19.808,3.527,28.76c-5.363,9.28-18.971,8.036-24.734-0.289c-5.143-7.429-1.969-17.708,2.854-24.381
					c6.146-8.504,16.306-9.282,24.176-2.732C322.356,18.679,327.692,13.402,323.971,10.306L323.971,10.306z"/>
			</g>
		</g>
		<g>
			<g>
				<path fill="#FFFFFF" d="M314.806,59.457c-2.753-5.482-7.081-10.301-13.625-10.353c-6.044-0.048-11.233,4.786-14.659,9.252
					c-7.725,10.071-13.015,26.083-4.076,36.967c9.029,10.993,23.222,6.488,31.528-2.839c9.276-10.417,11.611-26.429,0.925-36.698
					c-3.486-3.351-8.796,1.946-5.304,5.303c7.494,7.202,5.665,17.797-0.337,25.393c-5.112,6.468-14.28,11.519-20.898,4.282
					c-6.514-7.121-1.832-18.592,2.482-25.572c2.02-3.269,4.959-6.868,8.683-8.231c4.422-1.62,7.119,2.926,8.804,6.282
					C310.501,67.565,316.971,63.767,314.806,59.457L314.806,59.457z"/>
			</g>
		</g>
		<g>
			<g>
				<path fill="#FFFFFF" d="M466.671,245.654c0.99-13.559-7.292-24.255-20.903-25.891c-11.502-1.383-24.797,3.573-30.349,14.239
					c-6.546,12.578,1.287,30.519,15.705,32.47c15.667,2.119,31.75-10.728,33.251-26.338c0.463-4.814-7.042-4.77-7.5,0
					c-1.061,11.023-13.771,20.457-24.65,18.984c-10.427-1.41-14.412-14.958-9.279-23.168c4.438-7.098,14.292-9.499,22.09-8.776
					c10.048,0.932,14.824,9.039,14.135,18.479C458.817,250.482,466.321,250.448,466.671,245.654L466.671,245.654z"/>
			</g>
		</g>
		<g>
			<g>
				<path fill="#FFFFFF" d="M421.167,267.863c2.962-5.623,4.628-12.318,0.389-17.754c-3.619-4.639-9.959-5.937-15.514-6.244
					c-12.446-0.688-27.473,4.356-32.236,16.736c-11.133,28.939,46.16,36.008,50.5,5.218c0.667-4.729-6.56-6.767-7.232-1.994
					c-1.473,10.451-10.627,15.066-20.468,14.929c-8.159-0.113-18.381-4.787-16.096-14.462c2.22-9.396,13.865-12.434,22.264-12.917
					c4.154-0.239,8.618,0.16,12.135,2.558c3.425,2.335,1.229,7.396-0.218,10.146C412.439,268.353,418.913,272.144,421.167,267.863
					L421.167,267.863z"/>
			</g>
		</g>
		<g>
			<g>
				<path fill="#FFFFFF" d="M306.37,95.109c-20.035-14.335-44.208,23.029-25.143,36.855c20.227,14.67,38.616-20.253,28.251-36.492
					c-2.593-4.062-9.086-0.305-6.476,3.785c5.387,8.441-2.559,33.996-15.311,27.949c-14.747-6.993,1.434-35.251,14.894-25.621
					C306.527,104.406,310.266,97.897,306.37,95.109L306.37,95.109z"/>
			</g>
		</g>
		<g>
			<g>
				<path fill="#FFFFFF" d="M205.203,106.924c-9.179-12.431-24.303-17.631-37.439-7.601c-11.051,8.438-16.115,23.809-9.592,36.539
					c7.635,14.901,30.103,21.368,43.516,10.894c13.17-10.286,15.423-30.388,4.587-43.08c-1.615-1.892-3.662-3.416-5.702-4.812
					c-4.003-2.739-7.75,3.764-3.785,6.477c11.092,7.592,11.548,23.155,3.05,32.947c-9.385,10.814-26.958,6.202-34.324-4.743
					c-6.048-8.986-1.777-20.615,5.586-27.321c9.206-8.385,20.772-4.798,27.628,4.486C201.566,114.555,208.08,110.82,205.203,106.924
					L205.203,106.924z"/>
			</g>
		</g>
		<g>
			<g>
				<path fill="#FFFFFF" d="M339.554,134.247c13.115,16.82,31.948,28.309,44.98,45.292c5.282,6.884,10.331,15.711,7.344,24.572
					c-2.508,7.438-12.517,9.97-19.17,11.587c-9.181,2.231-18.621,3.199-27.829,5.316c-8.466,1.945-16.039,5.969-23.911,9.5
					c-6.542,2.935-13.786,6.243-21.076,6.417c-7.046,0.167-8.577-6.042-8.805-11.993c-0.597-15.594,5.845-32.013,12.411-45.857
					c7.14-15.056,17.007-29.917,30.837-39.585c3.932-2.749,0.189-9.255-3.785-6.477c-19.747,13.805-32.168,36.129-40.239,58.338
					c-3.899,10.729-6.857,22.095-6.723,33.581c0.078,6.721,1.948,14.07,8.149,17.633c5.57,3.2,12.786,1.749,18.574,0.061
					c7.925-2.312,15.452-6.064,22.915-9.531c16.597-7.71,35.598-6.299,52.225-13.653c7.335-3.245,13.169-8.753,14.551-16.922
					c1.587-9.386-2.942-18.367-8.255-25.779c-13.132-18.319-33.125-30.147-46.89-47.802
					C341.886,125.133,336.618,130.481,339.554,134.247L339.554,134.247z"/>
			</g>
		</g>
		<g>
			<g>
				<path fill="#FFFFFF" d="M365.15,137.622c-7.135-7.579-4.068-18.382-1.24-27.193c-1.836,0.747-3.673,1.494-5.509,2.241
					c7.97,5.486,13.401,16.774,11.708,26.44c-0.513,2.933,1.659,5.157,4.613,4.613c16.407-3.021,31.897-6.858,48.696-4.502
					c-0.917-1.206-1.835-2.411-2.753-3.616c-1.058,13.267-19.767,17.884-28.421,25.3c-1.758,1.506-1.323,4.877,0.759,5.89
					c5.18,2.519,10.545,4.713,15.475,7.713c5.642,3.435,9.074,8.787,11.751,14.684c1.079-1.881,2.159-3.762,3.238-5.643
					c-9.758,0.317-21.583-1.007-26.442-10.729c-2.162-4.327-8.631-0.527-6.476,3.785c6.064,12.137,20.539,14.847,32.917,14.443
					c3.039-0.099,4.409-3.062,3.238-5.643c-2.743-6.043-6.375-11.528-11.762-15.52c-5.521-4.091-12.012-6.582-18.154-9.568
					c0.253,1.964,0.506,3.927,0.759,5.89c11.23-9.624,29.227-13.149,30.618-30.603c0.119-1.49-1.219-3.4-2.753-3.616
					c-8.972-1.259-17.764-1.53-26.757-0.343c-8.718,1.15-17.285,3.254-25.927,4.845c1.538,1.538,3.076,3.075,4.613,4.613
					c2.312-13.205-4.193-27.365-15.155-34.911c-2.082-1.433-4.815,0.081-5.509,2.241c-3.751,11.69-6.021,24.729,3.168,34.49
					C363.167,146.453,368.461,141.14,365.15,137.622L365.15,137.622z"/>
			</g>
		</g>
		<g>
			<g>
				<path fill="#FFFFFF" d="M28.52,187.953c-0.792,1.046-2.242,1.419-1.825,1.443c-1.235-0.07,0.471,0.149,0.848,0.26
					c1.77,0.519,3.016,1.136,4.661,1.923c5.119,2.448,10.035,5.336,14.909,8.232c13.625,8.099,26.863,16.861,39.998,25.727
					c12.386,8.36,24.666,16.89,36.731,25.706c3.492,2.552,6.991,5.109,10.342,7.847c0.757,0.618,1.528,1.243,2.197,1.959
					c-1.022-1.095-0.467-2.679-0.952-0.808c-2.3,8.875-9.284,17.512-16.12,23.664c-11.865,10.679-27.597,13.879-42.976,10.341
					c-29.708-6.835-53.572-32.567-58.357-62.671C15.532,216.193,20.461,200.921,28.52,187.953c2.56-4.12-3.93-7.883-6.477-3.785
					c-11.623,18.705-15.426,40.311-8.337,61.388c4.656,13.845,13.397,26.322,23.794,36.478
					c10.632,10.384,25.766,17.386,40.238,20.164c15.577,2.989,31.339-0.691,43.826-10.462c8.759-6.854,15.753-16.081,20.008-26.354
					c1.014-2.447,2.421-6.012,0.948-8.547c-1.22-2.101-3.742-3.642-5.601-5.088c-22.889-17.811-47.272-34.012-71.722-49.576
					c-8.876-5.65-17.841-11.27-27.21-16.075c-4.224-2.167-12.089-7.014-15.943-1.927C19.121,188.025,25.639,191.756,28.52,187.953z"
					/>
			</g>
		</g>
	</g>
</g>
</svg>
