<?xml version="1.0" encoding="utf-8"?>
<!-- Generator: Adobe Illustrator 16.0.0, SVG Export Plug-In . SVG Version: 6.00 Build 0)  -->
<!DOCTYPE svg PUBLIC "-//W3C//DTD SVG 1.1//EN" "http://www.w3.org/Graphics/SVG/1.1/DTD/svg11.dtd">
<svg version="1.1" xmlns="http://www.w3.org/2000/svg" xmlns:xlink="http://www.w3.org/1999/xlink" x="0px" y="0px" width="467px"
	 height="454px" viewBox="0 0 467 454" enable-background="new 0 0 467 454" xml:space="preserve">
<g id="Layer_2">
</g>
<g id="Layer_1">
	<g>
		<path fill="none" stroke="#EEAF21" stroke-width="8" stroke-linecap="round" stroke-linejoin="round" stroke-miterlimit="10" d="
			M127.856,111.822c-18.533-6.574-39.095-42.455-19.02-59.939c16.294-13.637,39.865-1.537,44.131,16.018
			c13.359-14.197,35.43-41.938,55.743-28.953c13.569,8.672,11.96,25.107,7.763,47.141c49.098-18.047,60.357,58.68,11.329,52.383
			c60.148,35.812-4.759,88.896-30.985,42.805c-2.447,20.844-18.324,48.26-43.084,34.41c-17.974-9.512-13.217-34.482-9.86-52.105
			c-16.715-0.141-51.547,6.922-60.218-11.473C74.073,130.494,101.49,114.41,127.856,111.822"/>
		<path fill="none" stroke="#452F8B" stroke-width="8" stroke-linecap="round" stroke-linejoin="round" stroke-miterlimit="10" d="
			M319.319,12.957c-26.843-23.148-53.19,30.584-21.497,39.51c22.958,6.891,31.109-28.055,15.674-40.867"/>
		<path fill="none" stroke="#452F8B" stroke-width="8" stroke-linecap="round" stroke-linejoin="round" stroke-miterlimit="10" d="
			M309.568,61.35c-12.38-25.918-37.126,14.369-28.193,28.734c14.174,24.801,49.117-13.111,28.873-31.646"/>
		<path fill="none" stroke="#452F8B" stroke-width="8" stroke-linecap="round" stroke-linejoin="round" stroke-miterlimit="10" d="
			M460.92,245.654c3.14-35.307-55.872-25.354-44.63,5.594c7.8,22.666,40.936,8.896,42.335-11.113"/>
		<path fill="none" stroke="#452F8B" stroke-width="8" stroke-linecap="round" stroke-linejoin="round" stroke-miterlimit="10" d="
			M415.93,265.971c13.825-25.176-33.331-21.768-39.786-6.133c-11.872,25.982,39.306,32.242,42.548,4.984"/>
		<path fill="none" stroke="#452F8B" stroke-width="8" stroke-linecap="round" stroke-linejoin="round" stroke-miterlimit="10" d="
			M302.478,98.348c-15.624-12.002-34.978,18.32-22.266,29.643c17.92,15.324,32.065-18.996,24.028-30.625"/>
		<path fill="none" stroke="#B94126" stroke-width="8" stroke-linecap="round" stroke-linejoin="round" stroke-miterlimit="10" d="
			M199.965,108.816c-25.247-35.25-68.12,22.031-23.988,38.049c27.067,9.721,43.713-29.725,20.703-44.764"/>
		<path fill="none" stroke="#89241B" stroke-width="8" stroke-linecap="round" stroke-linejoin="round" stroke-miterlimit="10" d="
			M340.206,131.596c13.764,18.02,54.092,43.318,54.392,66.898c-0.041,25.188-39.394,20.254-60.602,29.221
			c-25.251,11.475-55.221,28.674-47.408-16.713c5.424-25.734,21.291-59.344,43.855-74.744"/>
		<path fill="none" stroke="#4B8A3F" stroke-width="8" stroke-linecap="round" stroke-linejoin="round" stroke-miterlimit="10" d="
			M360.498,140.273c-8.248-8.066-5.693-20.186-2.204-30.842c8.759,5.645,15.729,19.77,13.432,30.676
			c19.391-3.508,30.193-7.555,50.69-4.502c-0.686,15.045-20.332,19.76-29.52,27.951c13.521,6.645,21.856,8.402,28.571,23.742
			c-10.036,0.414-24.581-1.387-29.68-12.586"/>
		<path fill="none" stroke="#4B8A3F" stroke-width="8" stroke-linecap="round" stroke-linejoin="round" stroke-miterlimit="10" d="
			M23.281,186.061c4.284-6.756,112,68.666,114,72.666s-27.334,70.668-94.667,24.668C42.614,283.395-11.385,240.727,23.281,186.061z"
			/>
	</g>
</g>
</svg>
