<?xml version="1.0" encoding="utf-8"?>
<!-- Generator: Adobe Illustrator 16.0.0, SVG Export Plug-In . SVG Version: 6.00 Build 0)  -->
<!DOCTYPE svg PUBLIC "-//W3C//DTD SVG 1.1//EN" "http://www.w3.org/Graphics/SVG/1.1/DTD/svg11.dtd">
<svg version="1.1" xmlns="http://www.w3.org/2000/svg" xmlns:xlink="http://www.w3.org/1999/xlink" x="0px" y="0px" width="467px"
	 height="454px" viewBox="0 0 467 454" enable-background="new 0 0 467 454" xml:space="preserve">
<g id="Layer_2">
</g>
<g id="Layer_1">
	<g>
		<path fill="none" stroke="#EEAF21" stroke-width="8" stroke-linecap="round" stroke-linejoin="round" stroke-miterlimit="10" d="
			M127.856,111.822c-18.533-6.574-39.095-42.455-19.02-59.939c16.294-13.638,39.865-1.537,44.131,16.017
			c13.359-14.197,35.43-41.938,55.743-28.953c13.569,8.672,11.96,25.108,7.763,47.141c49.098-18.046,60.357,58.68,11.329,52.383
			c60.148,35.812-4.759,88.896-30.985,42.805c-2.447,20.844-18.324,48.26-43.084,34.41c-17.974-9.512-13.217-34.482-9.86-52.105
			c-16.715-0.141-51.547,6.922-60.218-11.473C74.073,130.494,101.49,114.41,127.856,111.822"/>
		<path fill="none" stroke="#452F8B" stroke-width="8" stroke-linecap="round" stroke-linejoin="round" stroke-miterlimit="10" d="
			M319.319,12.958c-26.843-23.149-53.19,30.583-21.497,39.51c22.958,6.89,31.109-28.055,15.674-40.867"/>
		<path fill="none" stroke="#452F8B" stroke-width="8" stroke-linecap="round" stroke-linejoin="round" stroke-miterlimit="10" d="
			M309.568,61.349c-12.38-25.917-37.126,14.369-28.193,28.735c14.174,24.801,49.117-13.111,28.873-31.647"/>
		<path fill="none" stroke="#452F8B" stroke-width="8" stroke-linecap="round" stroke-linejoin="round" stroke-miterlimit="10" d="
			M460.92,245.654c3.14-35.307-55.872-25.354-44.63,5.594c7.8,22.666,40.936,8.896,42.335-11.113"/>
		<path fill="none" stroke="#452F8B" stroke-width="8" stroke-linecap="round" stroke-linejoin="round" stroke-miterlimit="10" d="
			M415.93,265.971c13.825-25.176-33.331-21.768-39.786-6.133c-11.872,25.982,39.306,32.242,42.548,4.984"/>
		<path fill="none" stroke="#452F8B" stroke-width="8" stroke-linecap="round" stroke-linejoin="round" stroke-miterlimit="10" d="
			M302.478,98.348c-15.624-12.002-34.978,18.32-22.266,29.643c17.92,15.324,32.065-18.996,24.028-30.625"/>
		<path fill="none" stroke="#B94126" stroke-width="8" stroke-linecap="round" stroke-linejoin="round" stroke-miterlimit="10" d="
			M199.965,108.816c-25.247-35.25-68.12,22.031-23.988,38.049c27.067,9.721,43.713-29.725,20.703-44.764"/>
		<path fill="none" stroke="#89241B" stroke-width="8" stroke-linecap="round" stroke-linejoin="round" stroke-miterlimit="10" d="
			M340.206,131.596c13.764,18.02,54.092,43.318,54.392,66.898c-0.041,25.188-39.394,20.254-60.602,29.221
			c-25.251,11.475-55.221,28.674-47.408-16.713c5.424-25.734,21.291-59.344,43.855-74.744"/>
		<path fill="none" stroke="#4B8A3F" stroke-width="8" stroke-linecap="round" stroke-linejoin="round" stroke-miterlimit="10" d="
			M360.498,140.273c-8.248-8.066-5.693-20.186-2.204-30.842c8.759,5.645,15.729,19.77,13.432,30.676
			c19.391-3.508,30.193-7.555,50.69-4.502c-0.686,15.045-20.332,19.76-29.52,27.951c13.521,6.645,21.856,8.402,28.571,23.742
			c-10.036,0.414-24.581-1.387-29.68-12.586"/>
		<path fill="none" stroke="#4B8A3F" stroke-width="8" stroke-linecap="round" stroke-linejoin="round" stroke-miterlimit="10" d="
			M23.281,186.061c4.284-6.756,112,68.666,114,72.666s-27.334,70.668-94.667,24.668C42.614,283.395-11.385,240.727,23.281,186.061z"
			/>
	</g>
	<rect x="60.033" y="392.573" fill="none" width="431" height="86"/>
	<text transform="matrix(1 0 0 1 60.0332 434.333)" fill="#BE1E2D" font-family="'BRADDONBold'" font-size="60">arrangements</text>
	<g>
		<g>
			<path fill="#BE1E2D" d="M409.384,360.266c-2.197-0.481-1.967,6.757-9.689,16.848c-2.729,2.456-6.742,4.999-11.813,5.188
				c-6.501,0.239-10.835-4.575-13.245-8.441c-4.409-7.078-5.857-13.39-5.857-13.39s12.201-2.405,18.139-8.668
				c8.064-8.504,8.913-23.723-5.499-24.754c-19.932-1.424-31.741,18.403-31.741,32.78c-0.14-0.021-0.73,8.322,3.713,16.403
				c-3.235,3.59-7.333,7.212-10.468,7.745c-4.246,0.718-9.814-5.93-11.2-8.826c-5.081-10.613-6.254-26.441-5.773-37.872
				c0.117-2.762,0.459-3.143,0.459-3.143s10.674-9.552,17.416-20.387c7.698-12.372,21.91-47.435-0.025-57.583
				c-22.672-10.488-31.197,29.649-35.193,44.558c-1.219,4.594-4.763,19.566-4.619,36.806c-2.522,1.937-5.041,3.797-7.474,5.434
				c-3.646-21.675-40.691-22.903-47.452-4.197c1.573-4.349,10.192-21.45,12.154-25.894c4.289-9.741,8.437-20.337,9.983-30.937
				c1.501-10.298,1.651-24.322-5.582-28.375c-8.294-4.642-17.376-0.865-22.019,4.933c-9.089,11.318-16.068,30.829-17.562,49.35
				c-2.19,27.17,3.946,50.604,3.946,50.604s-8.657,19.857-13.26,19.28c-6.533-0.817-3.829-26.385-3.273-30.778
				c0.539-4.277,1.766-11.474,1.388-16.658c-0.444-6.099-19.127,7.728-19.237,13.539c-0.11,5.811,1.125,17.748-5.982,29.229
				c-4,6.462-7.961,4.011-10.867-1.556c-3.62-10.286-4.546-23.61-4.014-33.582c0.271-5.274,1.124-9.037,1.124-9.037
				s7.255-8.781,10.365-13.76c7.727-12.354,28.516-49.494,6.361-58.316c-23.208-9.24-31.199,29.649-35.194,44.56
				c-0.805,3.032-2.62,10.615-3.723,20.364c-18.023-5.189-40.26,5.328-45.239,30.636c-2.191,11.146,3.038,22.284,3.038,22.284
				s-5.105,6.387-11.236,7.449c-4.755,0.822-10.015-2.814-13.892-7.76c-5.143-6.562-5.857-13.39-5.857-13.39
				s12.201-2.405,18.138-8.668c8.065-8.505,8.913-23.723-5.498-24.753c-18.139-1.297-29.548,15.007-31.453,28.788
				c-3.609-0.672-6.59-1.584-9.312-3.907c-4.515-3.853-7.691-9.714-7.341-15.894c0.304-5.372,4.049-13.841,9.548-16.083
				c5.705-2.325,10.79,0.496,10.704-0.918c-0.283-4.612-9.518-4.423-13.668-1.781c-5.807,3.695-9.185,8.768-10.174,15.639
				c-1.781,12.373,3.661,21.789,15.792,25.926c1.612,0.548,3.056,1.047,4.098,1.413c-0.152,1.854-0.088,9.801,4.445,17.171
				c2.121,3.446,7.513,10.37,11.878,11.985c7.517,2.783,11.343,2.749,19.246,1.053c6.313-1.345,15.742-10.595,16.963-11.59
				c11.26,22.3,32.277,8.384,43.43-7.673c1.953,7.203,4.872,13.611,9.558,17.327c1.063,1.095,2.236,1.926,3.532,2.356
				c0.724,0.242,1.437,0.395,2.143,0.498c0.095,0.025,0.177,0.068,0.272,0.091c0.687,0.161,1.422,0.146,2.18,0
				c8.166-0.501,14.843-9.334,18.87-16.061c0,0,1.684,12.405,7.991,14.497c4.554,1.499,7.123,1.123,10.924-0.237
				c9.805-3.508,17.167-20.295,20.546-25.937c4.016,5.585,1.971,4.862,5.944,6.188c1.254,0.417,3.16-0.125,3.25-1.205
				c0.09-1.077-0.151-2.683-0.597-4.3c-0.096-1.665,0.043-6.354,3.081-15.195c2.68-5.759,6.526-10.832,11.968-14.436
				c12.914-8.555,23.847,7.276,19.889,17.832c0,0-8.294,3.771-12.63,6.596c-8.119,5.298-17.508,13.995-12.062,23.372
				c4.428,7.618,17.355,11.332,25.067,6.48c10.944-6.888,19.662-15.086,19.663-39.922c2.505-1.486,5-3.081,7.422-4.734
				c0.133,1.813,0.296,3.636,0.53,5.466c2.705,21.137,7.615,53.395,35.305,42.8c5.479-2.096,11.687-7.169,16.231-12.423
				c2.611,3.435,6.369,7.486,9.576,8.676c3.11,1.15,5.583,1.796,7.979,2.065c7.072,1.331,14.432,0.478,20.869-3.029
				c2.785-1.518,8.766-6.926,12.28-13.82C409.892,369.053,413.56,361.182,409.384,360.266z M347.801,270.138
				c2.545,1.479,2.079,15.896-3.014,27.48c-8.187,18.62-13.725,25.283-18.058,28.173
				C326.409,311.664,343.144,267.434,347.801,270.138z M196.591,270.781c4.659,2.706-13.386,40.044-19.219,46.606
				C177.372,306.542,191.933,268.076,196.591,270.781z M99.977,334.483c2.296,2.026,0.458,10.982-4.403,15.071
				c-7.062,5.941-15.445,6.356-15.57,6.422C80.114,352.16,89.811,325.516,99.977,334.483z M136.83,375.236
				c-7.771-2.432-8.592-11.606-7.384-22.473c0.963-8.667,6.206-15.878,8.672-19.477c6.372-9.292,14.225-6.443,14.861-6.08
				c0.008,0.587,0.026,1.206,0.054,1.852c-0.423,6.845-0.391,14.347,0.579,21.922c0.522,4.079,1.11,8.533,1.929,12.957
				C151.064,369.581,141.479,376.688,136.83,375.236z M251.978,291.678c0.305-0.934,11.302-31.799,13.567-25.871
				c3.539,9.324-2.096,24.17-5.079,33.159c-2.391,7.261-13.249,30.815-13.687,31.045
				C246.29,316.654,247.813,304.393,251.978,291.678z M258.976,382.16c-5.398-1.133-3.841-8.209,1.908-13.534
				c5.178-4.798,14.695-9.096,15.191-8.951C274.41,365.897,268.787,384.214,258.976,382.16z M388.272,334.002
				c2.296,2.026,0.458,10.981-4.403,15.071c-7.062,5.94-15.446,6.355-15.57,6.423C368.41,351.679,378.105,325.034,388.272,334.002z"
				/>
			<path fill="#BE1E2D" d="M196.793,313.093c-0.571,6.888,6.598,10.7,12.625,7.384c5.957-3.277,7.041-8.731,7.759-14.932
				c-0.179,1.55-0.241-0.883-0.057-0.249C214.33,291.354,197.565,303.795,196.793,313.093z"/>
		</g>
	</g>
</g>
</svg>
