<?xml version="1.0" encoding="utf-8"?>
<!-- Generator: Adobe Illustrator 16.0.0, SVG Export Plug-In . SVG Version: 6.00 Build 0)  -->
<!DOCTYPE svg PUBLIC "-//W3C//DTD SVG 1.1//EN" "http://www.w3.org/Graphics/SVG/1.1/DTD/svg11.dtd">
<svg version="1.1" id="Layer_1" xmlns="http://www.w3.org/2000/svg" xmlns:xlink="http://www.w3.org/1999/xlink" x="0px" y="0px"
	 width="555.994px" height="555.994px" viewBox="0 0 555.994 555.994" enable-background="new 0 0 555.994 555.994"
	 xml:space="preserve">
<g id="Layer_2">
</g>
<g id="Layer_1_1_">
	<rect fill="#FFDE17" width="555.994" height="555.994"/>
	<path fill="#FFFFFF" d="M48.451,228.928c0,0-30.237,60.599,23.761,101.095c0,0,51.016,36.285,73.505-1.355L48.451,228.928z"/>
	<polygon fill="#FFFFFF" points="142.708,105.033 174.206,105.033 187.991,121.663 211.704,96.034 234.293,87.196 246.408,109.147 
		251.498,141.845 291.2,168.03 276.201,193.529 252.202,193.529 259.701,255.025 240.203,249.026 224.986,237.928 217.704,265.525 
		196.705,274.524 177.206,265.525 175.706,241.526 178.897,219.337 139.794,223.057 112.28,209.658 115.709,192.029 
		135.208,177.029 158.267,170.198 139.708,154.531 130.708,129.032 	"/>
	<polygon fill="#FFFFFF" points="359.77,54.485 344.438,54.485 329.104,73.818 337.77,93.152 328.438,126.485 333.104,144.485 
		321.77,161.152 329.77,177.152 346.438,171.152 351.104,144.485 	"/>
	<polygon fill="#FFFFFF" points="403.799,202.363 399.377,165.485 411.77,173.818 415.104,195.152 463.13,184.422 461.769,195.818 
		442.435,213.152 465.769,231.818 439.769,237.818 443.101,257.152 417.104,273.818 344.438,299.151 335.77,285.817 	"/>
	<polygon fill="#FFFFFF" points="469.769,298.485 473.101,278.485 495.769,271.152 512.435,280.485 498.435,307.817 
		474.487,309.327 444.435,332.485 431.101,323.151 436.435,307.817 	"/>
	<g>
		<path fill="#FFFFFF" d="M129.146,497.444c-1.491,0-2.844-0.592-4.059-1.767h-0.236c-0.902,0-2,0.06-3.295,0.176
			c-1.725,0.157-2.805,0.236-3.234,0.236c-2.668,0-4.924-0.605-6.766-1.824c-2.158-1.412-3.236-3.372-3.236-5.883
			c0-2.746,1.567-4.745,4.707-6.002l5.941-1.175c1.098-0.196,3.039-0.589,5.824-1.179c0.078-0.234,0.117-0.411,0.117-0.528
			c0-3.373-1.156-5.06-3.471-5.06c-1.256,0-2.941,0.883-5.06,2.646l-4.472,4l-1.234-0.469c-0.706-0.745-1.178-1.688-1.413-2.824
			c0.667-1.884,2.274-3.696,4.825-5.441c2.549-1.747,4.824-2.619,6.824-2.619c0.275,0,1.608,0.257,4,0.767
			c3.414,0.745,5.657,1.763,6.737,3.059c1.077,1.294,1.618,3.667,1.618,7.117c0,0.707-0.08,2.414-0.236,5.12
			c-0.117,2.039-0.176,3.727-0.176,5.06c0-0.156,0.117,0.999,0.354,3.471c0.038,0.393,0.059,0.729,0.059,1.003
			c0,1.41-1.021,2.117-3.061,2.117H129.146L129.146,497.444z M123.968,485.971c-1.137,0-2.646,0.257-4.529,0.767
			c-2.117,0.55-3.492,1.138-4.118,1.766l-0.411,0.41c-0.471,0.473-0.707,0.786-0.707,0.943c0,0.9,1.686,1.352,5.06,1.352
			c0.667,0,1.608-0.116,2.824-0.353c1.373-0.235,2.216-0.491,2.53-0.766c0.312-0.272,0.471-1.039,0.471-2.294
			C125.087,486.58,124.714,485.971,123.968,485.971z"/>
		<path fill="#FFFFFF" d="M147.237,471.793c2.426-1.517,4.057-2.275,4.891-2.275c3.071,0,4.607,1.101,4.607,3.299l-0.171,1.309
			l-1.251,0.738c-0.189,0-0.635-0.132-1.338-0.397c-0.701-0.265-1.185-0.396-1.449-0.396c-1.783,0-3.262,2.161-4.437,6.483
			c-0.909,3.335-1.364,6.312-1.364,8.929c0,0.682,0.057,1.555,0.17,2.615c0.152,1.442,0.229,2.313,0.229,2.615
			c0,1.289-0.816,1.936-2.445,1.936c-4.096,0-6.143-0.972-6.143-2.912c0-0.458,0.075-1.134,0.229-2.028
			c0.15-0.895,0.227-1.571,0.227-2.026v-4.97c0-6.243-0.398-10.773-1.195-13.592c0.721-1.066,2.787-1.601,6.199-1.601
			C146.081,469.518,147.161,470.276,147.237,471.793z"/>
		<path fill="#FFFFFF" d="M168.392,471.793c2.428-1.517,4.059-2.275,4.892-2.275c3.071,0,4.607,1.101,4.607,3.299l-0.171,1.309
			l-1.251,0.738c-0.19,0-0.636-0.132-1.337-0.397c-0.702-0.265-1.186-0.396-1.449-0.396c-1.783,0-3.262,2.161-4.437,6.483
			c-0.911,3.335-1.364,6.312-1.364,8.929c0,0.682,0.057,1.555,0.17,2.615c0.151,1.442,0.228,2.313,0.228,2.615
			c0,1.289-0.815,1.936-2.446,1.936c-4.094,0-6.143-0.972-6.143-2.912c0-0.458,0.076-1.134,0.229-2.028
			c0.151-0.895,0.229-1.571,0.229-2.026v-4.97c0-6.243-0.399-10.773-1.195-13.592c0.72-1.066,2.787-1.601,6.199-1.601
			C167.235,469.518,168.317,470.276,168.392,471.793z"/>
		<path fill="#FFFFFF" d="M199.874,497.444c-1.492,0-2.845-0.592-4.061-1.767h-0.234c-0.903,0-2.001,0.06-3.295,0.176
			c-1.727,0.157-2.805,0.236-3.236,0.236c-2.668,0-4.922-0.605-6.766-1.824c-2.158-1.412-3.236-3.372-3.236-5.883
			c0-2.746,1.568-4.745,4.707-6.002l5.941-1.175c1.098-0.196,3.041-0.589,5.825-1.179c0.078-0.234,0.118-0.411,0.118-0.528
			c0-3.373-1.157-5.06-3.471-5.06c-1.256,0-2.941,0.883-5.061,2.646l-4.471,4l-1.236-0.469c-0.705-0.745-1.176-1.688-1.412-2.824
			c0.666-1.884,2.274-3.696,4.825-5.441c2.55-1.747,4.824-2.619,6.825-2.619c0.273,0,1.607,0.257,4,0.767
			c3.412,0.745,5.656,1.763,6.736,3.059c1.078,1.294,1.618,3.667,1.618,7.117c0,0.707-0.08,2.414-0.235,5.12
			c-0.118,2.039-0.177,3.727-0.177,5.06c0-0.156,0.118,0.999,0.353,3.471c0.039,0.393,0.06,0.729,0.06,1.003
			c0,1.41-1.021,2.117-3.06,2.117H199.874L199.874,497.444z M194.695,485.971c-1.138,0-2.646,0.257-4.528,0.767
			c-2.118,0.55-3.492,1.138-4.119,1.766l-0.412,0.41c-0.471,0.473-0.707,0.786-0.707,0.943c0,0.9,1.688,1.352,5.061,1.352
			c0.666,0,1.607-0.116,2.824-0.353c1.373-0.235,2.216-0.491,2.529-0.766c0.314-0.272,0.471-1.039,0.471-2.294
			C195.813,486.58,195.44,485.971,194.695,485.971z"/>
		<path fill="#FFFFFF" d="M234.762,494.736c-0.04,1.059-1.492,1.59-4.354,1.59c-0.785,0-1.727-0.14-2.824-0.412
			c-1.373-0.352-2.06-0.843-2.06-1.47c0-1.062,0.104-2.295,0.313-3.707c0.334-2.158,0.502-3.374,0.502-3.648
			c0.084-0.627,0.127-1.272,0.127-1.941v-1.999c0-6.197-1.244-9.297-3.73-9.297c-3.672,0-5.508,5.015-5.508,15.042
			c0,1.756,0.158,3.729,0.471,5.911l-0.646,1.17c-1.021,0.233-1.846,0.353-2.471,0.353h-0.941c-3.178,0-4.766-0.742-4.766-2.227
			c0-1.211,0.057-2.44,0.176-3.689c0.354-3.709,0.529-5.76,0.529-6.151v-1.639c0-4.844-0.314-8.71-0.941-11.6
			c0.312-0.898,1.097-1.427,2.348-1.581h3.17c0.627,0,2.055,0.411,4.286,1.233c-0.196,0,0.998-0.116,3.581-0.351
			c0.431-0.039,0.762-0.062,0.997-0.062c4.344,0,7.425,0.883,9.245,2.646c1.821,1.767,2.729,4.806,2.729,9.12v2.59
			c0,0.116,0,0.842,0,2.176L234.762,494.736z"/>
		<path fill="#FFFFFF" d="M264.235,480.91c0,1.845,0.099,4.275,0.294,7.297l0.472,7.295c0.038,0.627,0.059,1.921,0.059,3.883
			c0,2.862-1.353,5.079-4.06,6.648c-2.196,1.295-4.844,1.939-7.941,1.939c-8.119,0-12.885-1.686-14.297-5.058
			c0.393-0.629,1.02-1.158,1.883-1.59c0.861-0.433,1.666-0.647,2.412-0.647c0.195,0,1.441,0.64,3.735,1.914
			c2.294,1.272,3.971,1.911,5.03,1.911c1.922,0,3.275-0.528,4.06-1.588c0.626-0.905,0.941-2.354,0.941-4.354
			c0-1.883-1.021-2.823-3.06-2.823c-0.705,0-1.922,0.079-3.646,0.234c-0.434,0.039-0.766,0.06-1.002,0.06
			c-6.627,0-9.941-3.646-9.941-10.943c0-3.841,0.783-7.333,2.353-10.472c1.96-3.92,4.667-5.883,8.118-5.883
			c0.824,0,1.707,0.137,2.648,0.41c2.274,0.669,3.549,1.003,3.824,1.003c0.117,0,0.578-0.188,1.382-0.56
			c0.804-0.374,1.402-0.561,1.795-0.561c1.726,0,3.726,0.313,6.001,0.938l0.354,1.062
			C264.707,473.733,264.235,477.029,264.235,480.91z M256.117,476.616c-0.117-2.156-0.824-3.235-2.117-3.235
			c-1.845,0-3.413,1.668-4.708,5c-1.138,2.904-1.705,5.513-1.705,7.826c0,4.471,1.196,6.706,3.589,6.706
			c1.566,0,2.804-0.939,3.705-2.823c0.745-1.49,1.119-3.119,1.119-4.883v-0.236c0.117-2.783,0.176-4.922,0.176-6.413v-0.764
			C256.176,477.638,256.156,477.245,256.117,476.616z"/>
		<path fill="#FFFFFF" d="M289.004,496.62c-2.668,0.744-4.668,1.117-6,1.117c-9.143,0-13.711-3.852-13.711-11.556
			c0-2.632,0.53-5.464,1.59-8.488c1.176-3.42,2.666-5.797,4.471-7.135c0.98-0.746,2.627-1.119,4.941-1.119
			c3.567,0,6.608,0.824,9.119,2.477c2.942,1.888,4.414,4.525,4.414,7.905c0,3.147-0.611,5.703-1.826,7.67
			c-1.451,2.397-3.646,3.6-6.588,3.6c-0.901,0-2.246-0.196-4.029-0.589c-1.784-0.393-3.131-0.59-4.031-0.59
			c-0.117,0-0.176,0.101-0.176,0.295c0,2.353,1.783,3.53,5.354,3.53c1.02,0,2.51-0.274,4.471-0.824
			c1.961-0.547,3.451-0.824,4.473-0.824c1.568,0,2.354,0.532,2.354,1.59C293.83,494.737,292.219,495.718,289.004,496.62z
			 M283.235,473.44c-1.293,0-2.588,1.396-3.883,4.195c-1.1,2.401-1.646,4.433-1.646,6.084c0,1.024,0.471,1.853,1.412,2.482
			c0.823,0.552,1.764,0.827,2.823,0.827c1.371,0,2.511-1.143,3.412-3.428c0.744-1.891,1.117-3.802,1.117-5.73
			c0-1.143-0.254-2.128-0.766-2.956C285.121,473.932,284.295,473.44,283.235,473.44z"/>
		<path fill="#FFFFFF" d="M337.658,496.326c-2.435,0-4.59-0.295-6.474-0.883l-0.94-1.295c0.666-3.139,1-7.156,1-12.061
			c0-5.139-0.863-7.708-2.588-7.708c-2.275,0-3.883,2.204-4.824,6.612c-0.588,2.771-0.883,5.773-0.883,9.013
			c0,1.249,0.078,2.771,0.233,4.563c-0.586,1.17-2.352,1.757-5.293,1.757c-1.375,0-2.453-0.371-3.235-1.111l-0.354-0.526
			c-0.117-0.233-0.176-0.47-0.176-0.702c0-0.78,0.096-1.658,0.293-2.635c0.473-2.38,0.707-3.82,0.707-4.329v-2.633
			c0-6.554-1.197-9.831-3.59-9.831c-2,0-3.412,2.148-4.234,6.446c-0.473,2.485-0.707,5.324-0.707,8.518
			c0,1.854,0.078,3.688,0.234,5.502l-0.765,1.006c-0.626,0-1.559,0.049-2.794,0.148c-1.234,0.099-2.168,0.147-2.795,0.147
			c-1.646,0-2.472-0.573-2.472-1.715c0-1.771,0.078-3.938,0.235-6.5c0.353-5.751,0.529-9.375,0.529-10.871
			c0-2.206-0.313-4.139-0.94-5.792c0.743-1.223,2.096-1.832,4.059-1.832c2.511,0,4.334,0.393,5.473,1.175l0.294,0.707
			c2.979-0.548,4.862-0.824,5.647-0.824c1.49,0,2.883,0.256,4.178,0.765c0.156,0.08,0.511,0.235,1.06,0.473l2.707,1.178l4.352-1.767
			c1.648-0.665,3.396-0.998,5.238-0.998c3.215,0,5.52,0.716,6.912,2.146c1.391,1.434,2.088,3.755,2.088,6.972
			c0,0.354-0.021,1.374-0.06,3.06v2c0,0.471-0.059,0.844-0.176,1.118c0,0.273,0,0.353,0,0.234c0,0.274,0.037,0.862,0.117,1.765
			l0.412,4.824c0.037,0.472,0.059,1.061,0.059,1.767c0,0.587-0.266,1.087-0.795,1.5
			C338.865,496.119,338.283,496.326,337.658,496.326z"/>
		<path fill="#FFFFFF" d="M363.662,496.62c-2.668,0.744-4.668,1.117-6,1.117c-9.144,0-13.711-3.852-13.711-11.556
			c0-2.632,0.531-5.464,1.59-8.488c1.178-3.42,2.666-5.797,4.471-7.135c0.98-0.746,2.627-1.119,4.941-1.119
			c3.568,0,6.609,0.824,9.119,2.477c2.942,1.888,4.414,4.525,4.414,7.905c0,3.147-0.609,5.703-1.826,7.67
			c-1.449,2.397-3.646,3.6-6.588,3.6c-0.902,0-2.246-0.196-4.029-0.589c-1.785-0.393-3.129-0.59-4.031-0.59
			c-0.117,0-0.176,0.101-0.176,0.295c0,2.353,1.783,3.53,5.354,3.53c1.02,0,2.51-0.274,4.471-0.824
			c1.961-0.547,3.451-0.824,4.473-0.824c1.568,0,2.354,0.532,2.354,1.59C368.488,494.737,366.877,495.718,363.662,496.62z
			 M357.895,473.44c-1.293,0-2.588,1.396-3.883,4.195c-1.098,2.401-1.646,4.433-1.646,6.084c0,1.024,0.471,1.853,1.412,2.482
			c0.823,0.552,1.764,0.827,2.823,0.827c1.371,0,2.511-1.143,3.412-3.428c0.744-1.891,1.117-3.802,1.117-5.73
			c0-1.143-0.254-2.128-0.764-2.956C359.779,473.932,358.953,473.44,357.895,473.44z"/>
		<path fill="#FFFFFF" d="M398.668,494.736c-0.041,1.059-1.492,1.59-4.355,1.59c-0.784,0-1.727-0.14-2.823-0.412
			c-1.371-0.352-2.06-0.843-2.06-1.47c0-1.062,0.104-2.295,0.314-3.707c0.334-2.158,0.502-3.374,0.502-3.648
			c0.082-0.627,0.125-1.272,0.125-1.941v-1.999c0-6.197-1.242-9.297-3.73-9.297c-3.67,0-5.506,5.015-5.506,15.042
			c0,1.756,0.156,3.729,0.472,5.911l-0.648,1.17c-1.021,0.233-1.844,0.353-2.469,0.353h-0.941c-3.178,0-4.766-0.742-4.766-2.227
			c0-1.211,0.059-2.44,0.176-3.689c0.354-3.709,0.529-5.76,0.529-6.151v-1.639c0-4.844-0.314-8.71-0.941-11.6
			c0.312-0.898,1.096-1.427,2.348-1.581h3.171c0.627,0,2.055,0.411,4.284,1.233c-0.194,0,0.998-0.116,3.582-0.351
			c0.433-0.039,0.765-0.062,0.998-0.062c4.342,0,7.424,0.883,9.244,2.646c1.82,1.767,2.73,4.806,2.73,9.12v2.59
			c0,0.116,0,0.842,0,2.176L398.668,494.736z"/>
		<path fill="#FFFFFF" d="M420.107,474.499c-1.533,0.274-3.029,0.51-4.484,0.705c-0.324,0.314-0.486,1.687-0.486,4.119
			c0,3.294,0.101,6.374,0.295,9.236l0.119,6.471c0.037,1.021-1.199,1.53-3.715,1.53c-1.471,0-2.979-0.433-4.525-1.295
			c-0.192-0.587-0.291-1.528-0.291-2.824c0,0.354,0-0.02,0-1.116v-4.647c0-0.273,0-0.768,0-1.471l0.236-10.119l-0.236-0.177
			l-2.352,0.115c-1.334,0.082-2.453-0.41-3.354-1.47c0.271-1.098,0.893-1.844,1.862-2.235l2.562-0.706
			c0.854-0.235,1.281-0.744,1.281-1.529c0,0.55-0.156-1.588-0.472-6.412c0.039-0.666,0.062-1.215,0.062-1.646
			c0-1.961,1.487-2.942,4.469-2.942h0.883c2.785,0,4.176,0.746,4.176,2.235c0,0.747-0.057,1.354-0.176,1.824l-0.41,5.117
			c0,0.98,0,1.608,0,1.883c0,0.864,0.726,1.295,2.176,1.295c1.687,0,2.845,0.962,3.47,2.883L420.107,474.499z"/>
		<path fill="#FFFFFF" d="M439.198,496.679c-0.513,0-1.256-0.051-2.236-0.146c-0.979-0.099-1.725-0.146-2.234-0.146
			c-2.434,0-4.745-0.177-6.942-0.529c-3.686-0.589-5.528-1.606-5.528-3.06c0-0.941,0.295-1.744,0.883-2.412
			c0.589-0.667,1.332-0.999,2.236-0.999c3.448,2.274,6.153,3.411,8.114,3.411c0.553,0,1.274-0.157,2.182-0.472
			c1.096-0.352,1.646-0.726,1.646-1.117c0-0.47-1.531-1.236-4.59-2.295c-1.218-0.431-3.062-1.059-5.531-1.882
			c-2.626-1.53-3.938-3.767-3.938-6.707c0-2.784,0.566-5.314,1.703-7.59c1.412-2.862,3.411-4.294,6.001-4.294
			c0.824,0,2,0.155,3.529,0.47l3.412,0.707c2.746,0.55,4.617,1.411,5.617,2.589c1,1.176,1.502,3.136,1.502,5.883
			c0,1.688-0.236,2.903-0.707,3.646c-0.588,0.941-1.668,1.413-3.234,1.413c-2.787,0-4.178-1.94-4.178-5.825v-1.412
			c0-2.196-0.392-3.293-1.176-3.293c-0.943,0-1.824,0.961-2.648,2.881c-0.705,1.688-1.062,3.081-1.062,4.178
			c0,2.117,1.22,3.729,3.652,4.824c1.135,0.511,3.389,1.55,6.762,3.117c2.435,1.14,3.648,2.454,3.648,3.942
			c0,1.295-0.844,2.49-2.529,3.591C442.021,496.169,440.571,496.679,439.198,496.679z"/>
	</g>
	<g>
		<path fill="#FFFFFF" d="M465.69,411.128c-2.375-0.521-2.128,7.302-10.474,18.207c-2.949,2.654-7.285,5.402-12.766,5.607
			c-7.025,0.258-11.709-4.944-14.314-9.123c-4.761-7.648-6.327-14.471-6.327-14.471s13.184-2.6,19.602-9.366
			c8.715-9.19,9.633-25.638-5.941-26.751c-21.538-1.539-34.3,19.888-34.3,35.425c-0.146-0.022-0.725,8.292,3.48,16.687
			c1.321,2.959,4.053,6.295,4.812,7.252s5.545,5.712,8.363,7.332c3.334,1.917,7.082,2.667,9.499,3.25
			c7.832,1,15.629,0.173,22.586-3.617c3.01-1.64,9.473-7.483,13.271-14.935C466.239,420.624,470.202,412.118,465.69,411.128z
			 M442.876,382.745c2.48,2.189,0.494,11.867-4.76,16.287c-7.631,6.42-16.69,6.869-16.823,6.94
			C421.412,401.849,431.888,373.056,442.876,382.745z"/>
		<path fill="#FFFFFF" d="M405.723,426.614c-3.5,4.062-8.688,8.312-13.188,8.688c-4.291,0.357-7.941-5.952-9.328-8.849
			c-5.08-10.613-6.254-24.316-5.773-35.747c0.117-2.762,0.459-3.143,0.459-3.143s10.675-9.553,17.416-20.388
			c7.697-12.372,21.91-47.435-0.024-57.583c-22.672-10.488-31.197,29.649-35.193,44.559c-1.219,4.594-4.764,19.565-4.619,36.806
			c-2.521,1.937-5.041,3.797-7.475,5.434c-3.646-21.675-40.689-22.903-47.451-4.196c1.572-4.35,10.191-21.45,12.154-25.895
			c4.289-9.74,8.438-20.337,9.981-30.938c1.502-10.297,1.652-24.321-5.58-28.375c-8.295-4.641-17.376-0.864-22.02,4.934
			c-9.09,11.318-16.067,30.829-17.561,49.35c-2.191,27.17,3.945,50.604,3.945,50.604s-8.656,19.857-13.26,19.28
			c-6.533-0.817-3.829-26.386-3.273-30.778c0.539-4.277,1.767-11.474,1.389-16.657c-0.444-6.1-19.127,7.728-19.237,13.538
			c-0.11,5.812,1.125,17.748-5.981,29.229c-4.001,6.462-7.962,4.011-10.867-1.557c-3.621-10.286-4.547-23.609-4.015-33.582
			c0.271-5.273,1.124-9.037,1.124-9.037s7.256-8.78,10.365-13.76c7.727-12.354,28.516-49.494,6.36-58.316
			c-23.208-9.239-31.199,29.649-35.194,44.561c-0.806,3.032-2.62,10.615-3.724,20.364c-18.022-5.188-40.26,5.328-45.238,30.636
			c-1.772,9.013,0.75,18.514,1.994,21.632c-1.201,1.396-5.577,6.248-11.354,7.249c-5.16,0.894-10.869-3.055-15.076-8.422
			c-5.582-7.122-6.357-14.531-6.357-14.531s13.241-2.609,19.685-9.406c8.753-9.229,9.673-25.746-5.967-26.863
			c-19.686-1.407-32.067,16.286-34.136,31.243c-3.916-0.729-7.151-1.721-10.105-4.24c-4.9-4.182-8.348-10.543-7.968-17.249
			c0.329-5.83,4.395-15.021,10.362-17.455c6.191-2.523,11.709,0.539,11.616-0.996c-0.308-5.006-10.329-4.8-14.834-1.933
			c-6.302,4.01-9.968,9.515-11.042,16.972c-1.934,13.43,3.973,23.647,17.139,28.137c1.75,0.596,3.316,1.138,4.447,1.533
			c-0.165,2.013-0.162,9.779,4.215,18.088c2.017,3.827,5.105,9.272,13.5,13.556c7,3.569,12.485,3.664,20.888,1.143
			c6.487-1.947,14.696-9.608,16.987-11.655l0,0c11.26,22.301,36,12.333,44.854-7.507c1.952,7.203,4.871,13.611,9.558,17.327
			c1.062,1.095,2.236,1.926,3.531,2.356c0.725,0.241,1.438,0.395,2.143,0.498c0.096,0.024,0.178,0.067,0.273,0.091
			c0.686,0.161,1.422,0.146,2.18,0c8.165-0.501,14.843-9.334,18.869-16.062c0,0,1.684,13.405,7.991,15.497
			c4.554,1.499,7.122,1.123,10.925-0.237c9.805-3.508,17.167-21.295,20.545-26.937c4.018,5.585,1.973,4.862,5.945,6.188
			c1.254,0.417,3.159-0.125,3.25-1.204c0.09-1.077-0.15-2.684-0.599-4.301c-0.096-1.665,0.043-6.354,3.082-15.194
			c2.681-5.76,6.524-10.832,11.969-14.437c12.914-8.555,23.847,7.276,19.89,17.832c0,0-8.295,3.771-12.632,6.596
			c-8.116,5.299-17.507,14.495-12.061,23.872c4.428,7.618,19.574,11.306,27.287,6.453c10.943-6.888,17.44-15.559,17.443-40.395
			c2.504-1.486,5-3.081,7.422-4.734c0.133,1.813,0.295,3.636,0.528,5.466c2.705,21.138,8.855,48.788,35.306,40.676
			c5.389-1.653,13.248-8.541,17.737-13.574C408.16,429.503,406.619,428.188,405.723,426.614z M399.285,323.563
			c2.545,1.479,2.078,15.896-3.014,27.48c-8.188,18.62-13.726,25.283-18.06,28.173C377.893,365.091,394.627,320.86,399.285,323.563z
			 M248.074,324.208c4.658,2.706-13.387,40.044-19.22,46.605C228.854,359.969,243.416,321.503,248.074,324.208z M150.276,382.997
			c2.492,2.199,0.497,11.919-4.779,16.355c-7.664,6.448-16.762,6.898-16.896,6.971C128.72,402.182,139.243,373.265,150.276,382.997z
			 M188.312,428.663c-7.771-2.432-8.592-11.606-7.384-22.473c0.963-8.667,6.205-15.879,8.672-19.478
			c6.371-9.292,14.225-6.442,14.86-6.08c0.009,0.587,0.026,1.206,0.054,1.853c-0.424,6.845-0.391,14.347,0.578,21.922
			c0.522,4.079,1.111,8.533,1.93,12.957C202.547,423.008,192.962,430.114,188.312,428.663z M303.461,345.104
			c0.306-0.935,11.303-31.799,13.566-25.871c3.539,9.324-2.097,24.17-5.078,33.158c-2.394,7.262-13.25,30.815-13.688,31.045
			C297.772,370.081,299.297,357.819,303.461,345.104z M310.459,435.587c-5.397-1.133-3.842-8.209,1.908-13.534
			c5.178-4.798,14.692-9.096,15.19-8.951C325.893,419.324,320.27,437.641,310.459,435.587z"/>
		<path fill="#FFFFFF" d="M248.276,366.521c-0.571,6.888,6.599,10.699,12.625,7.383c5.957-3.276,7.04-8.73,7.759-14.932
			c-0.179,1.551-0.24-0.883-0.057-0.248C265.812,344.78,249.048,357.222,248.276,366.521z"/>
	</g>
	<g>
		<g>
			<path fill="#8DC63F" d="M152.2,336.51c13.52-6.286,23.875-17.856,30.027-31.34c1.217-2.668,0.83-5.479-1.273-7.578
				c-6.131-6.122-13.189-10.85-21.389-13.645c-0.393-0.134-0.771-0.205-1.139-0.232c-13.436-8.609-26.832-17.244-40.049-26.229
				c-18.412-12.51-36.742-25.219-56.357-35.795c-2.469-1.332-6.275-0.479-7.447,2.271c-10.559,24.754-8.547,51.967,5.283,75.025
				c12.047,20.088,32.635,36.018,55.686,40.965C127.692,342.562,140.86,341.785,152.2,336.51z"/>
		</g>
		<path fill="#FFDE17" d="M170.95,165.996c0,0-46.51-22.213-24.484-52.672c0,0,27.072-22.9,51.656,9.84
			c0,0,8.541-36.324,38.634-23.994c0,0,36.961,10.34,14.939,40.801c0,0,39.689-3.988,43.525,9.943
			c3.834,13.932,13.111,43.541-34.152,36.189c0,0,38.451,25.621,29.775,40.965c-8.676,15.338-34.031,39.297-55.785,8.75
			c0,0-4.756,42-42.372,26.582c0,0-26.711-21.592-9.332-44.684c0,0-54.408,15.107-57.613-12.627
			C122.532,177.359,139.388,169.887,170.95,165.996z"/>
		<circle fill="#F26522" cx="217.846" cy="183.455" r="23.493"/>
		<path fill="#7F3F98" d="M501.905,315.767c-10.082,5.707-22.879,2.164-28.586-7.916c-5.709-10.082-2.162-22.883,7.916-28.584
			c10.082-5.711,22.881-2.167,28.588,7.914C515.53,297.263,511.985,310.06,501.905,315.767z"/>
		<path fill="#7F3F98" d="M467.204,335.627c-9.275,5.252-21.049,1.989-26.299-7.284c-5.25-9.271-1.988-21.049,7.282-26.302
			c9.275-5.251,21.05-1.985,26.3,7.286C479.739,318.604,476.479,330.375,467.204,335.627z"/>
		<g>
			<path fill="#EEAF21" d="M160.261,162.966c-15.721-5.959-28.231-28.432-23.426-44.739c2.954-10.026,13.985-15.081,23.758-13.276
				c9.582,1.77,17.654,9.373,20.166,18.707c0.717,2.662,4.33,3.726,6.268,1.654c5.885-6.284,11.568-12.74,17.896-18.591
				c6.496-6.003,14.591-12.274,23.796-12.632c8.977-0.349,15.729,6.919,17.689,15.059c2.367,9.82-0.318,21.027-2.143,30.703
				c-0.484,2.572,1.695,5.65,4.613,4.613c8.732-3.105,18.117-3.981,26.33,0.979c6.338,3.828,10.055,10.75,11.455,17.833
				c1.299,6.575-0.068,14.142-4.398,19.368c-5.662,6.833-14.77,7.807-23.055,6.836c-3.904-0.458-4.836,5.199-1.893,6.988
				c9.805,5.958,19.537,13.97,22.4,25.594c1.854,7.527-0.989,15.211-6.262,20.633c-5.32,5.471-12.926,7.995-20.447,7.425
				c-9.602-0.729-16.949-8.126-21.547-15.978c-2.059-3.518-6.543-1.575-6.988,1.893c-2.07,16.151-13.331,39.556-33.169,33.147
				c-21.121-6.823-15.541-33.386-12.408-49.846c0.449-2.369-1.031-4.743-3.617-4.747c-9.052-0.013-18.072,1.103-27.126,1.213
				c-8.683,0.106-19.468-0.143-26.407-6.137c-8.414-7.27-4.684-18.769,2.178-25.367c9.094-8.746,23.125-12.651,35.34-13.967
				c4.756-0.513,4.806-8.018,0-7.5c-21.557,2.322-61.585,17.998-46.984,46.826c5.037,9.947,17.453,12.571,27.514,13.398
				c11.85,0.975,23.648-0.983,35.486-0.967c-1.205-1.582-2.41-3.165-3.615-4.747c-2.219,11.663-4.338,23.446-2.596,35.316
				c1.777,12.127,10.064,20.468,21.492,24.159c24.451,7.899,38.915-21.292,41.413-40.783c-2.328,0.631-4.658,1.262-6.988,1.893
				c5.92,10.109,15.162,18.315,27.182,19.602c9.844,1.054,19.547-2.679,26.592-9.53c7.273-7.073,10.121-17.181,8.38-27.045
				c-2.447-13.854-14.708-24.078-26.036-30.962c-0.631,2.33-1.262,4.659-1.893,6.988c10.338,1.212,21.22-0.941,28.356-9.033
				c6.277-7.114,7.843-16.833,6.451-25.958c-1.395-9.149-6.809-17.429-14.397-22.619c-9.646-6.595-22.189-5.889-32.736-2.139
				c1.537,1.538,3.074,3.075,4.613,4.613c3.66-19.412,8.016-48.205-17.205-54.648c-21.415-5.471-40.058,19.448-52.569,32.812
				c2.09,0.552,4.178,1.103,6.268,1.654c-6.744-25.064-43.553-34.875-56.754-9.46c-10.718,20.633,7.046,50.421,27.029,57.995
				C162.798,171.915,164.737,164.663,160.261,162.966L160.261,162.966z"/>
		</g>
		<g>
			<path fill="#452F8B" d="M518.599,290.315c-0.647-13.31-9.062-22.801-22.549-23.627c-11.416-0.699-24.479,5.753-29.199,16.472
				c-5.901,13.399,3.296,30.091,17.884,31.653c15.791,1.689,31.278-14.461,30.92-29.701c-0.113-4.827-7.613-4.84-7.5,0
				c0.274,11.658-10.961,22.234-22.459,22.25c-10.599,0.016-15.947-13.936-11.422-22.354c3.924-7.301,13.127-10.875,21.028-10.844
				c9.592,0.038,15.349,6.92,15.797,16.151C511.333,295.129,518.835,295.151,518.599,290.315L518.599,290.315z"/>
		</g>
		<g>
			<path fill="#452F8B" d="M476.265,316.923c2.224-5.846,2.726-12.544-2.006-17.29c-4.145-4.159-10.934-4.663-16.434-4.167
				c-12.572,1.135-27.642,8.023-29.847,21.733c-2.294,14.272,10.861,21.784,23.447,21.595c14.031-0.21,27.299-9.509,27.572-24.342
				c0.09-4.84-7.41-4.83-7.5,0c-0.193,10.505-9.65,16.162-19.264,16.809c-8.048,0.541-18.47-3.085-16.888-12.923
				c1.537-9.562,12.656-13.66,21.033-15.174c3.851-0.695,8.463-0.765,11.928,1.28c3.679,2.168,1.89,7.418,0.724,10.483
				C467.31,319.457,474.562,321.396,476.265,316.923L476.265,316.923z"/>
		</g>
		<g>
			<path fill="#7F3F98" d="M376.111,85.131c-2.631,11.281-13.908,18.295-25.189,15.664c-11.283-2.631-18.295-13.91-15.662-25.188
				c2.629-11.285,13.908-18.297,25.188-15.666C371.729,62.574,378.74,73.85,376.111,85.131z"/>
			<path fill="#7F3F98" d="M367.213,124.111c-2.422,10.379-12.795,16.83-23.176,14.41c-10.377-2.422-16.83-12.797-14.412-23.176
				c2.422-10.379,12.799-16.828,23.174-14.408C363.182,103.359,369.631,113.73,367.213,124.111z"/>
			<path fill="#7F3F98" d="M359.6,157.547c-1.893,8.123-10.012,13.17-18.137,11.273c-8.119-1.891-13.168-10.01-11.274-18.133
				c1.895-8.123,10.014-13.166,18.135-11.275C356.445,141.307,361.494,149.426,359.6,157.547z"/>
			<g>
				<path fill="#452F8B" d="M368.811,55.716c-10.952-9.116-24.825-8.817-34.35,2.198c-7.938,9.185-11.293,24.135-4.01,34.654
					c8.164,11.792,26.838,13.522,35.709,1.839c8.699-11.458,7.883-30.39-3.174-40.049c-3.625-3.167-8.951,2.115-5.304,5.303
					c8.064,7.045,8.701,19.808,3.527,28.76c-5.363,9.279-18.971,8.036-24.734-0.289c-5.143-7.429-1.969-17.708,2.854-24.381
					c6.146-8.504,16.307-9.282,24.178-2.732C367.195,64.089,372.531,58.812,368.811,55.716L368.811,55.716z"/>
			</g>
			<g>
				<path fill="#452F8B" d="M359.646,104.867c-2.755-5.482-7.082-10.301-13.628-10.353c-6.043-0.048-11.231,4.786-14.657,9.252
					c-7.726,10.071-13.017,26.083-4.076,36.967c9.029,10.993,23.223,6.488,31.529-2.839c9.274-10.417,11.61-26.429,0.924-36.698
					c-3.484-3.351-8.795,1.946-5.304,5.303c7.494,7.202,5.664,17.797-0.338,25.393c-5.11,6.468-14.278,11.519-20.896,4.282
					c-6.517-7.121-1.834-18.593,2.481-25.572c2.021-3.269,4.959-6.868,8.683-8.231c4.424-1.62,7.119,2.926,8.805,6.282
					C355.34,112.976,361.811,109.177,359.646,104.867L359.646,104.867z"/>
			</g>
			<g>
				<path fill="#452F8B" d="M351.209,140.52c-20.035-14.335-44.207,23.029-25.143,36.855c20.227,14.67,38.614-20.253,28.252-36.492
					c-2.595-4.062-9.088-0.305-6.478,3.785c5.388,8.44-2.559,33.996-15.311,27.949c-14.748-6.993,1.434-35.251,14.893-25.621
					C351.367,149.816,355.105,143.308,351.209,140.52L351.209,140.52z"/>
			</g>
		</g>
		<g>
			<path fill="#B94126" d="M234.611,161.684c-9.18-12.431-24.304-17.631-37.44-7.601c-11.051,8.438-16.115,23.809-9.592,36.539
				c7.635,14.901,30.103,21.368,43.515,10.894c13.172-10.286,15.424-30.388,4.588-43.08c-1.613-1.892-3.66-3.416-5.701-4.812
				c-4.004-2.739-7.75,3.763-3.785,6.477c11.092,7.592,11.547,23.155,3.049,32.947c-9.385,10.815-26.956,6.202-34.323-4.743
				c-6.049-8.986-1.777-20.615,5.586-27.321c9.205-8.385,20.772-4.798,27.628,4.486C230.975,169.314,237.488,165.58,234.611,161.684
				L234.611,161.684z"/>
		</g>
		<g>
			<path fill="#8DC63F" d="M403.799,202.363c0,0-23.389-25.495-9.322-40.384c0,0,22.464,20.269,18.359,36.624
				c0,0,36.179-26.902,48.434-6.442c0,0-5.812,27.978-35.938,25.242c0,0,40.083,4.202,38.323,27.689c0,0-34.424,3.412-42.622-21.538
				"/>
			<path fill="#BE1E2D" d="M367.621,189.917c-9.473,7.976-48.037,75.906-25.578,96.171c22.457,20.269,89.741-21.047,92.872-28.646
				C444.53,234.121,386.777,173.787,367.621,189.917z"/>
			<g>
				<path fill="#89241B" d="M381.93,188.135c14.056,15.899,33.281,26.364,47.493,42.214c5.762,6.423,11.691,15.197,9.256,24.228
					c-2.065,7.662-11.577,10.838-18.251,12.903c-9.026,2.792-18.389,4.34-27.449,7.02c-8.342,2.467-15.655,6.887-23.305,10.901
					c-6.32,3.315-13.358,7.197-20.604,7.816c-7.013,0.602-9.142-5.094-9.75-11.189c-1.574-15.709,3.881-32.479,9.594-46.892
					c6.231-15.729,15.488-31.116,28.863-41.747c3.786-3.009-1.56-8.278-5.304-5.303c-18.584,14.769-29.512,38.018-36.043,60.333
					c-3.172,10.836-5.442,22.276-4.61,33.608c0.483,6.619,2.625,14.05,9.022,17.218c5.812,2.879,12.756,1.171,18.523-0.905
					c7.781-2.8,15.062-6.941,22.311-10.87c16.103-8.723,34.926-8.87,51.282-16.844c7.127-3.474,12.793-9.625,13.656-17.729
					c1.006-9.471-3.857-17.834-9.498-25.016c-13.975-17.798-35.009-28.223-49.884-45.05
					C384.023,179.201,378.74,184.526,381.93,188.135L381.93,188.135z"/>
			</g>
			<g>
				<path fill="#4B8A3F" d="M408.021,190.243c-7.646-7.152-5.445-17.922-3.136-26.999c-1.836,0.747-3.674,1.494-5.51,2.241
					c8.818,5.301,14.59,16.285,13.438,26.552c-0.281,2.512,2.596,4.151,4.747,3.616c16.606-4.13,31.979-8.832,49.317-7.481
					c-1.25-1.25-2.5-2.5-3.75-3.75c-0.256,13.564-18.305,18.984-26.643,27.064c-2.226,2.154-0.828,5.244,1.653,6.268
					c5.361,2.209,10.906,4.05,15.974,6.902c5.405,3.043,8.912,7.934,11.766,13.312c1.078-1.881,2.158-3.762,3.238-5.643
					c-9.605,0.907-21.744,0.475-27.16-8.876c-2.424-4.183-8.906-0.408-6.478,3.785c6.82,11.772,21.203,13.766,33.638,12.591
					c2.842-0.269,4.653-2.974,3.237-5.643c-3.327-6.272-7.536-11.553-13.526-15.441c-5.67-3.684-12.486-5.661-18.693-8.22
					c0.551,2.09,1.103,4.179,1.654,6.268c10.5-10.173,28.514-15.062,28.84-32.367c0.041-2.163-1.742-3.594-3.75-3.75
					c-17.994-1.402-34.072,3.462-51.312,7.749c1.581,1.205,3.163,2.411,4.745,3.616c1.438-12.808-6.27-26.486-17.151-33.028
					c-2.051-1.232-4.914-0.093-5.508,2.241c-2.996,11.772-4.689,25.171,5.063,34.296
					C406.246,198.846,411.561,193.554,408.021,190.243L408.021,190.243z"/>
			</g>
		</g>
		<g>
			<path fill="#4B8A3F" d="M54.927,232.713c-0.792,1.046-2.241,1.419-1.824,1.443c-1.235-0.07,0.471,0.149,0.848,0.26
				c1.77,0.519,3.017,1.136,4.662,1.923c5.119,2.448,10.035,5.336,14.908,8.232c13.625,8.1,26.863,16.861,39.998,25.727
				c12.385,8.36,24.666,16.891,36.73,25.706c3.492,2.552,6.992,5.108,10.343,7.847c0.757,0.618,1.528,1.243,2.196,1.959
				c-1.021-1.095-0.467-2.679-0.951-0.808c-2.301,8.875-9.284,17.513-16.12,23.664c-11.864,10.679-27.597,13.879-42.976,10.341
				c-29.709-6.835-53.572-32.566-58.357-62.671C41.939,260.953,46.868,245.681,54.927,232.713c2.561-4.12-3.93-7.883-6.476-3.785
				c-11.624,18.705-15.427,40.312-8.338,61.388c4.656,13.846,13.397,26.322,23.794,36.479
				c10.633,10.384,25.766,17.387,40.238,20.164c15.576,2.988,31.339-0.691,43.826-10.462c8.759-6.854,15.753-16.081,20.008-26.354
				c1.014-2.447,2.42-6.012,0.947-8.547c-1.221-2.101-3.742-3.642-5.601-5.088c-22.889-17.811-47.272-34.012-71.722-49.576
				c-8.876-5.65-17.842-11.27-27.211-16.075c-4.223-2.167-12.089-7.014-15.942-1.927C45.528,232.785,52.046,236.516,54.927,232.713z
				"/>
		</g>
	</g>
</g>
</svg>
