<?xml version="1.0" encoding="utf-8"?>
<!-- Generator: Adobe Illustrator 16.0.0, SVG Export Plug-In . SVG Version: 6.00 Build 0)  -->
<!DOCTYPE svg PUBLIC "-//W3C//DTD SVG 1.1//EN" "http://www.w3.org/Graphics/SVG/1.1/DTD/svg11.dtd">
<svg version="1.1" id="Layer_1" xmlns="http://www.w3.org/2000/svg" xmlns:xlink="http://www.w3.org/1999/xlink" x="0px" y="0px"
	 width="556px" height="556px" viewBox="0 0 556 556" enable-background="new 0 0 556 556" xml:space="preserve">
<g id="Layer_2">
</g>
<g id="Layer_1_1_">
	<path fill="#F26522" d="M555.66,505.66c0,27.614-22.387,50-50,50H50.339c-27.614,0-50-22.386-50-50V50.34c0-27.614,22.386-50,50-50
		H505.66c27.613,0,50,22.386,50,50V505.66L555.66,505.66z"/>
	<path fill="#FFFFFF" d="M51.125,226.003c0,0-30.237,60.599,23.761,101.095c0,0,51.016,36.285,73.505-1.355L51.125,226.003z"/>
	<polygon fill="#FFFFFF" points="145.382,102.108 176.88,102.108 190.665,118.738 214.378,93.109 236.967,84.271 249.082,106.223 
		254.172,138.92 293.874,165.105 278.875,190.604 254.876,190.604 262.375,252.101 242.877,246.102 227.66,235.003 220.378,262.601 
		199.379,271.6 179.88,262.601 178.38,238.602 181.571,216.412 142.468,220.132 114.954,206.733 118.383,189.104 137.882,174.104 
		160.94,167.273 142.382,151.606 133.382,126.107 	"/>
	<polygon fill="#FFFFFF" points="362.443,51.561 347.11,51.561 331.777,70.894 340.443,90.228 331.11,123.561 335.777,141.561 
		324.443,158.228 332.443,174.228 349.11,168.228 353.777,141.561 	"/>
	<polygon fill="#FFFFFF" points="406.473,199.438 402.051,162.561 414.443,170.894 417.777,192.228 465.804,181.497 
		464.442,192.894 445.108,210.228 468.442,228.894 442.442,234.894 445.774,254.228 419.777,270.894 347.11,296.229 
		338.443,282.895 	"/>
	<polygon fill="#FFFFFF" points="472.442,295.561 475.774,275.561 498.442,268.228 515.108,277.561 501.108,304.895 
		477.161,306.402 447.108,329.561 433.774,320.229 439.108,304.895 	"/>
	<g>
		<path fill="#FFFFFF" d="M131.819,494.52c-1.491,0-2.844-0.591-4.059-1.766h-0.236c-0.902,0-2,0.059-3.295,0.176
			c-1.725,0.157-2.805,0.236-3.234,0.236c-2.668,0-4.924-0.606-6.766-1.824c-2.158-1.412-3.236-3.372-3.236-5.883
			c0-2.746,1.567-4.745,4.707-6.002l5.941-1.175c1.098-0.196,3.039-0.589,5.824-1.18c0.078-0.233,0.117-0.41,0.117-0.527
			c0-3.373-1.156-5.061-3.471-5.061c-1.256,0-2.941,0.884-5.06,2.646l-4.472,4l-1.234-0.469c-0.706-0.745-1.178-1.688-1.413-2.824
			c0.667-1.884,2.274-3.696,4.825-5.441c2.549-1.747,4.824-2.62,6.824-2.62c0.275,0,1.608,0.258,4,0.768
			c3.414,0.745,5.657,1.763,6.737,3.059c1.077,1.294,1.618,3.667,1.618,7.117c0,0.707-0.08,2.414-0.236,5.12
			c-0.117,2.039-0.176,3.727-0.176,5.06c0-0.156,0.117,0.999,0.354,3.471c0.038,0.393,0.059,0.729,0.059,1.003
			c0,1.409-1.021,2.116-3.061,2.116H131.819L131.819,494.52z M126.642,483.046c-1.137,0-2.646,0.257-4.529,0.766
			c-2.117,0.551-3.492,1.139-4.118,1.767l-0.411,0.41c-0.471,0.473-0.707,0.786-0.707,0.942c0,0.901,1.686,1.353,5.06,1.353
			c0.667,0,1.608-0.116,2.824-0.354c1.373-0.234,2.216-0.49,2.53-0.765c0.312-0.273,0.471-1.039,0.471-2.294
			C127.761,483.655,127.388,483.046,126.642,483.046z"/>
		<path fill="#FFFFFF" d="M149.911,468.868c2.426-1.518,4.057-2.275,4.891-2.275c3.071,0,4.607,1.101,4.607,3.298l-0.171,1.31
			l-1.251,0.738c-0.189,0-0.635-0.133-1.338-0.397c-0.701-0.265-1.185-0.397-1.449-0.397c-1.783,0-3.262,2.161-4.437,6.484
			c-0.909,3.335-1.364,6.312-1.364,8.928c0,0.683,0.057,1.556,0.17,2.616c0.152,1.442,0.229,2.313,0.229,2.615
			c0,1.289-0.816,1.935-2.445,1.935c-4.096,0-6.143-0.971-6.143-2.912c0-0.458,0.075-1.133,0.229-2.027
			c0.15-0.896,0.227-1.571,0.227-2.026v-4.97c0-6.243-0.398-10.774-1.195-13.592c0.721-1.066,2.787-1.601,6.199-1.601
			C148.755,466.593,149.835,467.352,149.911,468.868z"/>
		<path fill="#FFFFFF" d="M171.065,468.868c2.428-1.518,4.059-2.275,4.892-2.275c3.071,0,4.607,1.101,4.607,3.298l-0.171,1.31
			l-1.251,0.738c-0.19,0-0.636-0.133-1.337-0.397c-0.702-0.265-1.186-0.397-1.449-0.397c-1.783,0-3.262,2.161-4.437,6.484
			c-0.911,3.335-1.364,6.312-1.364,8.928c0,0.683,0.057,1.556,0.17,2.616c0.151,1.442,0.228,2.313,0.228,2.615
			c0,1.289-0.815,1.935-2.446,1.935c-4.094,0-6.143-0.971-6.143-2.912c0-0.458,0.076-1.133,0.229-2.027
			c0.151-0.896,0.229-1.571,0.229-2.026v-4.97c0-6.243-0.399-10.774-1.195-13.592c0.72-1.066,2.787-1.601,6.199-1.601
			C169.909,466.593,170.991,467.352,171.065,468.868z"/>
		<path fill="#FFFFFF" d="M202.548,494.52c-1.492,0-2.845-0.591-4.061-1.766h-0.234c-0.903,0-2.001,0.059-3.295,0.176
			c-1.727,0.157-2.805,0.236-3.236,0.236c-2.668,0-4.922-0.606-6.766-1.824c-2.158-1.412-3.236-3.372-3.236-5.883
			c0-2.746,1.568-4.745,4.707-6.002l5.941-1.175c1.098-0.196,3.041-0.589,5.825-1.18c0.078-0.233,0.118-0.41,0.118-0.527
			c0-3.373-1.157-5.061-3.471-5.061c-1.256,0-2.941,0.884-5.061,2.646l-4.471,4l-1.236-0.469c-0.705-0.745-1.176-1.688-1.412-2.824
			c0.666-1.884,2.274-3.696,4.825-5.441c2.55-1.747,4.824-2.62,6.825-2.62c0.273,0,1.607,0.258,4,0.768
			c3.412,0.745,5.656,1.763,6.736,3.059c1.078,1.294,1.618,3.667,1.618,7.117c0,0.707-0.08,2.414-0.235,5.12
			c-0.118,2.039-0.177,3.727-0.177,5.06c0-0.156,0.118,0.999,0.353,3.471c0.039,0.393,0.06,0.729,0.06,1.003
			c0,1.409-1.021,2.116-3.06,2.116H202.548L202.548,494.52z M197.369,483.046c-1.138,0-2.646,0.257-4.528,0.766
			c-2.118,0.551-3.492,1.139-4.119,1.767l-0.412,0.41c-0.471,0.473-0.707,0.786-0.707,0.942c0,0.901,1.688,1.353,5.061,1.353
			c0.666,0,1.607-0.116,2.824-0.354c1.373-0.234,2.216-0.49,2.529-0.765c0.314-0.273,0.471-1.039,0.471-2.294
			C198.487,483.655,198.114,483.046,197.369,483.046z"/>
		<path fill="#FFFFFF" d="M237.436,491.812c-0.04,1.059-1.492,1.59-4.354,1.59c-0.785,0-1.727-0.14-2.824-0.412
			c-1.373-0.353-2.06-0.843-2.06-1.471c0-1.061,0.104-2.295,0.313-3.706c0.334-2.158,0.502-3.374,0.502-3.648
			c0.084-0.627,0.127-1.273,0.127-1.942v-1.999c0-6.196-1.244-9.296-3.73-9.296c-3.672,0-5.508,5.015-5.508,15.042
			c0,1.755,0.158,3.729,0.471,5.911l-0.646,1.17c-1.021,0.233-1.846,0.353-2.471,0.353h-0.941c-3.178,0-4.766-0.742-4.766-2.227
			c0-1.211,0.057-2.44,0.176-3.689c0.354-3.709,0.529-5.761,0.529-6.151v-1.639c0-4.844-0.314-8.71-0.941-11.601
			c0.312-0.897,1.097-1.426,2.348-1.581h3.17c0.627,0,2.055,0.412,4.286,1.234c-0.196,0,0.998-0.116,3.581-0.351
			c0.431-0.039,0.762-0.062,0.997-0.062c4.344,0,7.425,0.883,9.245,2.646c1.821,1.767,2.729,4.806,2.729,9.119v2.591
			c0,0.115,0,0.842,0,2.176L237.436,491.812z"/>
		<path fill="#FFFFFF" d="M266.909,477.985c0,1.845,0.099,4.275,0.294,7.297l0.472,7.295c0.038,0.627,0.059,1.921,0.059,3.883
			c0,2.862-1.353,5.079-4.06,6.648c-2.196,1.295-4.844,1.939-7.941,1.939c-8.119,0-12.885-1.686-14.297-5.058
			c0.393-0.629,1.02-1.158,1.883-1.59c0.861-0.433,1.666-0.647,2.412-0.647c0.195,0,1.441,0.639,3.735,1.914
			c2.294,1.272,3.971,1.911,5.03,1.911c1.922,0,3.275-0.528,4.06-1.588c0.626-0.905,0.941-2.354,0.941-4.354
			c0-1.883-1.021-2.824-3.06-2.824c-0.705,0-1.922,0.079-3.646,0.235c-0.434,0.039-0.766,0.059-1.002,0.059
			c-6.627,0-9.941-3.646-9.941-10.942c0-3.841,0.783-7.333,2.353-10.472c1.96-3.921,4.667-5.884,8.118-5.884
			c0.824,0,1.707,0.138,2.648,0.411c2.274,0.669,3.549,1.002,3.824,1.002c0.117,0,0.578-0.187,1.382-0.559
			c0.804-0.374,1.402-0.562,1.795-0.562c1.726,0,3.726,0.314,6.001,0.939l0.354,1.061
			C267.381,470.809,266.909,474.104,266.909,477.985z M258.791,473.691c-0.117-2.156-0.824-3.235-2.117-3.235
			c-1.845,0-3.413,1.668-4.708,5c-1.138,2.904-1.705,5.513-1.705,7.826c0,4.471,1.196,6.706,3.589,6.706
			c1.566,0,2.804-0.939,3.705-2.823c0.745-1.49,1.119-3.119,1.119-4.883v-0.236c0.117-2.784,0.176-4.922,0.176-6.413v-0.764
			C258.85,474.713,258.83,474.32,258.791,473.691z"/>
		<path fill="#FFFFFF" d="M291.678,493.695c-2.668,0.744-4.668,1.117-6,1.117c-9.143,0-13.711-3.852-13.711-11.556
			c0-2.632,0.53-5.464,1.59-8.489c1.176-3.42,2.666-5.797,4.471-7.134c0.98-0.746,2.627-1.12,4.941-1.12
			c3.568,0,6.609,0.825,9.119,2.478c2.943,1.888,4.414,4.524,4.414,7.905c0,3.147-0.611,5.702-1.826,7.67
			c-1.451,2.397-3.646,3.6-6.588,3.6c-0.902,0-2.246-0.196-4.029-0.589c-1.785-0.394-3.131-0.59-4.031-0.59
			c-0.116,0-0.176,0.101-0.176,0.295c0,2.353,1.783,3.53,5.354,3.53c1.021,0,2.51-0.274,4.472-0.824
			c1.961-0.547,3.45-0.824,4.473-0.824c1.567,0,2.354,0.532,2.354,1.59C296.504,491.812,294.893,492.793,291.678,493.695z
			 M285.91,470.516c-1.293,0-2.588,1.397-3.883,4.196c-1.101,2.401-1.646,4.432-1.646,6.084c0,1.024,0.471,1.853,1.412,2.482
			c0.824,0.552,1.764,0.827,2.824,0.827c1.371,0,2.51-1.143,3.412-3.428c0.744-1.891,1.117-3.802,1.117-5.73
			c0-1.144-0.254-2.128-0.767-2.956C287.795,471.007,286.969,470.516,285.91,470.516z"/>
		<path fill="#FFFFFF" d="M340.332,493.401c-2.434,0-4.59-0.295-6.473-0.884l-0.941-1.295c0.666-3.138,1-7.155,1-12.06
			c0-5.139-0.863-7.708-2.588-7.708c-2.275,0-3.883,2.204-4.824,6.612c-0.588,2.771-0.883,5.773-0.883,9.013
			c0,1.249,0.078,2.77,0.234,4.562c-0.586,1.17-2.353,1.758-5.293,1.758c-1.375,0-2.453-0.371-3.236-1.111l-0.354-0.526
			c-0.116-0.233-0.176-0.47-0.176-0.703c0-0.779,0.096-1.657,0.293-2.634c0.474-2.38,0.707-3.821,0.707-4.329v-2.633
			c0-6.554-1.197-9.831-3.59-9.831c-2,0-3.412,2.148-4.234,6.446c-0.473,2.485-0.707,5.324-0.707,8.518
			c0,1.854,0.078,3.688,0.234,5.501l-0.764,1.006c-0.627,0-1.56,0.05-2.796,0.149c-1.233,0.098-2.168,0.147-2.795,0.147
			c-1.646,0-2.471-0.573-2.471-1.716c0-1.771,0.078-3.938,0.236-6.5c0.352-5.751,0.529-9.375,0.529-10.87
			c0-2.206-0.314-4.139-0.941-5.792c0.744-1.223,2.096-1.832,4.059-1.832c2.511,0,4.334,0.393,5.474,1.175l0.293,0.707
			c2.979-0.548,4.862-0.824,5.647-0.824c1.49,0,2.883,0.256,4.179,0.765c0.155,0.08,0.51,0.235,1.059,0.473l2.707,1.178l4.352-1.767
			c1.648-0.665,3.396-0.998,5.238-0.998c3.215,0,5.521,0.716,6.912,2.146c1.391,1.433,2.088,3.755,2.088,6.971
			c0,0.354-0.02,1.374-0.059,3.061v2c0,0.471-0.06,0.844-0.177,1.118c0,0.273,0,0.353,0,0.234c0,0.274,0.037,0.862,0.117,1.765
			l0.412,4.823c0.037,0.473,0.06,1.062,0.06,1.768c0,0.587-0.267,1.087-0.796,1.5C341.539,493.194,340.957,493.401,340.332,493.401z
			"/>
		<path fill="#FFFFFF" d="M366.336,493.695c-2.668,0.744-4.668,1.117-6,1.117c-9.143,0-13.711-3.852-13.711-11.556
			c0-2.632,0.531-5.464,1.59-8.489c1.178-3.42,2.666-5.797,4.471-7.134c0.98-0.746,2.628-1.12,4.941-1.12
			c3.568,0,6.609,0.825,9.119,2.478c2.943,1.888,4.414,4.524,4.414,7.905c0,3.147-0.609,5.702-1.826,7.67
			c-1.449,2.397-3.646,3.6-6.588,3.6c-0.902,0-2.246-0.196-4.029-0.589c-1.785-0.394-3.129-0.59-4.031-0.59
			c-0.116,0-0.176,0.101-0.176,0.295c0,2.353,1.783,3.53,5.354,3.53c1.02,0,2.51-0.274,4.471-0.824
			c1.961-0.547,3.451-0.824,4.473-0.824c1.568,0,2.354,0.532,2.354,1.59C371.162,491.812,369.551,492.793,366.336,493.695z
			 M360.568,470.516c-1.293,0-2.588,1.397-3.884,4.196c-1.098,2.401-1.646,4.432-1.646,6.084c0,1.024,0.471,1.853,1.412,2.482
			c0.824,0.552,1.764,0.827,2.824,0.827c1.371,0,2.51-1.143,3.411-3.428c0.744-1.891,1.117-3.802,1.117-5.73
			c0-1.144-0.254-2.128-0.764-2.956C362.453,471.007,361.627,470.516,360.568,470.516z"/>
		<path fill="#FFFFFF" d="M401.342,491.812c-0.041,1.059-1.492,1.59-4.354,1.59c-0.785,0-1.728-0.14-2.824-0.412
			c-1.371-0.353-2.06-0.843-2.06-1.471c0-1.061,0.104-2.295,0.314-3.706c0.334-2.158,0.502-3.374,0.502-3.648
			c0.082-0.627,0.125-1.273,0.125-1.942v-1.999c0-6.196-1.242-9.296-3.729-9.296c-3.671,0-5.507,5.015-5.507,15.042
			c0,1.755,0.156,3.729,0.472,5.911l-0.648,1.17c-1.02,0.233-1.844,0.353-2.469,0.353h-0.941c-3.178,0-4.766-0.742-4.766-2.227
			c0-1.211,0.059-2.44,0.176-3.689c0.354-3.709,0.529-5.761,0.529-6.151v-1.639c0-4.844-0.314-8.71-0.941-11.601
			c0.312-0.897,1.097-1.426,2.349-1.581h3.17c0.627,0,2.055,0.412,4.285,1.234c-0.195,0,0.997-0.116,3.582-0.351
			c0.432-0.039,0.764-0.062,0.997-0.062c4.343,0,7.425,0.883,9.244,2.646c1.82,1.767,2.73,4.806,2.73,9.119v2.591
			c0,0.115,0,0.842,0,2.176L401.342,491.812z"/>
		<path fill="#FFFFFF" d="M422.781,471.574c-1.533,0.273-3.029,0.51-4.484,0.705c-0.324,0.314-0.486,1.687-0.486,4.119
			c0,3.294,0.101,6.373,0.296,9.236l0.118,6.471c0.037,1.021-1.198,1.53-3.715,1.53c-1.471,0-2.979-0.433-4.524-1.295
			c-0.193-0.587-0.291-1.529-0.291-2.825c0,0.354,0-0.019,0-1.115v-4.647c0-0.274,0-0.768,0-1.471l0.235-10.119l-0.235-0.177
			l-2.353,0.114c-1.334,0.082-2.453-0.409-3.354-1.469c0.271-1.098,0.893-1.844,1.862-2.236l2.562-0.705
			c0.854-0.235,1.281-0.744,1.281-1.529c0,0.55-0.156-1.588-0.472-6.412c0.039-0.666,0.062-1.215,0.062-1.647
			c0-1.961,1.488-2.941,4.469-2.941h0.883c2.785,0,4.176,0.746,4.176,2.234c0,0.747-0.057,1.354-0.176,1.825l-0.41,5.117
			c0,0.98,0,1.608,0,1.883c0,0.864,0.726,1.294,2.177,1.294c1.686,0,2.844,0.962,3.469,2.884L422.781,471.574z"/>
		<path fill="#FFFFFF" d="M441.872,493.754c-0.512,0-1.256-0.051-2.236-0.146c-0.979-0.099-1.725-0.146-2.233-0.146
			c-2.435,0-4.746-0.177-6.943-0.53c-3.685-0.588-5.528-1.605-5.528-3.059c0-0.942,0.295-1.744,0.884-2.412
			c0.588-0.667,1.332-0.999,2.235-0.999c3.448,2.274,6.153,3.411,8.114,3.411c0.553,0,1.275-0.157,2.182-0.472
			c1.097-0.352,1.646-0.726,1.646-1.117c0-0.47-1.531-1.236-4.59-2.295c-1.218-0.432-3.062-1.06-5.531-1.882
			c-2.626-1.53-3.938-3.767-3.938-6.707c0-2.784,0.566-5.314,1.703-7.591c1.412-2.861,3.411-4.294,6.001-4.294
			c0.824,0,2,0.156,3.529,0.471l3.412,0.707c2.746,0.55,4.617,1.411,5.617,2.589c1,1.176,1.502,3.136,1.502,5.883
			c0,1.688-0.236,2.903-0.707,3.646c-0.588,0.942-1.668,1.413-3.234,1.413c-2.787,0-4.178-1.939-4.178-5.824v-1.412
			c0-2.196-0.391-3.293-1.176-3.293c-0.943,0-1.824,0.961-2.648,2.881c-0.705,1.688-1.061,3.081-1.061,4.178
			c0,2.117,1.219,3.729,3.651,4.824c1.136,0.511,3.39,1.55,6.763,3.117c2.434,1.14,3.647,2.454,3.647,3.942
			c0,1.294-0.844,2.49-2.529,3.59C444.694,493.244,443.245,493.754,441.872,493.754z"/>
	</g>
	<g>
		<path fill="#FFFFFF" d="M468.364,408.203c-2.375-0.521-2.127,7.302-10.474,18.207c-2.948,2.654-7.284,5.402-12.766,5.606
			c-7.025,0.259-11.709-4.943-14.314-9.123c-4.761-7.647-6.326-14.47-6.326-14.47s13.183-2.6,19.601-9.367
			c8.715-9.189,9.633-25.637-5.94-26.75c-21.538-1.539-34.301,19.887-34.301,35.425c-0.146-0.022-0.725,8.292,3.48,16.687
			c1.322,2.959,4.053,6.295,4.812,7.252c0.76,0.957,5.545,5.712,8.363,7.332c3.334,1.917,7.082,2.667,9.499,3.25
			c7.832,1,15.629,0.173,22.586-3.617c3.01-1.64,9.473-7.483,13.271-14.935C468.913,417.699,472.876,409.193,468.364,408.203z
			 M445.55,379.82c2.48,2.189,0.494,11.867-4.76,16.287c-7.631,6.42-16.69,6.868-16.823,6.94
			C424.086,398.924,434.562,370.13,445.55,379.82z"/>
		<path fill="#FFFFFF" d="M408.396,423.689c-3.5,4.062-8.688,8.312-13.188,8.688c-4.291,0.357-7.941-5.952-9.328-8.849
			c-5.08-10.613-6.254-24.316-5.772-35.747c0.116-2.762,0.459-3.143,0.459-3.143s10.674-9.553,17.416-20.388
			c7.696-12.372,21.909-47.435-0.025-57.583c-22.672-10.488-31.197,29.648-35.193,44.559c-1.219,4.594-4.764,19.565-4.619,36.805
			c-2.521,1.938-5.04,3.798-7.475,5.435c-3.645-21.675-40.688-22.903-47.451-4.196c1.572-4.35,10.191-21.451,12.154-25.895
			c4.289-9.741,8.438-20.337,9.982-30.938c1.502-10.297,1.651-24.322-5.58-28.375c-8.295-4.642-17.377-0.865-22.021,4.934
			c-9.09,11.318-16.067,30.829-17.562,49.35c-2.19,27.17,3.945,50.604,3.945,50.604s-8.656,19.856-13.26,19.279
			c-6.533-0.816-3.829-26.385-3.273-30.777c0.539-4.277,1.767-11.474,1.389-16.658c-0.444-6.099-19.127,7.728-19.237,13.539
			c-0.11,5.811,1.125,17.748-5.981,29.229c-4.001,6.463-7.962,4.012-10.867-1.556c-3.621-10.286-4.547-23.609-4.015-33.582
			c0.271-5.273,1.124-9.037,1.124-9.037s7.256-8.781,10.365-13.76c7.727-12.354,28.516-49.494,6.36-58.316
			c-23.208-9.24-31.199,29.649-35.194,44.561c-0.806,3.031-2.62,10.615-3.724,20.363c-18.022-5.188-40.26,5.328-45.238,30.637
			c-1.772,9.013,0.75,18.514,1.994,21.632c-1.201,1.396-5.577,6.248-11.354,7.249c-5.16,0.893-10.869-3.055-15.076-8.422
			c-5.582-7.122-6.357-14.531-6.357-14.531s13.241-2.609,19.685-9.407c8.753-9.229,9.673-25.745-5.967-26.862
			c-19.686-1.407-32.067,16.285-34.136,31.242c-3.916-0.729-7.151-1.72-10.105-4.239c-4.9-4.183-8.348-10.544-7.968-17.249
			c0.329-5.83,4.395-15.021,10.362-17.455c6.191-2.523,11.709,0.539,11.616-0.996c-0.308-5.006-10.329-4.8-14.834-1.934
			c-6.302,4.011-9.968,9.516-11.042,16.973c-1.934,13.429,3.973,23.646,17.139,28.137c1.75,0.595,3.316,1.137,4.447,1.533
			c-0.165,2.013-0.162,9.779,4.215,18.088c2.017,3.827,5.105,9.272,13.5,13.555c7,3.57,12.485,3.664,20.888,1.144
			c6.487-1.947,14.696-9.608,16.987-11.655l0,0c11.26,22.3,36,12.333,44.854-7.507c1.952,7.203,4.871,13.611,9.558,17.327
			c1.062,1.095,2.236,1.926,3.531,2.355c0.725,0.242,1.438,0.396,2.143,0.498c0.096,0.025,0.178,0.068,0.273,0.091
			c0.686,0.161,1.422,0.146,2.18,0c8.165-0.501,14.843-9.334,18.869-16.061c0,0,1.684,13.405,7.991,15.497
			c4.554,1.499,7.122,1.123,10.925-0.237c9.805-3.508,17.166-21.295,20.545-26.937c4.018,5.585,1.973,4.861,5.945,6.188
			c1.254,0.417,3.16-0.125,3.25-1.205c0.09-1.077-0.15-2.683-0.599-4.3c-0.096-1.665,0.043-6.354,3.082-15.195
			c2.681-5.759,6.525-10.831,11.969-14.436c12.914-8.556,23.847,7.276,19.89,17.832c0,0-8.295,3.771-12.631,6.596
			c-8.117,5.298-17.508,14.495-12.062,23.872c4.428,7.618,19.574,11.305,27.287,6.453c10.943-6.888,17.441-15.559,17.443-40.395
			c2.504-1.486,5-3.081,7.422-4.734c0.133,1.812,0.295,3.636,0.528,5.466c2.705,21.137,8.855,48.788,35.306,40.675
			c5.389-1.652,13.248-8.541,17.737-13.573C410.834,426.578,409.293,425.263,408.396,423.689z M401.959,320.641
			c2.545,1.479,2.078,15.896-3.014,27.479c-8.188,18.62-13.726,25.282-18.06,28.173
			C380.566,362.166,397.301,317.936,401.959,320.641z M250.748,321.283c4.658,2.705-13.387,40.044-19.22,46.605
			C231.528,357.044,246.09,318.578,250.748,321.283z M152.95,380.072c2.492,2.199,0.497,11.919-4.779,16.355
			c-7.664,6.448-16.762,6.898-16.896,6.971C131.394,399.257,141.917,370.34,152.95,380.072z M190.986,425.738
			c-7.771-2.433-8.592-11.606-7.384-22.474c0.963-8.667,6.205-15.878,8.672-19.477c6.371-9.292,14.225-6.442,14.86-6.08
			c0.009,0.587,0.026,1.206,0.054,1.853c-0.424,6.845-0.391,14.347,0.578,21.922c0.522,4.078,1.111,8.532,1.93,12.957
			C205.221,420.083,195.636,427.189,190.986,425.738z M306.135,342.18c0.306-0.934,11.304-31.799,13.566-25.871
			c3.539,9.324-2.096,24.17-5.078,33.159c-2.393,7.261-13.25,30.815-13.688,31.046C300.447,367.156,301.971,354.895,306.135,342.18z
			 M313.133,432.662c-5.397-1.133-3.842-8.209,1.908-13.534c5.178-4.798,14.693-9.096,15.191-8.951
			C328.566,416.399,322.943,434.716,313.133,432.662z"/>
		<path fill="#FFFFFF" d="M250.95,363.596c-0.571,6.887,6.599,10.699,12.625,7.383c5.957-3.276,7.04-8.73,7.759-14.932
			c-0.179,1.551-0.24-0.883-0.057-0.249C268.486,341.855,251.722,354.297,250.95,363.596z"/>
	</g>
	<g>
		<g>
			<path fill="#8DC63F" d="M154.874,333.585c13.52-6.287,23.875-17.856,30.027-31.34c1.217-2.668,0.83-5.479-1.273-7.578
				c-6.131-6.123-13.189-10.851-21.389-13.646c-0.393-0.133-0.771-0.205-1.139-0.231c-13.436-8.609-26.832-17.244-40.049-26.229
				c-18.412-12.51-36.742-25.219-56.357-35.795c-2.469-1.332-6.275-0.479-7.447,2.271c-10.559,24.754-8.547,51.967,5.283,75.025
				c12.047,20.088,32.635,36.018,55.686,40.965C130.366,339.636,143.534,338.859,154.874,333.585z"/>
		</g>
		<path fill="#FFDE17" d="M173.624,163.071c0,0-46.51-22.213-24.484-52.672c0,0,27.072-22.9,51.656,9.84
			c0,0,8.541-36.324,38.634-23.994c0,0,36.961,10.34,14.939,40.801c0,0,39.689-3.988,43.525,9.943
			c3.834,13.932,13.11,43.541-34.152,36.188c0,0,38.451,25.621,29.775,40.965c-8.677,15.338-34.032,39.297-55.786,8.75
			c0,0-4.756,42-42.372,26.582c0,0-26.711-21.592-9.332-44.684c0,0-54.408,15.107-57.613-12.627
			C125.206,174.435,142.062,166.962,173.624,163.071z"/>
		<circle fill="#F26522" cx="220.52" cy="180.53" r="23.493"/>
		<path fill="#7F3F98" d="M504.579,312.842c-10.082,5.707-22.879,2.163-28.586-7.917c-5.709-10.082-2.162-22.882,7.916-28.584
			c10.082-5.711,22.881-2.166,28.588,7.915S514.659,307.134,504.579,312.842z"/>
		<path fill="#7F3F98" d="M469.878,332.702c-9.275,5.252-21.049,1.989-26.299-7.284c-5.25-9.271-1.988-21.049,7.283-26.302
			c9.274-5.251,21.049-1.985,26.299,7.286C482.413,315.68,479.153,327.45,469.878,332.702z"/>
		<g>
			<path fill="#EEAF21" d="M162.935,160.041c-15.721-5.959-28.231-28.432-23.426-44.739c2.954-10.026,13.985-15.081,23.758-13.276
				c9.582,1.77,17.654,9.373,20.166,18.707c0.717,2.662,4.33,3.726,6.268,1.654c5.885-6.284,11.568-12.74,17.896-18.591
				c6.496-6.003,14.591-12.274,23.796-12.632c8.977-0.349,15.729,6.919,17.689,15.059c2.367,9.82-0.318,21.027-2.143,30.703
				c-0.484,2.572,1.695,5.65,4.613,4.613c8.732-3.105,18.117-3.981,26.33,0.979c6.339,3.828,10.056,10.75,11.455,17.833
				c1.299,6.575-0.067,14.142-4.397,19.368c-5.662,6.833-14.771,7.807-23.056,6.836c-3.904-0.458-4.836,5.199-1.893,6.988
				c9.805,5.958,19.536,13.97,22.399,25.594c1.854,7.527-0.99,15.211-6.262,20.633c-5.32,5.471-12.926,7.995-20.447,7.425
				c-9.602-0.729-16.949-8.126-21.547-15.978c-2.059-3.518-6.543-1.575-6.988,1.893c-2.07,16.151-13.331,39.556-33.169,33.147
				c-21.121-6.823-15.541-33.386-12.408-49.846c0.449-2.369-1.031-4.743-3.617-4.747c-9.052-0.013-18.072,1.103-27.126,1.213
				c-8.683,0.106-19.468-0.143-26.407-6.137c-8.414-7.27-4.684-18.769,2.178-25.367c9.094-8.746,23.125-12.651,35.34-13.967
				c4.756-0.513,4.806-8.018,0-7.5c-21.557,2.322-61.585,17.998-46.984,46.826c5.037,9.947,17.453,12.571,27.514,13.398
				c11.85,0.975,23.648-0.983,35.486-0.967c-1.205-1.582-2.41-3.165-3.615-4.747c-2.219,11.663-4.338,23.446-2.596,35.316
				c1.777,12.127,10.064,20.468,21.492,24.159c24.451,7.899,38.915-21.292,41.413-40.783c-2.328,0.631-4.658,1.262-6.988,1.893
				c5.92,10.109,15.162,18.315,27.182,19.602c9.844,1.054,19.547-2.679,26.592-9.53c7.273-7.073,10.121-17.181,8.379-27.045
				c-2.446-13.854-14.707-24.078-26.035-30.962c-0.631,2.33-1.262,4.659-1.893,6.988c10.338,1.212,21.219-0.941,28.357-9.033
				c6.277-7.114,7.842-16.833,6.451-25.958c-1.396-9.149-6.81-17.429-14.398-22.619c-9.646-6.595-22.189-5.889-32.736-2.139
				c1.537,1.538,3.074,3.075,4.613,4.613c3.66-19.412,8.016-48.205-17.205-54.648c-21.415-5.471-40.058,19.448-52.569,32.812
				c2.09,0.552,4.178,1.103,6.268,1.654c-6.744-25.064-43.553-34.875-56.754-9.46c-10.718,20.633,7.046,50.421,27.029,57.995
				C165.472,168.99,167.411,161.738,162.935,160.041L162.935,160.041z"/>
		</g>
		<g>
			<path fill="#452F8B" d="M521.271,287.391c-0.647-13.309-9.062-22.801-22.549-23.626c-11.416-0.699-24.479,5.753-29.198,16.472
				c-5.902,13.399,3.295,30.091,17.883,31.652c15.791,1.69,31.278-14.459,30.92-29.699c-0.113-4.829-7.613-4.84-7.5,0
				c0.274,11.658-10.961,22.232-22.459,22.248c-10.599,0.017-15.947-13.935-11.422-22.354c3.924-7.301,13.127-10.875,21.028-10.844
				c9.593,0.038,15.349,6.92,15.797,16.15C514.007,292.204,521.509,292.229,521.271,287.391L521.271,287.391z"/>
		</g>
		<g>
			<path fill="#452F8B" d="M478.938,313.998c2.224-5.846,2.726-12.544-2.006-17.29c-4.145-4.159-10.934-4.663-16.434-4.167
				c-12.572,1.134-27.641,8.023-29.846,21.732c-2.294,14.272,10.86,21.785,23.446,21.596c14.031-0.21,27.3-9.51,27.572-24.342
				c0.09-4.84-7.41-4.83-7.5,0c-0.193,10.505-9.65,16.162-19.264,16.809c-8.047,0.541-18.47-3.085-16.888-12.923
				c1.537-9.562,12.656-13.66,21.033-15.175c3.851-0.694,8.463-0.764,11.928,1.281c3.679,2.168,1.89,7.418,0.724,10.483
				C469.983,316.532,477.235,318.473,478.938,313.998L478.938,313.998z"/>
		</g>
		<g>
			<path fill="#7F3F98" d="M378.785,82.206c-2.631,11.281-13.908,18.295-25.189,15.664c-11.282-2.631-18.295-13.91-15.662-25.188
				c2.63-11.285,13.908-18.297,25.188-15.666C374.402,59.649,381.414,70.925,378.785,82.206z"/>
			<path fill="#7F3F98" d="M369.887,121.187c-2.422,10.379-12.795,16.83-23.176,14.41c-10.377-2.422-16.83-12.797-14.412-23.176
				c2.422-10.379,12.799-16.828,23.174-14.408C365.855,100.435,372.305,110.806,369.887,121.187z"/>
			<path fill="#7F3F98" d="M362.273,154.622c-1.894,8.123-10.013,13.17-18.138,11.273c-8.119-1.891-13.168-10.01-11.274-18.133
				c1.895-8.123,10.014-13.166,18.135-11.275C359.119,138.382,364.168,146.501,362.273,154.622z"/>
			<g>
				<path fill="#452F8B" d="M371.484,52.791c-10.953-9.116-24.826-8.817-34.351,2.198c-7.938,9.185-11.293,24.135-4.01,34.654
					c8.164,11.792,26.838,13.522,35.709,1.839c8.699-11.458,7.883-30.39-3.174-40.049c-3.625-3.167-8.951,2.115-5.303,5.303
					c8.063,7.045,8.7,19.808,3.526,28.76c-5.363,9.279-18.971,8.036-24.733-0.289c-5.144-7.429-1.97-17.708,2.854-24.381
					c6.146-8.504,16.307-9.282,24.178-2.732C369.869,61.164,375.205,55.888,371.484,52.791L371.484,52.791z"/>
			</g>
			<g>
				<path fill="#452F8B" d="M362.32,101.942c-2.754-5.482-7.082-10.301-13.627-10.353c-6.043-0.048-11.232,4.786-14.658,9.252
					c-7.726,10.071-13.017,26.083-4.076,36.967c9.029,10.993,23.223,6.488,31.529-2.839c9.274-10.417,11.61-26.429,0.924-36.698
					c-3.484-3.351-8.795,1.946-5.303,5.303c7.493,7.202,5.664,17.797-0.338,25.393c-5.111,6.468-14.279,11.519-20.896,4.282
					c-6.516-7.121-1.834-18.593,2.482-25.572c2.02-3.269,4.959-6.868,8.682-8.231c4.424-1.62,7.119,2.926,8.805,6.282
					C358.014,110.051,364.484,106.252,362.32,101.942L362.32,101.942z"/>
			</g>
			<g>
				<path fill="#452F8B" d="M353.883,137.595c-20.035-14.335-44.207,23.029-25.143,36.855c20.227,14.67,38.615-20.253,28.252-36.492
					c-2.594-4.062-9.088-0.305-6.478,3.785c5.388,8.44-2.559,33.996-15.311,27.949c-14.748-6.993,1.434-35.251,14.893-25.621
					C354.041,146.892,357.779,140.383,353.883,137.595L353.883,137.595z"/>
			</g>
		</g>
		<g>
			<path fill="#B94126" d="M237.285,158.759c-9.18-12.431-24.304-17.631-37.44-7.601c-11.051,8.438-16.115,23.809-9.592,36.539
				c7.635,14.901,30.103,21.368,43.515,10.894c13.172-10.286,15.424-30.388,4.588-43.08c-1.613-1.892-3.66-3.416-5.701-4.812
				c-4.004-2.739-7.75,3.763-3.785,6.477c11.092,7.592,11.547,23.155,3.049,32.947c-9.385,10.815-26.956,6.202-34.323-4.743
				c-6.049-8.986-1.777-20.615,5.586-27.321c9.205-8.385,20.772-4.798,27.628,4.486C233.648,166.39,240.162,162.655,237.285,158.759
				L237.285,158.759z"/>
		</g>
		<g>
			<path fill="#8DC63F" d="M406.473,199.438c0,0-23.389-25.495-9.321-40.384c0,0,22.463,20.269,18.358,36.624
				c0,0,36.18-26.902,48.434-6.442c0,0-5.812,27.978-35.938,25.242c0,0,40.083,4.202,38.323,27.689c0,0-34.424,3.412-42.622-21.538"
				/>
			<path fill="#BE1E2D" d="M370.295,186.992c-9.473,7.976-48.037,75.906-25.578,96.171c22.457,20.269,89.741-21.047,92.872-28.646
				C447.204,231.196,389.451,170.862,370.295,186.992z"/>
			<g>
				<path fill="#89241B" d="M384.604,185.21c14.056,15.899,33.281,26.364,47.493,42.214c5.763,6.423,11.691,15.197,9.257,24.228
					c-2.066,7.662-11.577,10.838-18.252,12.903c-9.026,2.792-18.389,4.34-27.448,7.02c-8.343,2.467-15.656,6.887-23.306,10.901
					c-6.319,3.315-13.358,7.196-20.604,7.816c-7.012,0.602-9.142-5.094-9.75-11.189c-1.574-15.709,3.881-32.479,9.594-46.892
					c6.232-15.729,15.488-31.116,28.863-41.747c3.787-3.009-1.56-8.278-5.303-5.303c-18.585,14.769-29.513,38.018-36.044,60.333
					c-3.172,10.836-5.442,22.276-4.61,33.608c0.483,6.619,2.625,14.049,9.022,17.217c5.812,2.88,12.757,1.172,18.523-0.904
					c7.781-2.8,15.062-6.941,22.311-10.87c16.103-8.723,34.927-8.871,51.282-16.844c7.127-3.474,12.793-9.625,13.656-17.729
					c1.006-9.471-3.857-17.834-9.498-25.016c-13.974-17.798-35.009-28.223-49.884-45.05
					C386.697,176.276,381.414,181.602,384.604,185.21L384.604,185.21z"/>
			</g>
			<g>
				<path fill="#4B8A3F" d="M410.695,187.318c-7.646-7.152-5.445-17.922-3.136-26.999c-1.836,0.747-3.674,1.494-5.51,2.241
					c8.818,5.301,14.59,16.285,13.438,26.552c-0.281,2.512,2.596,4.151,4.748,3.616c16.605-4.13,31.978-8.832,49.316-7.481
					c-1.25-1.25-2.5-2.5-3.75-3.75c-0.256,13.564-18.305,18.984-26.643,27.064c-2.226,2.154-0.828,5.244,1.654,6.268
					c5.36,2.209,10.905,4.05,15.973,6.902c5.406,3.043,8.912,7.934,11.766,13.312c1.078-1.881,2.158-3.762,3.238-5.643
					c-9.605,0.907-21.744,0.475-27.16-8.876c-2.424-4.183-8.906-0.408-6.477,3.785c6.819,11.772,21.203,13.766,33.637,12.591
					c2.842-0.269,4.654-2.974,3.238-5.643c-3.328-6.272-7.537-11.553-13.527-15.441c-5.67-3.684-12.486-5.661-18.693-8.22
					c0.552,2.09,1.103,4.179,1.654,6.269c10.5-10.173,28.514-15.062,28.84-32.367c0.041-2.163-1.742-3.594-3.75-3.75
					c-17.994-1.402-34.072,3.462-51.312,7.749c1.582,1.205,3.164,2.411,4.746,3.616c1.438-12.808-6.271-26.486-17.152-33.028
					c-2.051-1.232-4.914-0.093-5.508,2.241c-2.996,11.772-4.689,25.171,5.063,34.296
					C408.92,195.921,414.234,190.629,410.695,187.318L410.695,187.318z"/>
			</g>
		</g>
		<g>
			<path fill="#4B8A3F" d="M57.601,229.788c-0.792,1.046-2.241,1.419-1.824,1.443c-1.235-0.07,0.471,0.149,0.848,0.26
				c1.77,0.519,3.017,1.136,4.662,1.923c5.119,2.448,10.035,5.336,14.908,8.232c13.625,8.1,26.863,16.861,39.998,25.727
				c12.385,8.36,24.666,16.891,36.73,25.706c3.492,2.552,6.992,5.108,10.343,7.847c0.757,0.618,1.528,1.243,2.196,1.959
				c-1.021-1.095-0.467-2.679-0.951-0.808c-2.301,8.875-9.284,17.512-16.12,23.664c-11.864,10.679-27.597,13.879-42.976,10.341
				c-29.709-6.835-53.572-32.566-58.357-62.671C44.613,258.028,49.542,242.756,57.601,229.788c2.561-4.12-3.93-7.883-6.476-3.785
				c-11.624,18.705-15.427,40.311-8.338,61.388c4.656,13.846,13.397,26.322,23.794,36.479
				c10.633,10.384,25.766,17.386,40.238,20.164c15.576,2.988,31.339-0.691,43.826-10.463c8.759-6.854,15.753-16.08,20.008-26.354
				c1.014-2.447,2.42-6.012,0.947-8.547c-1.221-2.102-3.742-3.643-5.601-5.088c-22.889-17.811-47.272-34.012-71.722-49.576
				c-8.876-5.65-17.842-11.27-27.211-16.075c-4.223-2.167-12.089-7.014-15.942-1.927C48.202,229.86,54.72,233.591,57.601,229.788z"
				/>
		</g>
	</g>
</g>
</svg>
