<?xml version="1.0" encoding="utf-8"?>
<!-- Generator: Adobe Illustrator 16.0.0, SVG Export Plug-In . SVG Version: 6.00 Build 0)  -->
<!DOCTYPE svg PUBLIC "-//W3C//DTD SVG 1.1//EN" "http://www.w3.org/Graphics/SVG/1.1/DTD/svg11.dtd">
<svg version="1.1" xmlns="http://www.w3.org/2000/svg" xmlns:xlink="http://www.w3.org/1999/xlink" x="0px" y="0px"
	 width="555.994px" height="555.994px" viewBox="0 0 555.994 555.994" enable-background="new 0 0 555.994 555.994"
	 xml:space="preserve">
<g id="Layer_2">
</g>
<g id="Layer_1">
	<path fill="#FFFFFF" d="M48.45,228.927c0,0-30.236,60.598,23.762,101.096c0,0,51.014,36.285,73.504-1.357L48.45,228.927z"/>
	<polygon fill="#FFFFFF" points="142.706,105.032 174.204,105.032 187.989,121.663 211.702,96.034 234.292,87.196 246.407,109.147 
		251.497,141.845 291.198,168.03 276.2,193.528 252.2,193.528 259.7,255.024 240.202,249.026 224.985,237.927 217.702,265.524 
		196.704,274.524 177.204,265.524 175.704,241.526 178.896,219.337 139.792,223.056 112.278,209.657 115.708,192.028 
		135.206,177.028 158.265,170.198 139.706,154.53 130.706,129.032 	"/>
	<polygon fill="#FFFFFF" points="359.769,54.485 344.435,54.485 329.103,73.817 337.769,93.151 328.435,126.485 333.103,144.485 
		321.769,161.151 329.769,177.151 346.435,171.151 351.103,144.485 	"/>
	<polygon fill="#FFFFFF" points="403.796,202.362 399.374,165.485 411.767,173.817 415.101,195.151 463.128,184.421 
		461.767,195.817 442.433,213.151 465.767,231.817 439.767,237.817 443.099,257.151 417.101,273.817 344.435,299.151 
		335.769,285.817 	"/>
	<polygon fill="#FFFFFF" points="469.767,298.485 473.099,278.485 495.767,271.151 512.433,280.485 498.433,307.817 
		474.485,309.327 444.433,332.485 431.099,323.151 436.433,307.817 	"/>
	<g>
		<path fill="#8DC63F" d="M129.144,497.444c-1.49,0-2.844-0.592-4.059-1.766h-0.236c-0.902,0-2,0.059-3.295,0.176
			c-1.725,0.156-2.805,0.236-3.234,0.236c-2.668,0-4.924-0.607-6.766-1.824c-2.158-1.412-3.236-3.373-3.236-5.883
			c0-2.746,1.568-4.746,4.707-6.002l5.941-1.176c1.098-0.195,3.039-0.588,5.824-1.178c0.078-0.234,0.117-0.412,0.117-0.529
			c0-3.373-1.156-5.059-3.471-5.059c-1.256,0-2.941,0.883-5.059,2.646l-4.473,4l-1.234-0.469c-0.705-0.746-1.178-1.689-1.412-2.824
			c0.666-1.885,2.273-3.697,4.824-5.441c2.549-1.748,4.824-2.621,6.824-2.621c0.275,0,1.609,0.258,4,0.768
			c3.414,0.744,5.658,1.762,6.738,3.059c1.076,1.293,1.617,3.666,1.617,7.117c0,0.707-0.08,2.414-0.236,5.119
			c-0.117,2.039-0.176,3.727-0.176,5.061c0-0.158,0.117,0.998,0.354,3.469c0.039,0.393,0.059,0.729,0.059,1.004
			c0,1.41-1.021,2.117-3.061,2.117H129.144z M123.966,485.97c-1.137,0-2.646,0.258-4.529,0.766
			c-2.117,0.551-3.492,1.139-4.117,1.766l-0.412,0.41c-0.471,0.473-0.707,0.787-0.707,0.943c0,0.902,1.686,1.352,5.061,1.352
			c0.666,0,1.607-0.115,2.824-0.352c1.373-0.236,2.215-0.492,2.529-0.766c0.312-0.273,0.471-1.039,0.471-2.293
			C125.085,486.579,124.712,485.97,123.966,485.97z"/>
		<path fill="#8DC63F" d="M147.235,471.792c2.426-1.516,4.057-2.275,4.891-2.275c3.072,0,4.607,1.1,4.607,3.299l-0.17,1.309
			l-1.252,0.738c-0.189,0-0.635-0.133-1.338-0.398c-0.701-0.264-1.184-0.396-1.449-0.396c-1.783,0-3.262,2.16-4.436,6.484
			c-0.91,3.334-1.365,6.311-1.365,8.928c0,0.682,0.057,1.555,0.17,2.615c0.152,1.443,0.229,2.314,0.229,2.615
			c0,1.289-0.816,1.936-2.445,1.936c-4.096,0-6.143-0.971-6.143-2.912c0-0.459,0.076-1.133,0.229-2.029
			c0.15-0.895,0.227-1.57,0.227-2.025v-4.971c0-6.242-0.398-10.773-1.195-13.592c0.721-1.066,2.787-1.6,6.199-1.6
			C146.079,469.517,147.159,470.276,147.235,471.792z"/>
		<path fill="#8DC63F" d="M168.39,471.792c2.428-1.516,4.059-2.275,4.893-2.275c3.07,0,4.607,1.1,4.607,3.299l-0.172,1.309
			l-1.25,0.738c-0.191,0-0.637-0.133-1.338-0.398c-0.701-0.264-1.186-0.396-1.449-0.396c-1.783,0-3.262,2.16-4.436,6.484
			c-0.912,3.334-1.365,6.311-1.365,8.928c0,0.682,0.057,1.555,0.17,2.615c0.152,1.443,0.229,2.314,0.229,2.615
			c0,1.289-0.816,1.936-2.447,1.936c-4.094,0-6.143-0.971-6.143-2.912c0-0.459,0.076-1.133,0.229-2.029
			c0.152-0.895,0.229-1.57,0.229-2.025v-4.971c0-6.242-0.398-10.773-1.195-13.592c0.721-1.066,2.787-1.6,6.199-1.6
			C167.233,469.517,168.315,470.276,168.39,471.792z"/>
		<path fill="#8DC63F" d="M199.872,497.444c-1.492,0-2.844-0.592-4.061-1.766h-0.234c-0.902,0-2,0.059-3.295,0.176
			c-1.727,0.156-2.805,0.236-3.236,0.236c-2.668,0-4.922-0.607-6.766-1.824c-2.158-1.412-3.236-3.373-3.236-5.883
			c0-2.746,1.568-4.746,4.707-6.002l5.941-1.176c1.098-0.195,3.041-0.588,5.826-1.178c0.078-0.234,0.117-0.412,0.117-0.529
			c0-3.373-1.156-5.059-3.471-5.059c-1.256,0-2.941,0.883-5.061,2.646l-4.471,4l-1.236-0.469c-0.705-0.746-1.176-1.689-1.412-2.824
			c0.666-1.885,2.275-3.697,4.826-5.441c2.549-1.748,4.824-2.621,6.824-2.621c0.273,0,1.607,0.258,4,0.768
			c3.412,0.744,5.656,1.762,6.736,3.059c1.078,1.293,1.619,3.666,1.619,7.117c0,0.707-0.08,2.414-0.236,5.119
			c-0.117,2.039-0.176,3.727-0.176,5.061c0-0.158,0.117,0.998,0.352,3.469c0.039,0.393,0.061,0.729,0.061,1.004
			c0,1.41-1.021,2.117-3.061,2.117H199.872z M194.694,485.97c-1.139,0-2.646,0.258-4.529,0.766
			c-2.117,0.551-3.492,1.139-4.119,1.766l-0.412,0.41c-0.471,0.473-0.707,0.787-0.707,0.943c0,0.902,1.688,1.352,5.061,1.352
			c0.666,0,1.607-0.115,2.824-0.352c1.373-0.236,2.217-0.492,2.529-0.766c0.314-0.273,0.471-1.039,0.471-2.293
			C195.812,486.579,195.438,485.97,194.694,485.97z"/>
		<path fill="#8DC63F" d="M234.761,494.735c-0.041,1.059-1.492,1.59-4.354,1.59c-0.785,0-1.727-0.139-2.824-0.412
			c-1.373-0.352-2.061-0.842-2.061-1.469c0-1.061,0.105-2.295,0.314-3.707c0.334-2.158,0.502-3.375,0.502-3.648
			c0.084-0.627,0.127-1.273,0.127-1.943v-1.998c0-6.197-1.244-9.297-3.73-9.297c-3.672,0-5.508,5.014-5.508,15.043
			c0,1.754,0.158,3.727,0.471,5.91l-0.646,1.17c-1.02,0.234-1.846,0.352-2.471,0.352h-0.941c-3.178,0-4.766-0.742-4.766-2.225
			c0-1.211,0.057-2.441,0.176-3.691c0.354-3.709,0.529-5.76,0.529-6.15v-1.639c0-4.844-0.314-8.711-0.941-11.6
			c0.312-0.898,1.098-1.426,2.348-1.582h3.17c0.627,0,2.055,0.412,4.287,1.234c-0.197,0,0.998-0.115,3.58-0.35
			c0.432-0.039,0.762-0.061,0.998-0.061c4.344,0,7.424,0.883,9.244,2.646c1.822,1.766,2.73,4.805,2.73,9.119v2.59
			c0,0.117,0,0.842,0,2.176L234.761,494.735z"/>
		<path fill="#8DC63F" d="M264.233,480.909c0,1.846,0.1,4.277,0.295,7.297l0.471,7.295c0.039,0.627,0.059,1.922,0.059,3.883
			c0,2.863-1.352,5.08-4.059,6.648c-2.197,1.295-4.844,1.941-7.941,1.941c-8.119,0-12.885-1.686-14.297-5.059
			c0.393-0.629,1.02-1.158,1.883-1.59c0.861-0.432,1.666-0.646,2.412-0.646c0.195,0,1.441,0.639,3.734,1.914
			c2.295,1.271,3.971,1.91,5.031,1.91c1.922,0,3.275-0.527,4.059-1.588c0.627-0.904,0.941-2.354,0.941-4.354
			c0-1.883-1.02-2.824-3.059-2.824c-0.705,0-1.922,0.078-3.646,0.234c-0.434,0.039-0.766,0.059-1.002,0.059
			c-6.627,0-9.941-3.646-9.941-10.943c0-3.84,0.783-7.332,2.352-10.471c1.961-3.92,4.668-5.883,8.119-5.883
			c0.824,0,1.707,0.137,2.648,0.41c2.273,0.67,3.549,1.002,3.824,1.002c0.117,0,0.578-0.186,1.381-0.559
			c0.805-0.373,1.402-0.561,1.795-0.561c1.727,0,3.727,0.314,6.002,0.939l0.354,1.061
			C264.706,473.733,264.233,477.028,264.233,480.909z M256.116,476.616c-0.117-2.156-0.824-3.236-2.117-3.236
			c-1.846,0-3.414,1.668-4.709,5c-1.137,2.904-1.705,5.514-1.705,7.826c0,4.471,1.197,6.707,3.59,6.707
			c1.566,0,2.803-0.939,3.705-2.824c0.744-1.49,1.119-3.119,1.119-4.883v-0.236c0.117-2.783,0.176-4.922,0.176-6.412v-0.764
			C256.175,477.638,256.155,477.245,256.116,476.616z"/>
		<path fill="#8DC63F" d="M289.003,496.62c-2.668,0.744-4.668,1.117-6,1.117c-9.143,0-13.711-3.852-13.711-11.555
			c0-2.633,0.529-5.465,1.59-8.49c1.176-3.42,2.666-5.797,4.471-7.133c0.98-0.746,2.627-1.121,4.941-1.121
			c3.568,0,6.609,0.826,9.119,2.477c2.943,1.889,4.414,4.525,4.414,7.906c0,3.148-0.611,5.703-1.826,7.67
			c-1.451,2.398-3.646,3.6-6.588,3.6c-0.902,0-2.246-0.197-4.029-0.59c-1.785-0.393-3.131-0.59-4.031-0.59
			c-0.117,0-0.176,0.102-0.176,0.295c0,2.354,1.783,3.531,5.354,3.531c1.02,0,2.51-0.275,4.471-0.824
			c1.961-0.547,3.451-0.824,4.473-0.824c1.568,0,2.354,0.531,2.354,1.59C293.827,494.735,292.218,495.718,289.003,496.62z
			 M283.235,473.44c-1.293,0-2.588,1.396-3.883,4.195c-1.1,2.402-1.646,4.432-1.646,6.084c0,1.025,0.471,1.852,1.412,2.482
			c0.824,0.553,1.764,0.828,2.824,0.828c1.371,0,2.51-1.143,3.412-3.428c0.744-1.891,1.117-3.801,1.117-5.73
			c0-1.143-0.254-2.129-0.766-2.957C285.12,473.931,284.294,473.44,283.235,473.44z"/>
		<path fill="#8DC63F" d="M337.657,496.325c-2.434,0-4.59-0.295-6.473-0.883l-0.941-1.295c0.666-3.137,1-7.156,1-12.059
			c0-5.139-0.863-7.709-2.588-7.709c-2.275,0-3.883,2.205-4.824,6.613c-0.588,2.77-0.883,5.773-0.883,9.012
			c0,1.25,0.078,2.77,0.234,4.564c-0.586,1.17-2.352,1.756-5.293,1.756c-1.375,0-2.453-0.371-3.236-1.111l-0.354-0.525
			c-0.117-0.234-0.176-0.471-0.176-0.703c0-0.781,0.096-1.658,0.293-2.635c0.473-2.379,0.707-3.82,0.707-4.328v-2.633
			c0-6.555-1.197-9.832-3.59-9.832c-2,0-3.412,2.148-4.234,6.447c-0.473,2.484-0.707,5.324-0.707,8.518
			c0,1.854,0.078,3.688,0.234,5.5l-0.764,1.006c-0.627,0-1.559,0.049-2.795,0.15c-1.234,0.098-2.168,0.146-2.795,0.146
			c-1.646,0-2.471-0.572-2.471-1.715c0-1.771,0.078-3.938,0.236-6.5c0.352-5.75,0.529-9.375,0.529-10.871
			c0-2.205-0.314-4.137-0.941-5.791c0.744-1.223,2.096-1.832,4.059-1.832c2.51,0,4.334,0.393,5.473,1.174l0.293,0.707
			c2.98-0.547,4.863-0.824,5.648-0.824c1.49,0,2.883,0.256,4.178,0.766c0.156,0.08,0.51,0.234,1.059,0.471l2.707,1.178l4.352-1.766
			c1.648-0.666,3.395-0.998,5.238-0.998c3.215,0,5.52,0.715,6.912,2.146c1.391,1.432,2.088,3.754,2.088,6.971
			c0,0.354-0.02,1.373-0.059,3.059v2c0,0.471-0.059,0.844-0.176,1.119c0,0.273,0,0.352,0,0.234c0,0.275,0.037,0.863,0.117,1.764
			l0.412,4.824c0.037,0.473,0.059,1.061,0.059,1.768c0,0.586-0.266,1.086-0.795,1.5
			C338.864,496.118,338.282,496.325,337.657,496.325z"/>
		<path fill="#8DC63F" d="M363.661,496.62c-2.668,0.744-4.668,1.117-6,1.117c-9.143,0-13.711-3.852-13.711-11.555
			c0-2.633,0.531-5.465,1.59-8.49c1.178-3.42,2.666-5.797,4.471-7.133c0.98-0.746,2.627-1.121,4.941-1.121
			c3.568,0,6.609,0.826,9.119,2.477c2.943,1.889,4.414,4.525,4.414,7.906c0,3.148-0.609,5.703-1.826,7.67
			c-1.449,2.398-3.646,3.6-6.588,3.6c-0.902,0-2.246-0.197-4.029-0.59c-1.785-0.393-3.129-0.59-4.031-0.59
			c-0.117,0-0.176,0.102-0.176,0.295c0,2.354,1.783,3.531,5.354,3.531c1.02,0,2.51-0.275,4.471-0.824
			c1.961-0.547,3.451-0.824,4.473-0.824c1.568,0,2.354,0.531,2.354,1.59C368.485,494.735,366.876,495.718,363.661,496.62z
			 M357.894,473.44c-1.293,0-2.588,1.396-3.883,4.195c-1.098,2.402-1.646,4.432-1.646,6.084c0,1.025,0.471,1.852,1.412,2.482
			c0.824,0.553,1.764,0.828,2.824,0.828c1.371,0,2.51-1.143,3.412-3.428c0.744-1.891,1.117-3.801,1.117-5.73
			c0-1.143-0.254-2.129-0.764-2.957C359.778,473.931,358.952,473.44,357.894,473.44z"/>
		<path fill="#8DC63F" d="M398.665,494.735c-0.041,1.059-1.492,1.59-4.355,1.59c-0.785,0-1.727-0.139-2.824-0.412
			c-1.371-0.352-2.059-0.842-2.059-1.469c0-1.061,0.104-2.295,0.314-3.707c0.334-2.158,0.502-3.375,0.502-3.648
			c0.082-0.627,0.125-1.273,0.125-1.943v-1.998c0-6.197-1.242-9.297-3.73-9.297c-3.67,0-5.506,5.014-5.506,15.043
			c0,1.754,0.156,3.727,0.471,5.91l-0.648,1.17c-1.02,0.234-1.844,0.352-2.469,0.352h-0.941c-3.178,0-4.766-0.742-4.766-2.225
			c0-1.211,0.059-2.441,0.176-3.691c0.354-3.709,0.529-5.76,0.529-6.15v-1.639c0-4.844-0.314-8.711-0.941-11.6
			c0.312-0.898,1.096-1.426,2.348-1.582h3.17c0.627,0,2.055,0.412,4.285,1.234c-0.195,0,0.998-0.115,3.582-0.35
			c0.432-0.039,0.764-0.061,0.998-0.061c4.342,0,7.424,0.883,9.244,2.646c1.82,1.766,2.73,4.805,2.73,9.119v2.59
			c0,0.117,0,0.842,0,2.176L398.665,494.735z"/>
		<path fill="#8DC63F" d="M420.104,474.499c-1.533,0.273-3.029,0.51-4.484,0.705c-0.324,0.314-0.486,1.686-0.486,4.119
			c0,3.293,0.1,6.373,0.295,9.236l0.119,6.471c0.037,1.02-1.199,1.531-3.715,1.531c-1.471,0-2.98-0.434-4.525-1.295
			c-0.193-0.588-0.291-1.529-0.291-2.826c0,0.355,0-0.018,0-1.115v-4.648c0-0.273,0-0.768,0-1.471l0.236-10.119l-0.236-0.176
			l-2.352,0.115c-1.334,0.082-2.453-0.41-3.354-1.469c0.271-1.098,0.893-1.844,1.863-2.236l2.561-0.707
			c0.855-0.234,1.281-0.744,1.281-1.529c0,0.551-0.156-1.588-0.471-6.412c0.039-0.666,0.061-1.215,0.061-1.646
			c0-1.961,1.488-2.943,4.469-2.943h0.883c2.785,0,4.176,0.746,4.176,2.236c0,0.746-0.057,1.354-0.176,1.824l-0.41,5.117
			c0,0.98,0,1.609,0,1.883c0,0.865,0.725,1.295,2.176,1.295c1.686,0,2.844,0.961,3.469,2.883L420.104,474.499z"/>
		<path fill="#8DC63F" d="M439.196,496.679c-0.512,0-1.256-0.051-2.236-0.148s-1.725-0.146-2.234-0.146
			c-2.434,0-4.746-0.176-6.943-0.529c-3.686-0.588-5.529-1.607-5.529-3.059c0-0.943,0.295-1.744,0.883-2.412s1.332-1,2.236-1
			c3.449,2.275,6.154,3.412,8.115,3.412c0.553,0,1.275-0.158,2.182-0.473c1.096-0.35,1.646-0.725,1.646-1.117
			c0-0.469-1.531-1.236-4.59-2.295c-1.217-0.43-3.061-1.059-5.531-1.881c-2.627-1.531-3.939-3.766-3.939-6.707
			c0-2.785,0.566-5.314,1.703-7.59c1.412-2.863,3.412-4.295,6.002-4.295c0.824,0,2,0.156,3.529,0.471l3.412,0.707
			c2.746,0.549,4.617,1.41,5.617,2.588c1,1.176,1.502,3.137,1.502,5.883c0,1.688-0.236,2.904-0.707,3.646
			c-0.588,0.943-1.668,1.414-3.234,1.414c-2.787,0-4.178-1.941-4.178-5.826v-1.412c0-2.195-0.391-3.293-1.176-3.293
			c-0.943,0-1.824,0.961-2.648,2.881c-0.705,1.689-1.061,3.082-1.061,4.178c0,2.117,1.219,3.729,3.652,4.824
			c1.135,0.512,3.389,1.551,6.762,3.117c2.434,1.141,3.648,2.455,3.648,3.943c0,1.295-0.844,2.49-2.529,3.59
			C442.019,496.169,440.569,496.679,439.196,496.679z"/>
	</g>
	<g>
		<path fill="#8DC63F" d="M465.688,411.128c-2.375-0.521-2.127,7.301-10.473,18.207c-2.949,2.654-7.285,5.402-12.766,5.607
			c-7.025,0.258-11.709-4.945-14.314-9.123c-4.762-7.648-6.328-14.471-6.328-14.471s13.184-2.6,19.602-9.367
			c8.715-9.189,9.633-25.637-5.941-26.75c-21.539-1.539-34.301,19.887-34.301,35.424c-0.146-0.021-0.725,8.293,3.48,16.688
			c1.322,2.959,4.053,6.295,4.812,7.252s5.545,5.711,8.363,7.332c3.334,1.916,7.082,2.666,9.5,3.25
			c7.832,1,15.629,0.172,22.586-3.617c3.01-1.641,9.473-7.484,13.271-14.936C466.237,420.624,470.2,412.118,465.688,411.128z
			 M442.874,382.745c2.48,2.189,0.494,11.867-4.76,16.287c-7.631,6.42-16.691,6.869-16.824,6.941
			C421.409,401.849,431.886,373.054,442.874,382.745z"/>
		<path fill="#8DC63F" d="M405.72,426.614c-3.5,4.062-8.688,8.312-13.188,8.688c-4.291,0.357-7.941-5.953-9.328-8.85
			c-5.08-10.613-6.254-24.316-5.773-35.746c0.117-2.762,0.459-3.143,0.459-3.143s10.674-9.553,17.416-20.387
			c7.697-12.373,21.91-47.436-0.025-57.584c-22.672-10.488-31.195,29.65-35.191,44.559c-1.219,4.594-4.764,19.566-4.619,36.805
			c-2.521,1.938-5.041,3.797-7.475,5.434c-3.645-21.674-40.689-22.902-47.451-4.197c1.572-4.348,10.191-21.449,12.154-25.893
			c4.289-9.742,8.438-20.338,9.982-30.938c1.502-10.297,1.652-24.322-5.58-28.375c-8.295-4.641-17.377-0.865-22.02,4.934
			c-9.09,11.318-16.068,30.828-17.561,49.35c-2.191,27.17,3.945,50.604,3.945,50.604s-8.656,19.857-13.26,19.281
			c-6.533-0.818-3.83-26.385-3.273-30.779c0.539-4.277,1.766-11.473,1.389-16.658c-0.445-6.098-19.127,7.729-19.238,13.539
			c-0.109,5.811,1.125,17.748-5.98,29.229c-4.002,6.463-7.963,4.012-10.867-1.555c-3.621-10.287-4.547-23.611-4.016-33.582
			c0.271-5.275,1.125-9.037,1.125-9.037s7.256-8.781,10.365-13.76c7.727-12.354,28.516-49.494,6.359-58.316
			c-23.207-9.24-31.199,29.648-35.193,44.559c-0.807,3.033-2.621,10.615-3.725,20.365c-18.021-5.189-40.26,5.328-45.238,30.635
			c-1.771,9.014,0.75,18.514,1.994,21.633c-1.201,1.395-5.576,6.248-11.354,7.248c-5.16,0.893-10.869-3.055-15.076-8.422
			c-5.582-7.121-6.357-14.531-6.357-14.531s13.242-2.609,19.686-9.406c8.752-9.23,9.672-25.746-5.967-26.863
			c-19.686-1.408-32.068,16.285-34.137,31.242c-3.916-0.729-7.15-1.719-10.105-4.24c-4.9-4.182-8.348-10.543-7.967-17.248
			c0.328-5.83,4.395-15.021,10.361-17.455c6.191-2.523,11.709,0.539,11.617-0.996c-0.309-5.006-10.33-4.801-14.834-1.934
			c-6.303,4.01-9.969,9.516-11.043,16.973c-1.932,13.428,3.973,23.646,17.139,28.137c1.75,0.594,3.316,1.137,4.447,1.533
			c-0.164,2.012-0.162,9.779,4.215,18.088c2.018,3.826,5.105,9.271,13.5,13.555c7,3.57,12.486,3.664,20.889,1.143
			c6.486-1.947,14.695-9.609,16.986-11.656l0,0c11.26,22.301,36,12.334,44.854-7.506c1.953,7.203,4.871,13.611,9.559,17.326
			c1.062,1.096,2.236,1.926,3.531,2.357c0.725,0.242,1.438,0.395,2.143,0.498c0.096,0.025,0.178,0.068,0.273,0.09
			c0.686,0.162,1.422,0.146,2.18,0c8.164-0.5,14.842-9.334,18.869-16.061c0,0,1.684,13.406,7.99,15.498
			c4.555,1.498,7.123,1.123,10.926-0.238c9.805-3.508,17.166-21.295,20.545-26.936c4.018,5.584,1.973,4.861,5.945,6.188
			c1.254,0.416,3.16-0.125,3.25-1.205c0.09-1.078-0.15-2.684-0.598-4.301c-0.096-1.664,0.043-6.354,3.082-15.195
			c2.68-5.758,6.525-10.832,11.969-14.436c12.914-8.555,23.846,7.277,19.889,17.832c0,0-8.295,3.771-12.631,6.596
			c-8.117,5.299-17.508,14.496-12.061,23.873c4.428,7.617,19.574,11.305,27.287,6.453c10.943-6.889,17.441-15.559,17.443-40.395
			c2.504-1.486,5-3.082,7.422-4.734c0.133,1.812,0.295,3.635,0.529,5.465c2.705,21.137,8.855,48.789,35.303,40.676
			c5.389-1.654,13.248-8.541,17.738-13.574C408.157,429.503,406.616,428.187,405.72,426.614z M399.282,323.563
			c2.545,1.48,2.078,15.896-3.014,27.48c-8.188,18.621-13.725,25.283-18.059,28.174C377.89,365.091,394.624,320.86,399.282,323.563z
			 M248.073,324.208c4.658,2.705-13.387,40.043-19.221,46.605C228.853,359.968,243.415,321.503,248.073,324.208z M150.274,382.997
			c2.492,2.199,0.498,11.918-4.779,16.355c-7.664,6.449-16.762,6.898-16.896,6.971C128.718,402.181,139.241,373.265,150.274,382.997
			z M188.312,428.663c-7.771-2.432-8.592-11.607-7.385-22.473c0.963-8.668,6.205-15.879,8.672-19.477
			c6.371-9.293,14.225-6.443,14.861-6.08c0.008,0.586,0.025,1.205,0.053,1.852c-0.424,6.844-0.391,14.346,0.578,21.922
			c0.523,4.078,1.111,8.533,1.93,12.957C202.546,423.007,192.96,430.114,188.312,428.663z M303.46,345.104
			c0.305-0.934,11.303-31.799,13.566-25.871c3.539,9.324-2.096,24.17-5.078,33.158c-2.393,7.262-13.25,30.816-13.688,31.045
			C297.772,370.081,299.296,357.819,303.46,345.104z M310.458,435.587c-5.398-1.133-3.842-8.209,1.908-13.535
			c5.178-4.797,14.693-9.096,15.191-8.951C325.892,419.323,320.269,437.64,310.458,435.587z"/>
		<path fill="#8DC63F" d="M248.274,366.519c-0.57,6.889,6.6,10.701,12.625,7.385c5.957-3.277,7.041-8.732,7.76-14.932
			c-0.18,1.549-0.24-0.883-0.057-0.25C265.812,344.78,249.046,357.222,248.274,366.519z"/>
	</g>
	<g>
		<g>
			<path fill="#8DC63F" d="M152.198,336.509c13.52-6.287,23.875-17.857,30.027-31.34c1.217-2.668,0.83-5.48-1.273-7.578
				c-6.131-6.123-13.189-10.85-21.389-13.645c-0.393-0.133-0.771-0.205-1.139-0.232c-13.436-8.609-26.832-17.244-40.049-26.229
				c-18.412-12.51-36.74-25.219-56.355-35.795c-2.469-1.332-6.275-0.479-7.447,2.271c-10.559,24.754-8.547,51.967,5.283,75.025
				c12.047,20.088,32.633,36.018,55.684,40.965C127.69,342.56,140.858,341.784,152.198,336.509z"/>
		</g>
		<path fill="#FFDE17" d="M170.948,165.995c0,0-46.51-22.213-24.484-52.672c0,0,27.072-22.9,51.656,9.84
			c0,0,8.541-36.324,38.635-23.994c0,0,36.961,10.34,14.939,40.801c0,0,39.689-3.988,43.525,9.943
			c3.834,13.932,13.111,43.541-34.152,36.189c0,0,38.451,25.621,29.775,40.965c-8.676,15.338-34.031,39.297-55.785,8.75
			c0,0-4.756,42-42.373,26.582c0,0-26.711-21.592-9.332-44.684c0,0-54.408,15.107-57.613-12.627
			C122.53,177.358,139.386,169.886,170.948,165.995z"/>
		<circle fill="#F26522" cx="217.845" cy="183.454" r="23.493"/>
		<path fill="#7F3F98" d="M501.903,315.767c-10.082,5.707-22.879,2.162-28.586-7.918c-5.709-10.082-2.162-22.881,7.916-28.584
			c10.082-5.711,22.881-2.166,28.588,7.916C515.528,297.261,511.983,310.058,501.903,315.767z"/>
		<path fill="#7F3F98" d="M467.202,335.626c-9.275,5.252-21.049,1.99-26.299-7.283s-1.988-21.049,7.283-26.303
			c9.275-5.25,21.049-1.984,26.299,7.287C479.737,318.604,476.478,330.374,467.202,335.626z"/>
		<g>
			<path fill="#EEAF21" d="M160.259,162.966c-15.721-5.959-28.23-28.432-23.426-44.74c2.955-10.025,13.986-15.08,23.758-13.275
				c9.582,1.77,17.654,9.373,20.166,18.707c0.717,2.662,4.33,3.725,6.268,1.654c5.885-6.285,11.568-12.74,17.896-18.592
				c6.496-6.002,14.592-12.273,23.797-12.631c8.977-0.35,15.729,6.918,17.689,15.059c2.367,9.82-0.318,21.027-2.143,30.703
				c-0.484,2.572,1.695,5.65,4.613,4.613c8.732-3.105,18.117-3.982,26.33,0.979c6.338,3.828,10.055,10.75,11.455,17.834
				c1.299,6.574-0.068,14.141-4.398,19.367c-5.662,6.834-14.77,7.807-23.055,6.836c-3.904-0.457-4.836,5.199-1.893,6.988
				c9.805,5.959,19.537,13.971,22.4,25.594c1.854,7.527-0.99,15.211-6.262,20.633c-5.32,5.471-12.926,7.996-20.447,7.426
				c-9.602-0.729-16.949-8.127-21.547-15.979c-2.059-3.518-6.543-1.574-6.988,1.893c-2.07,16.152-13.332,39.557-33.17,33.148
				c-21.121-6.824-15.541-33.387-12.408-49.846c0.449-2.369-1.031-4.744-3.617-4.748c-9.051-0.012-18.072,1.104-27.125,1.213
				c-8.684,0.107-19.469-0.143-26.408-6.137c-8.414-7.27-4.684-18.768,2.178-25.367c9.094-8.746,23.125-12.65,35.34-13.967
				c4.756-0.512,4.807-8.018,0-7.5c-21.557,2.322-61.584,17.998-46.984,46.826c5.037,9.947,17.453,12.572,27.514,13.398
				c11.85,0.975,23.648-0.982,35.486-0.967c-1.205-1.582-2.41-3.164-3.615-4.746c-2.219,11.662-4.338,23.445-2.596,35.316
				c1.777,12.127,10.064,20.467,21.492,24.158c24.451,7.9,38.916-21.291,41.414-40.783c-2.328,0.631-4.658,1.262-6.988,1.893
				c5.92,10.109,15.162,18.316,27.182,19.602c9.844,1.055,19.547-2.678,26.592-9.529c7.273-7.074,10.121-17.182,8.379-27.045
				c-2.447-13.855-14.707-24.078-26.035-30.963c-0.631,2.33-1.262,4.66-1.893,6.988c10.338,1.213,21.219-0.941,28.357-9.033
				c6.277-7.113,7.842-16.832,6.451-25.957c-1.395-9.15-6.809-17.43-14.398-22.619c-9.646-6.596-22.189-5.889-32.736-2.139
				c1.537,1.537,3.074,3.074,4.613,4.613c3.66-19.412,8.016-48.205-17.205-54.648c-21.416-5.471-40.059,19.447-52.57,32.812
				c2.09,0.551,4.178,1.102,6.268,1.654c-6.744-25.064-43.553-34.875-56.754-9.461c-10.717,20.633,7.047,50.422,27.029,57.996
				C162.796,171.915,164.735,164.663,160.259,162.966L160.259,162.966z"/>
		</g>
		<g>
			<path fill="#452F8B" d="M518.597,290.315c-0.648-13.309-9.062-22.801-22.549-23.627c-11.416-0.699-24.479,5.752-29.199,16.471
				c-5.902,13.4,3.295,30.092,17.883,31.654c15.791,1.689,31.279-14.461,30.92-29.701c-0.113-4.828-7.613-4.84-7.5,0
				c0.275,11.658-10.961,22.234-22.459,22.25c-10.598,0.016-15.947-13.936-11.422-22.355c3.924-7.301,13.127-10.875,21.029-10.844
				c9.592,0.039,15.348,6.92,15.797,16.152C511.331,295.128,518.833,295.151,518.597,290.315L518.597,290.315z"/>
		</g>
		<g>
			<path fill="#452F8B" d="M476.263,316.923c2.223-5.846,2.725-12.545-2.006-17.291c-4.145-4.158-10.934-4.662-16.434-4.166
				c-12.572,1.133-27.641,8.023-29.846,21.732c-2.295,14.273,10.861,21.785,23.447,21.596c14.031-0.211,27.299-9.51,27.572-24.342
				c0.09-4.84-7.41-4.83-7.5,0c-0.193,10.504-9.65,16.162-19.264,16.809c-8.047,0.541-18.469-3.086-16.887-12.924
				c1.537-9.561,12.656-13.66,21.033-15.174c3.85-0.695,8.463-0.764,11.928,1.281c3.678,2.168,1.889,7.418,0.723,10.484
				C467.308,319.456,474.56,321.396,476.263,316.923L476.263,316.923z"/>
		</g>
		<g>
			<path fill="#7F3F98" d="M376.108,85.13c-2.631,11.281-13.906,18.295-25.188,15.664c-11.283-2.631-18.295-13.91-15.662-25.188
				c2.629-11.285,13.908-18.297,25.188-15.666C371.728,62.573,378.737,73.849,376.108,85.13z"/>
			<path fill="#7F3F98" d="M367.212,124.11c-2.422,10.379-12.795,16.83-23.176,14.41c-10.377-2.422-16.83-12.797-14.412-23.176
				c2.422-10.379,12.799-16.828,23.174-14.408C363.181,103.358,369.63,113.729,367.212,124.11z"/>
			<path fill="#7F3F98" d="M359.599,157.546c-1.893,8.123-10.012,13.17-18.137,11.273c-8.119-1.891-13.168-10.01-11.275-18.133
				c1.895-8.123,10.014-13.166,18.135-11.275C356.444,141.306,361.493,149.425,359.599,157.546z"/>
			<g>
				<path fill="#452F8B" d="M368.81,55.716c-10.953-9.117-24.826-8.818-34.35,2.197c-7.939,9.186-11.293,24.135-4.01,34.654
					c8.164,11.793,26.838,13.523,35.709,1.84c8.697-11.459,7.881-30.391-3.174-40.049c-3.625-3.168-8.951,2.115-5.303,5.303
					c8.064,7.045,8.701,19.807,3.527,28.76c-5.363,9.279-18.971,8.035-24.734-0.289c-5.143-7.43-1.969-17.709,2.854-24.381
					c6.146-8.504,16.307-9.283,24.178-2.732C367.194,64.089,372.528,58.812,368.81,55.716L368.81,55.716z"/>
			</g>
			<g>
				<path fill="#452F8B" d="M359.646,104.866c-2.754-5.482-7.082-10.301-13.627-10.352c-6.043-0.049-11.232,4.785-14.658,9.252
					c-7.725,10.07-13.016,26.082-4.076,36.967c9.029,10.992,23.223,6.488,31.529-2.84c9.275-10.416,11.611-26.428,0.924-36.697
					c-3.484-3.352-8.795,1.945-5.303,5.303c7.494,7.201,5.664,17.797-0.338,25.393c-5.111,6.467-14.279,11.518-20.896,4.281
					c-6.516-7.121-1.834-18.592,2.482-25.572c2.02-3.268,4.959-6.867,8.682-8.23c4.424-1.621,7.119,2.926,8.805,6.281
					C355.339,112.976,361.81,109.177,359.646,104.866L359.646,104.866z"/>
			</g>
			<g>
				<path fill="#452F8B" d="M351.208,140.519c-20.035-14.334-44.207,23.029-25.143,36.855c20.227,14.67,38.615-20.252,28.252-36.492
					c-2.594-4.062-9.088-0.305-6.477,3.785c5.387,8.441-2.559,33.996-15.311,27.949c-14.748-6.992,1.434-35.25,14.893-25.621
					C351.366,149.815,355.104,143.308,351.208,140.519L351.208,140.519z"/>
			</g>
		</g>
		<g>
			<path fill="#B94126" d="M234.61,161.683c-9.18-12.43-24.305-17.631-37.441-7.6c-11.051,8.438-16.115,23.809-9.592,36.539
				c7.635,14.9,30.104,21.367,43.516,10.893c13.172-10.285,15.424-30.387,4.588-43.08c-1.613-1.891-3.66-3.416-5.701-4.812
				c-4.004-2.738-7.75,3.764-3.785,6.477c11.092,7.592,11.547,23.156,3.049,32.947c-9.385,10.816-26.957,6.203-34.324-4.742
				c-6.049-8.986-1.777-20.615,5.586-27.322c9.205-8.385,20.773-4.797,27.629,4.486C230.974,169.313,237.487,165.579,234.61,161.683
				L234.61,161.683z"/>
		</g>
		<g>
			<path fill="#8DC63F" d="M403.796,202.362c0,0-23.389-25.494-9.322-40.383c0,0,22.463,20.268,18.359,36.623
				c0,0,36.18-26.902,48.434-6.441c0,0-5.811,27.977-35.938,25.242c0,0,40.084,4.201,38.324,27.689c0,0-34.424,3.412-42.623-21.539"
				/>
			<path fill="#BE1E2D" d="M367.62,189.917c-9.473,7.975-48.037,75.906-25.578,96.17c22.457,20.268,89.74-21.047,92.871-28.646
				C444.528,234.12,386.774,173.786,367.62,189.917z"/>
			<g>
				<path fill="#89241B" d="M381.927,188.134c14.055,15.9,33.281,26.365,47.494,42.215c5.762,6.422,11.691,15.197,9.256,24.227
					c-2.066,7.662-11.578,10.838-18.252,12.904c-9.027,2.791-18.389,4.34-27.449,7.02c-8.342,2.467-15.656,6.887-23.303,10.9
					c-6.32,3.316-13.359,7.197-20.605,7.818c-7.012,0.6-9.141-5.094-9.75-11.189c-1.574-15.711,3.881-32.479,9.594-46.893
					c6.232-15.729,15.488-31.115,28.861-41.746c3.787-3.01-1.559-8.279-5.301-5.303c-18.584,14.768-29.512,38.018-36.043,60.332
					c-3.172,10.836-5.443,22.277-4.611,33.609c0.484,6.619,2.625,14.049,9.023,17.217c5.812,2.879,12.756,1.172,18.523-0.904
					c7.781-2.801,15.061-6.943,22.309-10.871c16.102-8.723,34.926-8.871,51.283-16.844c7.127-3.473,12.793-9.625,13.656-17.729
					c1.006-9.471-3.857-17.834-9.498-25.016c-13.975-17.799-35.01-28.223-49.885-45.051
					C384.021,179.2,378.737,184.526,381.927,188.134L381.927,188.134z"/>
			</g>
			<g>
				<path fill="#4B8A3F" d="M408.019,190.243c-7.645-7.152-5.445-17.922-3.135-27c-1.836,0.748-3.674,1.494-5.51,2.242
					c8.818,5.301,14.59,16.285,13.438,26.551c-0.281,2.512,2.596,4.152,4.748,3.617c16.607-4.131,31.979-8.832,49.318-7.482
					c-1.25-1.25-2.5-2.5-3.75-3.75c-0.256,13.564-18.305,18.984-26.643,27.064c-2.225,2.154-0.828,5.244,1.654,6.268
					c5.361,2.209,10.906,4.051,15.973,6.902c5.406,3.043,8.912,7.934,11.766,13.312c1.078-1.881,2.158-3.762,3.238-5.643
					c-9.605,0.906-21.744,0.475-27.16-8.877c-2.424-4.182-8.906-0.408-6.477,3.785c6.82,11.773,21.203,13.766,33.637,12.592
					c2.842-0.27,4.654-2.975,3.238-5.643c-3.328-6.273-7.537-11.553-13.527-15.441c-5.67-3.684-12.486-5.662-18.693-8.221
					c0.551,2.09,1.102,4.18,1.654,6.268c10.5-10.172,28.514-15.061,28.84-32.367c0.041-2.162-1.742-3.594-3.75-3.75
					c-17.994-1.402-34.072,3.463-51.312,7.75c1.582,1.205,3.164,2.41,4.746,3.615c1.438-12.807-6.27-26.486-17.152-33.027
					c-2.051-1.232-4.914-0.094-5.508,2.24c-2.996,11.773-4.689,25.172,5.064,34.297
					C406.243,198.845,411.558,193.554,408.019,190.243L408.019,190.243z"/>
			</g>
		</g>
		<g>
			<path fill="#4B8A3F" d="M54.927,232.712c-0.793,1.047-2.242,1.42-1.824,1.443c-1.236-0.07,0.471,0.15,0.848,0.26
				c1.77,0.52,3.016,1.137,4.662,1.924c5.119,2.447,10.035,5.336,14.908,8.232c13.623,8.1,26.861,16.861,39.996,25.727
				c12.385,8.359,24.666,16.889,36.73,25.705c3.492,2.553,6.992,5.109,10.344,7.848c0.756,0.617,1.527,1.242,2.195,1.959
				c-1.021-1.096-0.467-2.68-0.951-0.809c-2.301,8.875-9.283,17.512-16.119,23.664c-11.865,10.68-27.598,13.879-42.977,10.342
				c-29.707-6.836-53.57-32.568-58.355-62.672C41.938,260.952,46.868,245.681,54.927,232.712c2.561-4.119-3.93-7.883-6.477-3.785
				c-11.623,18.705-15.426,40.311-8.338,61.389c4.656,13.844,13.398,26.322,23.795,36.477
				c10.633,10.385,25.764,17.387,40.236,20.164c15.576,2.99,31.34-0.691,43.826-10.461c8.76-6.854,15.754-16.082,20.008-26.355
				c1.014-2.447,2.42-6.012,0.947-8.547c-1.221-2.1-3.742-3.641-5.6-5.088c-22.889-17.811-47.273-34.012-71.723-49.576
				c-8.875-5.65-17.84-11.27-27.209-16.074c-4.223-2.168-12.09-7.014-15.943-1.928C45.528,232.784,52.046,236.515,54.927,232.712z"
				/>
		</g>
	</g>
</g>
</svg>
