<?xml version="1.0" encoding="utf-8"?>
<!-- Generator: Adobe Illustrator 16.0.0, SVG Export Plug-In . SVG Version: 6.00 Build 0)  -->
<!DOCTYPE svg PUBLIC "-//W3C//DTD SVG 1.1//EN" "http://www.w3.org/Graphics/SVG/1.1/DTD/svg11.dtd">
<svg version="1.1" xmlns="http://www.w3.org/2000/svg" xmlns:xlink="http://www.w3.org/1999/xlink" x="0px" y="0px"
	 width="555.994px" height="555.994px" viewBox="0 0 555.994 555.994" enable-background="new 0 0 555.994 555.994"
	 xml:space="preserve">
<g id="Layer_2">
</g>
<g id="Layer_1">
	<path fill="#FFFFFF" d="M173.189,58.96c0,0-64.229,21.469-54.684,88.288c0,0,10.415,61.729,52.935,51.015L173.189,58.96z"/>
	<polygon fill="#FFFFFF" points="327.445,38.002 349.718,60.275 347.705,81.782 382.595,80.428 404.817,90.151 397.863,114.24 
		378.342,140.96 387.898,187.549 359.264,194.973 342.293,178.003 304.112,226.79 294.565,208.762 291.654,190.153 266.99,204.518 
		245.778,196.034 238.354,175.881 254.263,157.852 272.209,144.418 241.93,119.396 231.948,90.468 246.839,80.428 271.233,83.608 
		292.367,95.084 290.323,70.882 301.989,46.488 	"/>
	<polygon fill="#FFFFFF" points="516.673,155.747 505.831,144.904 481.319,147.732 473.776,167.531 443.605,184.502 
		434.178,200.531 414.379,204.301 408.723,221.271 424.75,228.813 446.906,213.259 	"/>
	<polygon fill="#FFFFFF" points="443.241,291.443 466.19,262.241 469.062,276.896 456.333,294.338 497.881,320.711 488.86,327.807 
		462.932,326.393 466.232,356.092 443.605,341.949 432.29,357.977 402.122,351.378 332.825,317.909 336.126,302.353 	"/>
	<polygon fill="#FFFFFF" points="421.92,406.062 438.418,394.275 459.633,405.118 464.817,423.503 435.591,432.93 417.59,417.064 
		379.964,412.189 377.136,396.16 391.75,389.09 	"/>
	<g>
		<path fill="#BE1E2D" d="M40.378,305.89c-1.054-1.054-1.593-2.429-1.621-4.118l-0.168-0.168c-0.638-0.638-1.455-1.372-2.454-2.205
			c-1.33-1.109-2.15-1.816-2.454-2.119c-1.887-1.887-3.052-3.912-3.494-6.074c-0.527-2.525,0.097-4.674,1.871-6.448
			c1.942-1.942,4.466-2.247,7.572-0.916l5.033,3.37c0.914,0.638,2.564,1.732,4.951,3.285c0.221-0.11,0.374-0.209,0.457-0.291
			c2.385-2.385,2.76-4.395,1.123-6.031c-0.889-0.889-2.704-1.456-5.448-1.706l-5.991-0.334l-0.541-1.204
			c0.028-1.026,0.361-2.027,0.998-2.996c1.804-0.861,4.222-1.006,7.259-0.436c3.038,0.566,5.265,1.558,6.679,2.972
			c0.195,0.194,0.956,1.32,2.286,3.371c1.888,2.94,2.755,5.247,2.602,6.928c-0.153,1.675-1.448,3.735-3.889,6.176
			c-0.5,0.5-1.764,1.65-3.787,3.453c-1.524,1.358-2.76,2.511-3.703,3.454c0.112-0.112-0.622,0.788-2.202,2.702
			c-0.25,0.306-0.474,0.557-0.669,0.751c-0.997,0.998-2.219,0.775-3.661-0.666L40.378,305.89z M44.83,294.115
			c-0.804-0.805-2.054-1.689-3.744-2.662c-1.886-1.107-3.274-1.664-4.159-1.662l-0.582-0.002c-0.667,0.002-1.057,0.057-1.167,0.167
			c-0.638,0.638,0.236,2.147,2.623,4.534c0.471,0.471,1.218,1.055,2.245,1.748c1.139,0.805,1.914,1.219,2.33,1.248
			c0.414,0.027,1.067-0.402,1.954-1.289C45.19,295.337,45.357,294.643,44.83,294.115z"/>
		<path fill="#BE1E2D" d="M71.31,300.543c2.787,0.645,4.478,1.26,5.067,1.85c2.172,2.173,2.479,4.035,0.925,5.591l-1.045,0.806
			l-1.408-0.363c-0.134-0.135-0.354-0.543-0.664-1.229c-0.31-0.682-0.557-1.117-0.744-1.305c-1.261-1.262-3.834-0.779-7.722,1.448
			c-3.001,1.714-5.428,3.497-7.278,5.348c-0.481,0.482-1.059,1.14-1.729,1.97c-0.913,1.128-1.476,1.798-1.688,2.011
			c-0.912,0.911-1.946,0.791-3.099-0.36c-2.896-2.896-3.657-5.03-2.284-6.402c0.325-0.325,0.855-0.748,1.597-1.273
			c0.739-0.526,1.271-0.951,1.593-1.272l3.515-3.515c4.414-4.414,7.336-7.9,8.766-10.456c1.264-0.245,3.102,0.84,5.515,3.253
			C72.101,298.117,72.327,299.418,71.31,300.543z"/>
		<path fill="#BE1E2D" d="M86.268,315.502c2.788,0.645,4.479,1.261,5.068,1.851c2.171,2.171,2.48,4.035,0.926,5.591l-1.047,0.804
			l-1.406-0.362c-0.135-0.135-0.356-0.544-0.664-1.228c-0.31-0.683-0.558-1.118-0.744-1.306c-1.261-1.26-3.834-0.778-7.722,1.449
			c-3.003,1.713-5.428,3.497-7.278,5.348c-0.482,0.482-1.06,1.139-1.729,1.969c-0.912,1.129-1.475,1.799-1.688,2.012
			c-0.911,0.911-1.945,0.791-3.099-0.362c-2.896-2.895-3.657-5.03-2.284-6.402c0.324-0.325,0.854-0.747,1.596-1.273
			c0.74-0.524,1.272-0.948,1.594-1.271l3.516-3.516c4.413-4.413,7.336-7.898,8.766-10.455c1.264-0.244,3.102,0.84,5.515,3.252
			C87.06,313.075,87.287,314.377,86.268,315.502z"/>
		<path fill="#BE1E2D" d="M90.391,355.902c-1.056-1.055-1.593-2.43-1.623-4.12l-0.166-0.165c-0.638-0.639-1.455-1.373-2.454-2.206
			c-1.331-1.11-2.15-1.815-2.455-2.121c-1.887-1.887-3.051-3.91-3.494-6.074c-0.527-2.524,0.097-4.673,1.871-6.448
			c1.941-1.941,4.465-2.247,7.572-0.916l5.033,3.37c0.914,0.638,2.565,1.735,4.952,3.287c0.221-0.11,0.374-0.208,0.457-0.291
			c2.385-2.386,2.76-4.396,1.123-6.031c-0.889-0.888-2.704-1.456-5.45-1.707l-5.989-0.333l-0.543-1.205
			c0.029-1.027,0.363-2.026,0.999-2.996c1.803-0.861,4.223-1.006,7.26-0.436c3.038,0.566,5.265,1.559,6.679,2.973
			c0.193,0.193,0.954,1.318,2.286,3.371c1.887,2.939,2.754,5.245,2.601,6.926c-0.152,1.677-1.447,3.737-3.888,6.178
			c-0.5,0.5-1.764,1.65-3.787,3.453c-1.524,1.358-2.76,2.51-3.703,3.453c0.112-0.111-0.623,0.789-2.204,2.702
			c-0.25,0.305-0.472,0.558-0.667,0.753c-0.997,0.996-2.219,0.774-3.661-0.668L90.391,355.902z M94.843,344.127
			c-0.805-0.805-2.054-1.689-3.744-2.661c-1.887-1.107-3.274-1.664-4.161-1.664l-0.581-0.001c-0.667,0.001-1.057,0.057-1.167,0.166
			c-0.639,0.639,0.237,2.149,2.622,4.535c0.471,0.471,1.219,1.055,2.246,1.748c1.138,0.804,1.915,1.22,2.33,1.247
			c0.415,0.029,1.067-0.401,1.954-1.288C95.202,345.348,95.369,344.653,94.843,344.127z"/>
		<path fill="#BE1E2D" d="M116.976,378.656c-0.777,0.72-2.179,0.069-4.202-1.954c-0.556-0.555-1.123-1.318-1.706-2.288
			c-0.723-1.22-0.861-2.053-0.418-2.496c0.75-0.75,1.697-1.548,2.844-2.398c1.762-1.29,2.741-2.031,2.935-2.225
			c0.503-0.385,0.99-0.811,1.464-1.285l1.412-1.412c4.383-4.383,5.695-7.454,3.937-9.212c-2.597-2.597-7.439-0.35-14.531,6.742
			c-1.24,1.24-2.523,2.747-3.847,4.513l-1.284,0.369c-0.887-0.555-1.554-1.057-1.996-1.498l-0.665-0.666
			c-2.247-2.246-2.846-3.895-1.797-4.942c0.856-0.856,1.767-1.687,2.734-2.486c2.873-2.372,4.447-3.698,4.724-3.975l1.158-1.159
			c3.425-3.424,5.938-6.381,7.536-8.867c0.856-0.414,1.785-0.232,2.779,0.541l2.241,2.242c0.443,0.443,1.161,1.744,2.159,3.904
			c-0.14-0.14,0.787,0.624,2.778,2.284c0.333,0.277,0.581,0.495,0.749,0.663c3.071,3.071,4.625,5.873,4.665,8.407
			c0.04,2.537-1.467,5.328-4.518,8.379l-1.831,1.831c-0.083,0.084-0.596,0.596-1.539,1.539L116.976,378.656z"/>
		<path fill="#BE1E2D" d="M147.593,389.721c-1.305,1.305-2.954,3.095-4.951,5.368l-4.825,5.491c-0.416,0.471-1.317,1.4-2.704,2.787
			c-2.025,2.024-4.548,2.637-7.571,1.831c-2.47-0.638-4.798-2.053-6.988-4.243c-5.741-5.74-7.919-10.303-6.532-13.686
			c0.722-0.168,1.54-0.099,2.455,0.207c0.914,0.304,1.636,0.721,2.163,1.248c0.138,0.139,0.567,1.471,1.287,3.994
			c0.724,2.521,1.457,4.158,2.207,4.908c1.358,1.359,2.688,1.943,3.992,1.747c1.083-0.196,2.33-0.999,3.744-2.413
			c1.332-1.331,1.276-2.718-0.165-4.159c-0.499-0.499-1.414-1.304-2.744-2.413c-0.335-0.279-0.583-0.5-0.75-0.667
			c-4.687-4.686-4.451-9.608,0.708-14.768c2.716-2.716,5.738-4.631,9.067-5.741c4.158-1.385,7.46-0.859,9.9,1.582
			c0.583,0.582,1.11,1.303,1.583,2.162c1.134,2.081,1.801,3.218,1.995,3.412c0.083,0.084,0.54,0.278,1.371,0.582
			c0.833,0.305,1.389,0.596,1.666,0.873c1.221,1.221,2.413,2.857,3.58,4.908l-0.5,1C153.001,384.98,150.337,386.977,147.593,389.721
			z M144.889,380.945c1.441-1.607,1.705-2.871,0.791-3.785c-1.305-1.306-3.594-1.235-6.865,0.205
			c-2.857,1.25-5.104,2.693-6.739,4.328c-3.161,3.162-3.896,5.59-2.204,7.281c1.107,1.107,2.646,1.317,4.616,0.623
			c1.58-0.527,2.997-1.414,4.244-2.662l0.168-0.166c2.051-1.886,3.604-3.356,4.658-4.41l0.539-0.54
			C144.208,381.709,144.472,381.418,144.889,380.945z"/>
		<path fill="#BE1E2D" d="M153.998,418.345c-2.413-1.36-4.091-2.511-5.032-3.453c-6.465-6.465-6.972-12.419-1.525-17.865
			c1.862-1.862,4.239-3.49,7.128-4.88c3.25-1.586,5.984-2.213,8.205-1.882c1.221,0.165,2.65,1.064,4.287,2.701
			c2.522,2.523,4.089,5.258,4.696,8.2c0.746,3.416-0.078,6.32-2.469,8.711c-2.227,2.227-4.465,3.601-6.715,4.133
			c-2.723,0.67-5.124-0.033-7.204-2.113c-0.638-0.639-1.448-1.729-2.432-3.267c-0.984-1.54-1.797-2.631-2.434-3.268
			c-0.083-0.083-0.196-0.052-0.333,0.085c-1.664,1.664-1.236,3.758,1.289,6.281c0.721,0.722,1.969,1.58,3.744,2.579
			c1.773,1,3.022,1.857,3.745,2.58c1.109,1.108,1.288,2.04,0.54,2.788C158.742,420.423,156.909,419.979,153.998,418.345z
			 M166.311,397.876c-0.915-0.915-2.817-0.843-5.712,0.221c-2.477,0.921-4.298,1.97-5.467,3.138
			c-0.725,0.725-0.977,1.643-0.757,2.754c0.192,0.974,0.662,1.832,1.411,2.582c0.97,0.97,2.583,0.967,4.837-0.011
			c1.863-0.811,3.478-1.897,4.842-3.262c0.808-0.808,1.326-1.685,1.55-2.633C167.296,399.555,167.059,398.624,166.311,397.876z"/>
		<path fill="#BE1E2D" d="M188.61,452.539c-1.721-1.721-3.037-3.453-3.953-5.2l0.25-1.581c2.689-1.748,5.768-4.354,9.234-7.82
			c3.634-3.633,4.841-6.062,3.621-7.281c-1.609-1.608-4.305-1.186-8.088,1.266c-2.374,1.543-4.706,3.458-6.996,5.748
			c-0.884,0.884-1.903,2.014-3.062,3.393c-1.242,0.414-2.904-0.421-4.984-2.5c-0.973-0.973-1.473-1.998-1.503-3.074l0.122-0.622
			c0.082-0.249,0.208-0.457,0.372-0.622c0.553-0.552,1.24-1.104,2.07-1.655c2.017-1.349,3.201-2.201,3.561-2.561l1.862-1.862
			c4.635-4.635,6.105-7.799,4.413-9.49c-1.414-1.414-3.932-0.894-7.553,1.564c-2.091,1.423-4.265,3.266-6.522,5.523
			c-1.311,1.311-2.553,2.662-3.724,4.055l-1.251,0.172c-0.443-0.443-1.137-1.068-2.083-1.871c-0.941-0.803-1.637-1.429-2.08-1.872
			c-1.164-1.165-1.342-2.151-0.534-2.96c1.253-1.252,2.84-2.729,4.764-4.429c4.314-3.817,7.003-6.255,8.061-7.313
			c1.56-1.559,2.703-3.146,3.43-4.76c1.391-0.339,2.777,0.186,4.165,1.574c1.774,1.774,2.787,3.342,3.04,4.699l-0.293,0.707
			c2.494,1.722,4.021,2.856,4.577,3.412c1.054,1.054,1.857,2.219,2.412,3.495c0.055,0.167,0.195,0.526,0.416,1.081l1.081,2.747
			l4.326,1.829c1.636,0.694,3.105,1.694,4.409,2.998c2.273,2.273,3.397,4.408,3.37,6.405c-0.029,1.995-1.179,4.131-3.453,6.405
			c-0.25,0.25-0.984,0.957-2.204,2.121l-1.414,1.414c-0.333,0.334-0.638,0.556-0.916,0.668c-0.192,0.193-0.248,0.248-0.165,0.166
			c-0.194,0.194-0.584,0.637-1.164,1.329l-3.12,3.703c-0.308,0.36-0.709,0.791-1.209,1.291c-0.414,0.414-0.955,0.58-1.622,0.499
			C189.61,453.247,189.053,452.981,188.61,452.539z"/>
		<path fill="#BE1E2D" d="M206.789,471.136c-2.412-1.36-4.091-2.511-5.032-3.452c-6.465-6.465-6.972-12.419-1.524-17.866
			c1.861-1.861,4.239-3.488,7.127-4.879c3.251-1.586,5.984-2.214,8.205-1.883c1.222,0.166,2.65,1.065,4.287,2.702
			c2.523,2.522,4.089,5.258,4.697,8.199c0.745,3.416-0.079,6.32-2.47,8.711c-2.227,2.227-4.464,3.603-6.715,4.133
			c-2.721,0.671-5.124-0.033-7.203-2.113c-0.639-0.638-1.449-1.728-2.433-3.266c-0.984-1.541-1.795-2.63-2.434-3.268
			c-0.083-0.084-0.195-0.053-0.332,0.084c-1.665,1.664-1.236,3.758,1.288,6.282c0.721,0.721,1.97,1.58,3.744,2.578
			c1.773,1,3.023,1.858,3.745,2.58c1.109,1.108,1.289,2.04,0.54,2.788C211.533,473.215,209.7,472.771,206.789,471.136z
			 M219.102,450.667c-0.914-0.914-2.817-0.843-5.712,0.221c-2.475,0.923-4.298,1.97-5.467,3.138
			c-0.725,0.726-0.976,1.643-0.756,2.754c0.191,0.974,0.661,1.833,1.411,2.583c0.97,0.97,2.582,0.967,4.836-0.011
			c1.863-0.811,3.478-1.898,4.843-3.263c0.808-0.808,1.325-1.685,1.551-2.631C220.088,452.346,219.851,451.416,219.102,450.667z"/>
		<path fill="#BE1E2D" d="M232.874,494.555c-0.778,0.719-2.18,0.068-4.204-1.956c-0.556-0.555-1.123-1.318-1.706-2.288
			c-0.721-1.219-0.86-2.051-0.417-2.494c0.75-0.75,1.696-1.55,2.844-2.398c1.763-1.291,2.741-2.032,2.935-2.226
			c0.502-0.386,0.989-0.812,1.463-1.286l1.412-1.412c4.383-4.383,5.696-7.453,3.937-9.212c-2.595-2.595-7.438-0.349-14.53,6.743
			c-1.24,1.24-2.524,2.746-3.846,4.513l-1.286,0.368c-0.887-0.555-1.553-1.055-1.994-1.496l-0.666-0.666
			c-2.247-2.247-2.845-3.895-1.797-4.943c0.856-0.855,1.768-1.685,2.734-2.486c2.873-2.372,4.447-3.697,4.724-3.975l1.158-1.158
			c3.426-3.425,5.938-6.382,7.537-8.867c0.856-0.415,1.783-0.234,2.778,0.541l2.241,2.241c0.443,0.443,1.162,1.744,2.158,3.903
			c-0.139-0.139,0.787,0.624,2.779,2.285c0.333,0.277,0.583,0.497,0.749,0.663c3.07,3.069,4.625,5.874,4.665,8.407
			c0.039,2.536-1.467,5.328-4.518,8.379l-1.831,1.832c-0.083,0.083-0.596,0.596-1.538,1.538L232.874,494.555z"/>
		<path fill="#BE1E2D" d="M262.343,495.405c-1.277-0.891-2.502-1.781-3.67-2.673c-0.451-0.006-1.535,0.849-3.256,2.569
			c-2.328,2.328-4.437,4.577-6.322,6.739l-4.491,4.66c-0.695,0.747-1.931,0.234-3.71-1.544c-1.04-1.04-1.801-2.414-2.284-4.116
			c0.278-0.552,0.875-1.287,1.792-2.204c-0.251,0.251,0.013-0.013,0.789-0.788l3.287-3.287c0.193-0.193,0.543-0.543,1.04-1.04
			l7.322-6.988l-0.043-0.291l-1.744-1.581c-1.001-0.886-1.444-2.025-1.333-3.41c0.969-0.584,1.936-0.673,2.899-0.264l2.31,1.311
			c0.771,0.439,1.433,0.379,1.988-0.176c-0.39,0.39,1.012-1.233,4.201-4.867c0.498-0.443,0.901-0.816,1.207-1.121
			c1.387-1.387,3.133-1.029,5.241,1.078l0.624,0.625c1.969,1.969,2.425,3.48,1.371,4.534c-0.527,0.527-0.997,0.917-1.414,1.165
			l-3.908,3.328c-0.693,0.693-1.139,1.139-1.331,1.332c-0.612,0.611-0.403,1.428,0.622,2.454c1.192,1.192,1.332,2.69,0.415,4.491
			L262.343,495.405z"/>
		<path fill="#BE1E2D" d="M260.159,524.589c-0.361-0.362-0.852-0.925-1.477-1.687c-0.624-0.762-1.115-1.323-1.476-1.684
			c-1.722-1.721-3.232-3.48-4.536-5.283c-2.189-3.022-2.773-5.047-1.747-6.073c0.667-0.667,1.442-1.024,2.33-1.081
			s1.649,0.234,2.288,0.874c0.83,4.048,1.939,6.765,3.326,8.151c0.391,0.391,1.014,0.789,1.877,1.208
			c1.021,0.527,1.677,0.651,1.954,0.374c0.331-0.331-0.209-1.957-1.623-4.868c-0.557-1.164-1.415-2.913-2.581-5.241
			c-0.774-2.94-0.123-5.448,1.957-7.528c1.97-1.97,4.158-3.356,6.571-4.162c3.023-1.026,5.449-0.624,7.281,1.207
			c0.582,0.583,1.304,1.524,2.162,2.828l1.913,2.913c1.554,2.33,2.268,4.262,2.142,5.802c-0.124,1.538-1.155,3.28-3.098,5.222
			c-1.193,1.193-2.221,1.887-3.078,2.078c-1.083,0.252-2.18-0.18-3.287-1.287c-1.971-1.971-1.581-4.326,1.166-7.073l0.998-0.999
			c1.553-1.552,2.053-2.604,1.497-3.16c-0.667-0.666-1.969-0.609-3.909,0.165c-1.693,0.696-2.93,1.429-3.704,2.204
			c-1.497,1.497-1.775,3.498-0.829,5.994c0.44,1.164,1.3,3.492,2.577,6.984c0.914,2.528,0.844,4.316-0.209,5.369
			c-0.915,0.916-2.357,1.164-4.326,0.75C262.516,526.224,261.13,525.56,260.159,524.589z"/>
	</g>
	<g>
		<path fill="#BE1E2D" d="M339.386,482.828c-1.311-2.049-6.666,3.658-20.279,5.469c-3.963-0.209-8.972-1.331-12.992-5.062
			c-5.15-4.785-4.782-11.776-3.671-16.573c2.042-8.775,5.758-14.707,5.758-14.707s11.16,7.484,20.484,7.237
			c12.66-0.336,24.939-11.316,14.714-23.116c-14.143-16.318-38.316-10.192-49.303,0.794c-0.089-0.118-6.377,5.352-9.339,14.261
			c-1.157,3.027-1.586,7.317-1.726,8.531c-0.139,1.214-0.117,7.959,0.729,11.098c1.003,3.713,3.123,6.893,4.42,9.016
			c4.831,6.246,10.93,11.174,18.528,13.413c3.288,0.968,11.99,1.406,19.945-1.177C333.06,489.931,341.876,486.719,339.386,482.828z
			 M343.323,446.626c0.206,3.302-8.042,8.741-14.883,8.151c-9.936-0.856-16.659-6.945-16.805-6.988
			C314.637,444.956,342.406,432.004,343.323,446.626z"/>
		<path fill="#BE1E2D" d="M286.031,451.374c-5.348,0.397-12.021-0.265-15.468-3.182c-3.287-2.782-1.406-9.825-0.339-12.854
			c3.913-11.096,12.772-21.615,21.194-29.358c2.035-1.87,2.546-1.897,2.546-1.897s14.303,0.793,26.73-2.101
			c14.192-3.306,49.035-18.049,40.7-40.735c-8.615-23.448-43.024-1.093-56.392,6.623c-4.11,2.387-17.204,10.467-29.291,22.759
			c-3.153-0.413-6.249-0.88-9.128-1.443c12.749-17.903-12.577-44.966-30.585-36.521c4.187-1.963,22.374-7.961,26.903-9.715
			c9.922-3.855,20.348-8.415,28.935-14.817c8.344-6.219,18.367-16.03,16.119-24.01c-2.584-9.147-11.676-12.899-19.06-12.082
			c-14.43,1.576-33.16,10.437-47.312,22.479c-20.761,17.663-32.992,38.571-32.992,38.571s-20.162,7.921-23.01,4.258
			c-4.041-5.197,15.948-21.365,19.449-24.078c3.406-2.644,9.361-6.864,12.762-10.797c3.996-4.627-18.99-8.061-23.178-4.03
			c-4.186,4.031-11.754,13.345-24.896,16.438c-7.399,1.74-8.467-2.794-6.584-8.783c4.713-9.835,13.48-19.911,20.906-26.586
			c3.922-3.538,7.186-5.595,7.186-5.595s11.34-1.079,17.059-2.4c14.199-3.271,55.162-14.834,45.733-36.739
			c-9.876-22.943-43.026-1.096-56.394,6.623c-2.715,1.574-9.359,5.652-17.034,11.766c-9.073-16.412-32.235-24.699-53.65-10.326
			c-7.626,5.121-12.561,13.622-13.887,16.707c-1.835,0.137-8.36,0.476-13.153-2.902c-4.279-3.018-5.525-9.846-4.705-16.616
			c1.088-8.982,5.78-14.771,5.78-14.771s11.208,7.519,20.57,7.269c12.716-0.339,25.045-11.366,14.776-23.214
			c-12.924-14.916-34.191-11.16-46.23-2.047c-2.254-3.284-3.84-6.271-4.146-10.145c-0.509-6.422,1.552-13.357,6.562-17.829
			c4.354-3.891,13.729-7.515,19.669-5.017c6.163,2.594,7.898,8.661,8.919,7.511c3.321-3.758-3.91-10.699-9.122-11.856
			c-7.292-1.621-13.777-0.32-19.81,4.193c-10.861,8.129-13.912,19.529-7.777,32.014c0.818,1.658,1.542,3.149,2.061,4.229
			c-1.538,1.306-7.029,6.8-9.81,15.771c-1.278,4.132-2.945,10.166-0.038,19.13c2.425,7.475,6.238,11.421,13.962,15.579
			c5.964,3.209,17.187,3.596,20.254,3.769l0,0c-7.808,23.731,16.734,34.177,37.023,26.409c-3.712,6.475-6.181,13.068-5.492,19.01
			c-0.023,1.526,0.22,2.943,0.83,4.164c0.341,0.684,0.737,1.295,1.162,1.867c0.05,0.086,0.078,0.174,0.13,0.257
			c0.37,0.6,0.902,1.109,1.542,1.542c6.126,5.419,17.095,3.895,24.698,1.985c0,0-8.289,10.67-5.309,16.608
			c2.162,4.28,4.243,5.831,7.895,7.558c9.413,4.452,27.195-2.92,33.573-4.519c-1.107,6.789-2.042,4.832-0.171,8.579
			c0.593,1.181,2.323,2.146,3.15,1.446c0.826-0.699,1.791-2.004,2.618-3.465c1.109-1.244,4.523-4.462,12.924-8.564
			c5.967-2.177,12.274-3.046,18.671-1.744c15.181,3.082,11.716,22.007,1.454,26.672c0,0-8.532-3.198-13.595-4.268
			c-9.486-1.992-22.631-2.129-25.409,8.354c-2.255,8.517,5.848,21.834,14.731,23.857c12.609,2.867,23.335,1.331,40.898-16.229
			c2.821,0.719,5.715,1.355,8.596,1.9c-1.188,1.375-2.362,2.778-3.49,4.238c-13.033,16.858-28.237,40.761-3.799,53.725
			c4.979,2.641,15.406,3.328,22.141,2.944C285.712,455.141,285.553,453.119,286.031,451.374z M354.347,373.954
			c0.753,2.847-9.771,12.71-21.562,17.301c-18.956,7.378-27.583,8.173-32.691,7.152
			C309.855,388.191,352.965,368.749,354.347,373.954z M246.97,267.489c1.382,5.206-37.78,18.849-46.546,19.364
			C208.093,279.184,245.589,262.282,246.97,267.489z M136.246,239.905c0.207,3.317-8.075,8.779-14.944,8.186
			c-9.98-0.859-16.73-6.975-16.877-7.019C107.438,238.227,135.326,225.222,136.246,239.905z M130.852,299.092
			c-3.776-7.215,2.132-14.283,10.669-21.112c6.81-5.448,15.615-6.841,19.903-7.64c11.076-2.066,14.614,5.502,14.808,6.209
			c-0.408,0.42-0.834,0.87-1.271,1.347c-5.139,4.54-10.42,9.868-15.093,15.909c-2.513,3.254-5.247,6.82-7.797,10.527
			C144.916,305.158,133.112,303.405,130.852,299.092z M271.358,321.43c0.876-0.445,30.478-14.493,27.887-8.701
			c-4.091,9.096-18.572,15.609-27.037,19.855c-6.827,3.443-31.16,12.422-31.631,12.273
			C249.676,335.068,259.423,327.476,271.358,321.43z M212.326,390.358c-3.017-4.618,3.088-8.521,10.92-8.222
			c7.054,0.27,16.821,3.959,17.071,4.413C234.739,389.771,217.812,398.747,212.326,390.358z"/>
		<path fill="#BE1E2D" d="M217.194,297.549c-5.274,4.469-2.9,12.234,3.705,14.149c6.53,1.896,11.154-1.196,16.046-5.071
			c-1.223,0.969,0.454-0.794,0.137-0.217C244.966,294.578,224.313,291.521,217.194,297.549z"/>
	</g>
	<g>
		<g>
			<path fill="#8DC63F" d="M170.479,208.393c14.005,5.115,29.509,4.256,43.394-0.928c2.746-1.025,4.462-3.288,4.457-6.259
				c-0.005-8.665-1.654-16.998-5.476-24.772c-0.184-0.371-0.4-0.69-0.641-0.969c-3.413-15.589-6.779-31.167-9.772-46.865
				c-4.174-21.865-8.146-43.812-14.539-65.16c-0.803-2.688-4.099-4.776-6.871-3.66c-24.971,10.037-42.79,30.702-49.315,56.787
				c-5.687,22.723-2.394,48.543,10.407,68.34C148.87,195.342,158.729,204.105,170.479,208.393z"/>
		</g>
		<path fill="#FFDE17" d="M304.308,101.08c0,0-17.18-48.594,19.932-54.558c0,0,35.336,2.95,29.569,43.484
			c0,0,31.724-19.646,44.285,10.353c0,0,18.824,33.446-18.287,39.414c0,0,30.885,25.244,23.746,37.809
			c-7.14,12.562-21.517,40.059-49.739,1.439c0,0,9.072,45.307-7.912,50.021c-16.98,4.711-51.851,3.723-45.633-33.259
			c0,0-33.062,26.335-48.759-11.166c0,0-3.62-34.155,24.997-38.194c0,0-49.154-27.791-31.81-49.668
			C262.036,74.879,279.239,81.513,304.308,101.08z"/>
		<path fill="#F26522" d="M338.333,166.014c-10.729,7.297-25.341,4.512-32.639-6.217c-7.296-10.729-4.512-25.341,6.219-32.639
			c10.73-7.293,25.34-4.51,32.638,6.221C351.846,144.107,349.062,158.717,338.333,166.014z"/>
		<path fill="#7F3F98" d="M432.424,441.005c-11.164-3.094-17.706-14.649-14.614-25.812c3.092-11.166,14.65-17.709,25.81-14.615
			c11.167,3.091,17.711,14.648,14.617,25.812C455.144,437.554,443.589,444.096,432.424,441.005z"/>
		<path fill="#7F3F98" d="M393.844,430.51c-10.272-2.845-16.291-13.477-13.446-23.746c2.846-10.27,13.479-16.289,23.749-13.448
			c10.271,2.847,16.287,13.48,13.443,23.749C414.744,427.338,404.116,433.355,393.844,430.51z"/>
		<g>
			<path fill="#EEAF21" d="M298.892,91.379c-6.902-15.329,0.143-40.065,15.071-48.2c9.179-4.999,20.554-0.773,26.187,7.412
				c5.524,8.026,5.855,19.111,1.031,27.487c-1.375,2.39,0.429,5.695,3.263,5.602c8.605-0.283,17.188-0.828,25.801-0.491
				c8.838,0.349,18.997,1.64,25.759,7.896c6.594,6.1,6.229,16.014,1.86,23.156c-5.271,8.618-15.094,14.644-23.226,20.195
				c-2.162,1.477-2.797,5.194,0,6.524c8.37,3.979,15.627,9.995,17.926,19.31c1.775,7.188-0.491,14.711-4.51,20.711
				c-3.73,5.566-10.048,9.95-16.806,10.584c-8.836,0.829-15.964-4.924-21.136-11.468c-2.438-3.084-7.096,0.257-6.279,3.603
				c2.719,11.146,3.936,23.694-2.258,33.938c-4.013,6.633-11.456,10.056-19.018,10.162c-7.631,0.105-14.794-3.486-19.709-9.208
				c-6.274-7.304-6.238-17.731-3.938-26.534c1.031-3.943-3.514-5.74-6.28-3.604c-12.885,9.957-37.397,18.544-46.894-0.016
				c-10.109-19.76,12.618-34.597,26.472-44.02c1.993-1.357,2.626-4.084,0.8-5.915c-6.392-6.408-13.56-11.999-20.038-18.323
				c-6.216-6.064-13.665-13.867-14.334-23.012c-0.81-11.09,9.959-16.583,19.478-16.398c12.614,0.246,25.297,7.407,34.865,15.113
				c3.725,3.001,9.067-2.271,5.303-5.303c-16.885-13.602-56.272-30.82-66.334-0.112c-3.472,10.596,3.451,21.231,9.981,28.929
				c7.689,9.068,17.416,16.027,25.776,24.41c0.266-1.971,0.532-3.941,0.799-5.913c-9.814,6.678-19.646,13.511-26.808,23.138
				c-7.318,9.832-7.355,21.588-1.885,32.279c11.703,22.876,42.572,12.463,58.122,0.446c-2.093-1.2-4.187-2.401-6.28-3.604
				c-2.962,11.335-2.23,23.673,5.36,33.081c6.215,7.706,15.715,11.928,25.541,12.064c10.146,0.141,19.307-4.992,25.049-13.199
				c8.066-11.527,6.626-27.425,3.484-40.303c-2.094,1.201-4.188,2.402-6.279,3.604c6.452,8.167,15.669,14.338,26.438,13.664
				c9.469-0.592,17.447-6.357,22.916-13.793c5.484-7.457,7.511-17.139,5.813-26.176c-2.157-11.484-11.526-19.854-21.636-24.66
				c0,2.174,0,4.348,0,6.524c16.314-11.139,39.754-28.419,26.476-50.809c-11.274-19.012-42.076-14.574-60.374-13.971
				c1.088,1.867,2.175,3.733,3.262,5.602c12.954-22.492-6.136-55.456-33.44-46.821c-22.168,7.012-30.672,40.637-21.897,60.123
				C294.357,99.502,300.856,95.745,298.892,91.379L298.892,91.379z"/>
		</g>
		<g>
			<path fill="#452F8B" d="M462.225,434.812c8.952-9.869,9.715-22.531,0.763-32.651c-7.578-8.567-21.376-13.241-32.294-9.001
				c-13.648,5.303-18.948,23.608-9.737,35.028c9.971,12.36,32.343,11.893,42.865,0.862c3.334-3.494-1.961-8.807-5.304-5.304
				c-8.048,8.438-23.472,7.972-31.613-0.147c-7.505-7.482-1.423-21.131,7.73-23.885c7.938-2.388,16.973,1.593,22.538,7.203
				c6.755,6.81,5.959,15.745-0.251,22.591C453.685,433.078,458.973,438.398,462.225,434.812L462.225,434.812z"/>
		</g>
		<g>
			<path fill="#452F8B" d="M413.476,423.691c5.705-2.562,10.798-6.943,10.809-13.645c0.01-5.871-4.435-11.027-8.675-14.566
				c-9.69-8.088-25.218-13.871-36.471-5.736c-11.716,8.47-7.725,23.084,1.309,31.85c10.071,9.773,26.028,12.579,36.709,2.285
				c3.486-3.359-1.824-8.656-5.303-5.304c-7.564,7.29-18.253,4.604-25.507-1.736c-6.073-5.308-10.878-15.241-2.803-21.079
				c7.848-5.674,18.608-0.71,25.603,4.144c3.214,2.229,6.524,5.444,7.528,9.34c1.067,4.134-3.91,6.581-6.903,7.925
				C405.353,419.15,409.109,425.65,413.476,423.691L413.476,423.691z"/>
		</g>
		<g>
			<path fill="#7F3F98" d="M506.559,188.97c-9.838,6.116-22.77,3.104-28.887-6.733c-6.118-9.84-3.101-22.773,6.735-28.886
				c9.839-6.121,22.772-3.103,28.888,6.733C519.411,169.922,516.395,182.852,506.559,188.97z"/>
			<path fill="#7F3F98" d="M472.704,210.242c-9.051,5.627-20.947,2.854-26.577-6.198c-5.625-9.05-2.852-20.949,6.197-26.578
				c9.052-5.627,20.949-2.85,26.574,6.198C484.527,192.718,481.755,204.611,472.704,210.242z"/>
			<path fill="#7F3F98" d="M443.679,228.502c-7.082,4.405-16.393,2.232-20.797-4.854c-4.403-7.078-2.232-16.389,4.85-20.795
				c7.083-4.404,16.391-2.229,20.796,4.851C452.932,214.787,450.761,224.099,443.679,228.502z"/>
			<g>
				<path fill="#452F8B" d="M522.196,163.01c-1.298-14.191-11.319-23.79-25.843-22.735c-12.109,0.882-25.051,9.081-27.339,21.669
					c-2.566,14.112,9.414,28.54,23.948,26.551c14.253-1.952,27.062-15.916,26.075-30.562c-0.323-4.803-7.825-4.834-7.5,0
					c0.722,10.684-7.853,20.158-17.842,22.83c-10.354,2.77-19.096-7.732-17.285-17.693c1.617-8.891,11.13-13.915,19.258-15.223
					c10.359-1.667,18.095,4.967,19.028,15.164C515.134,167.788,522.637,167.828,522.196,163.01L522.196,163.01z"/>
			</g>
			<g>
				<path fill="#452F8B" d="M480.962,191.285c1.93-5.824,2.275-12.292-2.316-16.956c-4.238-4.308-11.326-4.559-16.907-3.823
					c-12.583,1.659-27.646,9.24-29.021,23.258c-1.388,14.157,11.833,21.009,24.303,20.286c13.924-0.806,26.897-10.477,26.603-25.296
					c-0.094-4.833-7.595-4.843-7.5,0c0.207,10.392-8.579,16.59-18.193,17.717c-8.188,0.959-18.241-1.953-17.804-11.749
					c0.428-9.643,11.85-14.442,19.838-16.327c3.738-0.882,8.362-1.349,11.958,0.319c4.275,1.981,2.966,7.103,1.785,10.667
					C472.183,193.974,479.444,195.863,480.962,191.285L480.962,191.285z"/>
			</g>
			<g>
				<path fill="#452F8B" d="M449.785,210.528c-4.031-24.303-47.543-14.976-43.839,8.282c3.93,24.676,41.625,12.984,45.781-5.826
					c1.038-4.707-6.211-6.643-7.256-1.904c-2.16,9.778-25.849,22.23-30.59,8.938c-5.484-15.373,25.939-23.912,28.647-7.586
					C443.323,217.214,450.568,215.256,449.785,210.528L449.785,210.528z"/>
			</g>
		</g>
		<g>
			<path fill="#B94126" d="M352.373,143.047c2.298-15.28-4.719-29.653-21.101-31.85c-13.781-1.848-28.23,5.44-32.62,19.055
				c-5.138,15.936,6.178,36.396,23.068,38.473c16.587,2.041,32.393-10.58,33.706-27.218c0.196-2.478-0.173-5.004-0.628-7.435
				c-0.896-4.768-8.142-2.818-7.257,1.903c2.476,13.211-8.209,24.538-21.141,25.453c-14.285,1.013-23.448-14.675-20.918-27.624
				c2.077-10.632,13.32-15.834,23.27-15.37c12.438,0.58,18.081,11.297,16.364,22.709
				C344.406,145.871,351.652,147.836,352.373,143.047L352.373,143.047z"/>
		</g>
		<g>
			<path fill="#8DC63F" d="M443.241,291.443c0,0,1.488-34.564,21.963-35.146c0,0,1.552,30.215-12.915,38.879
				c0,0,44.606,6.56,38.803,29.692c0,0-23.891,15.674-43.261-7.562c0,0,25.373,31.314,7.521,46.679c0,0-26.755-21.929-14.909-45.369
				"/>
			<path fill="#BE1E2D" d="M426.461,257.063c-12.337-1.06-87.642,19.706-86.089,49.916c1.548,30.21,78.338,48.573,85.926,45.413
				C449.587,342.702,451.411,259.201,426.461,257.063z"/>
			<g>
				<path fill="#89241B" d="M437.838,265.919c-1.305,21.181,4.891,42.177,3.733,63.434c-0.467,8.615-2.479,19.013-10.586,23.676
					c-6.879,3.956-15.851-0.523-22.031-3.781c-8.356-4.41-16.071-9.935-24.373-14.446c-7.643-4.154-15.94-6.201-24.186-8.77
					c-6.813-2.124-14.535-4.357-20.098-9.042c-5.383-4.534-2.862-10.065,1.018-14.807c9.996-12.222,25.71-20.222,39.941-26.374
					c15.529-6.715,32.954-11.05,49.927-9.111c4.807,0.55,4.753-6.956,0.002-7.497c-23.583-2.699-47.751,6.015-68.147,17.175
					c-9.905,5.419-19.602,11.903-27.026,20.504c-4.338,5.023-8.078,11.791-5.794,18.555c2.075,6.146,8.191,9.85,13.738,12.459
					c7.482,3.521,15.559,5.74,23.461,8.088c17.554,5.218,30.97,18.424,48.174,24.353c7.494,2.583,15.852,2.239,22.191-2.88
					c7.408-5.985,9.883-15.338,10.973-24.404c2.705-22.468-4.799-44.713-3.418-67.13
					C445.636,261.082,438.134,261.113,437.838,265.919L437.838,265.919z"/>
			</g>
			<g>
				<path fill="#4B8A3F" d="M454.796,285.859c-0.348-10.463,8.822-16.522,16.875-21.308c-1.826-0.77-3.654-1.542-5.48-2.311
					c2.486,9.983-1.199,21.831-9.273,28.276c-1.975,1.576-1.101,4.771,0.8,5.914c14.664,8.822,28.857,16.367,40.164,29.583
					c0-1.769,0.001-3.536,0-5.304c-9.772,9.411-26.367,0.48-37.977,0.299c-3.096-0.05-4.294,3.122-3.262,5.602
					c2.229,5.353,4.848,10.576,6.414,16.175c1.671,5.975,0.691,11.911-1.095,17.733c2.093-0.568,4.187-1.135,6.28-1.7
					c-7.433-6.151-15.711-15.04-12.929-25.482c1.243-4.671-6.009-6.586-7.256-1.903c-3.502,13.148,5.26,24.727,14.881,32.689
					c2.2,1.818,5.395,1.188,6.28-1.701c2.082-6.789,2.839-13.498,1.354-20.483c-1.405-6.614-4.826-12.833-7.405-19.031
					c-1.089,1.867-2.177,3.734-3.263,5.602c14.617,0.231,30.812,9.513,43.28-2.494c1.558-1.5,1.31-3.773,0-5.304
					c-11.732-13.715-26.541-21.644-41.764-30.803c0.267,1.971,0.533,3.941,0.8,5.912c10.072-8.039,14.296-23.162,11.226-35.482
					c-0.579-2.322-3.409-3.541-5.479-2.311c-10.444,6.207-21.115,14.483-20.671,27.832
					C447.458,290.687,454.958,290.703,454.796,285.859L454.796,285.859z"/>
			</g>
		</g>
		<g>
			<path fill="#4B8A3F" d="M175.093,66.217c-1.301,0.179-2.59-0.582-2.311-0.27c-0.824-0.924,0.227,0.439,0.415,0.783
				c0.884,1.618,1.329,2.936,1.937,4.656c1.89,5.351,3.323,10.869,4.721,16.363c3.905,15.36,7.071,30.916,10.09,46.473
				c2.847,14.668,5.5,29.384,7.797,44.148c0.664,4.275,1.331,8.558,1.765,12.863c0.098,0.971,0.201,1.959,0.167,2.938
				c0.053-1.496,1.564-2.225-0.101-1.244c-7.903,4.648-18.947,5.818-28.132,5.335c-15.941-0.838-29.328-9.7-37.701-23.076
				c-16.172-25.84-14.851-60.909,3.052-85.579C145.939,77.001,160.224,69.688,175.093,66.217c4.723-1.103,2.795-8.354-1.903-7.257
				c-21.445,5.008-39.411,17.597-49.304,37.513c-6.497,13.082-9.139,28.087-8.968,42.618c0.176,14.862,5.923,30.513,14.193,42.71
				c8.899,13.129,22.649,21.672,38.387,23.593c11.04,1.348,22.512-0.231,32.784-4.489c2.447-1.014,5.962-2.539,6.713-5.373
				c0.621-2.348-0.072-5.221-0.361-7.557c-3.592-28.779-9.378-57.478-15.66-85.771c-2.28-10.271-4.646-20.584-7.874-30.606
				c-1.452-4.519-3.589-13.508-9.91-12.637C168.396,59.622,170.366,66.868,175.093,66.217z"/>
		</g>
	</g>
</g>
</svg>
