<?xml version="1.0" encoding="utf-8"?>
<!-- Generator: Adobe Illustrator 16.0.0, SVG Export Plug-In . SVG Version: 6.00 Build 0)  -->
<!DOCTYPE svg PUBLIC "-//W3C//DTD SVG 1.1//EN" "http://www.w3.org/Graphics/SVG/1.1/DTD/svg11.dtd">
<svg version="1.1" xmlns="http://www.w3.org/2000/svg" xmlns:xlink="http://www.w3.org/1999/xlink" x="0px" y="0px"
	 width="555.994px" height="555.994px" viewBox="0 0 555.994 555.994" enable-background="new 0 0 555.994 555.994"
	 xml:space="preserve">
<g id="Layer_2">
</g>
<g id="Layer_1">
	<path fill="#FFFFFF" d="M327.251,49.482c0,0-60.598-30.236-101.096,23.762c0,0-36.285,51.014,1.357,73.504L327.251,49.482z"/>
	<polygon fill="#FFFFFF" points="451.146,143.738 451.146,175.236 434.515,189.021 460.144,212.734 468.981,235.324 447.03,247.439 
		414.333,252.529 388.147,292.23 362.649,277.232 362.649,253.232 301.153,260.732 307.151,241.234 318.251,226.018 
		290.653,218.734 281.653,197.736 290.653,178.236 314.651,176.736 336.841,179.928 333.122,140.824 346.521,113.311 
		364.149,116.74 379.149,136.238 385.979,159.297 401.647,140.738 427.146,131.738 	"/>
	<polygon fill="#FFFFFF" points="501.692,360.801 501.692,345.467 482.36,330.135 463.026,338.801 429.692,329.467 411.692,334.135 
		395.026,322.801 379.026,330.801 385.026,347.467 411.692,352.135 	"/>
	<polygon fill="#FFFFFF" points="353.815,404.828 390.692,400.406 382.36,412.799 361.026,416.133 371.757,464.16 360.36,462.799 
		343.026,443.465 324.36,466.799 318.36,440.799 299.026,444.131 282.36,418.133 257.026,345.467 270.36,336.801 	"/>
	<polygon fill="#FFFFFF" points="257.692,470.799 277.692,474.131 285.026,496.799 275.692,513.465 248.36,499.465 246.851,475.518 
		223.692,445.465 233.026,432.131 248.36,437.465 	"/>
	<g>
		<path fill="#BE1E2D" d="M58.733,130.176c0-1.49,0.592-2.844,1.766-4.059v-0.236c0-0.902-0.059-2-0.176-3.295
			c-0.156-1.725-0.236-2.805-0.236-3.234c0-2.668,0.607-4.924,1.824-6.766c1.412-2.158,3.373-3.236,5.883-3.236
			c2.746,0,4.746,1.568,6.002,4.707l1.176,5.941c0.195,1.098,0.588,3.039,1.178,5.824c0.234,0.078,0.412,0.117,0.529,0.117
			c3.373,0,5.059-1.156,5.059-3.471c0-1.256-0.883-2.941-2.646-5.059l-4-4.473l0.469-1.234c0.746-0.705,1.689-1.178,2.824-1.412
			c1.885,0.666,3.697,2.273,5.441,4.824c1.748,2.549,2.621,4.824,2.621,6.824c0,0.275-0.258,1.609-0.768,4
			c-0.744,3.414-1.762,5.658-3.059,6.738c-1.293,1.076-3.666,1.617-7.117,1.617c-0.707,0-2.414-0.08-5.119-0.236
			c-2.039-0.117-3.727-0.176-5.061-0.176c0.158,0-0.998,0.117-3.469,0.354c-0.393,0.039-0.729,0.059-1.004,0.059
			c-1.41,0-2.117-1.021-2.117-3.061V130.176z M70.208,124.998c0-1.137-0.258-2.646-0.766-4.529
			c-0.551-2.117-1.139-3.492-1.766-4.117l-0.41-0.412c-0.473-0.471-0.787-0.707-0.943-0.707c-0.902,0-1.352,1.686-1.352,5.061
			c0,0.666,0.115,1.607,0.352,2.824c0.236,1.373,0.492,2.215,0.766,2.529c0.273,0.312,1.039,0.471,2.293,0.471
			C69.599,126.117,70.208,125.744,70.208,124.998z"/>
		<path fill="#BE1E2D" d="M84.386,148.268c1.516,2.426,2.275,4.057,2.275,4.891c0,3.072-1.1,4.607-3.299,4.607l-1.309-0.17
			l-0.738-1.252c0-0.189,0.133-0.635,0.398-1.338c0.264-0.701,0.396-1.184,0.396-1.449c0-1.783-2.16-3.262-6.484-4.436
			c-3.334-0.91-6.311-1.365-8.928-1.365c-0.682,0-1.555,0.057-2.615,0.17c-1.443,0.152-2.314,0.229-2.615,0.229
			c-1.289,0-1.936-0.816-1.936-2.445c0-4.096,0.971-6.143,2.912-6.143c0.459,0,1.133,0.076,2.029,0.229
			c0.895,0.15,1.57,0.227,2.025,0.227h4.971c6.242,0,10.773-0.398,13.592-1.195c1.066,0.721,1.6,2.787,1.6,6.199
			C86.661,147.111,85.901,148.191,84.386,148.268z"/>
		<path fill="#BE1E2D" d="M84.386,169.422c1.516,2.428,2.275,4.059,2.275,4.893c0,3.07-1.1,4.607-3.299,4.607l-1.309-0.172
			l-0.738-1.25c0-0.191,0.133-0.637,0.398-1.338c0.264-0.701,0.396-1.186,0.396-1.449c0-1.783-2.16-3.262-6.484-4.436
			c-3.334-0.912-6.311-1.365-8.928-1.365c-0.682,0-1.555,0.057-2.615,0.17c-1.443,0.152-2.314,0.229-2.615,0.229
			c-1.289,0-1.936-0.816-1.936-2.447c0-4.094,0.971-6.143,2.912-6.143c0.459,0,1.133,0.076,2.029,0.229
			c0.895,0.152,1.57,0.229,2.025,0.229h4.971c6.242,0,10.773-0.398,13.592-1.195c1.066,0.721,1.6,2.787,1.6,6.199
			C86.661,168.266,85.901,169.348,84.386,169.422z"/>
		<path fill="#BE1E2D" d="M58.733,200.904c0-1.492,0.592-2.844,1.766-4.061v-0.234c0-0.902-0.059-2-0.176-3.295
			c-0.156-1.727-0.236-2.805-0.236-3.236c0-2.668,0.607-4.922,1.824-6.766c1.412-2.158,3.373-3.236,5.883-3.236
			c2.746,0,4.746,1.568,6.002,4.707l1.176,5.941c0.195,1.098,0.588,3.041,1.178,5.826c0.234,0.078,0.412,0.117,0.529,0.117
			c3.373,0,5.059-1.156,5.059-3.471c0-1.256-0.883-2.941-2.646-5.061l-4-4.471l0.469-1.236c0.746-0.705,1.689-1.176,2.824-1.412
			c1.885,0.666,3.697,2.275,5.441,4.826c1.748,2.549,2.621,4.824,2.621,6.824c0,0.273-0.258,1.607-0.768,4
			c-0.744,3.412-1.762,5.656-3.059,6.736c-1.293,1.078-3.666,1.619-7.117,1.619c-0.707,0-2.414-0.08-5.119-0.236
			c-2.039-0.117-3.727-0.176-5.061-0.176c0.158,0-0.998,0.117-3.469,0.352c-0.393,0.039-0.729,0.061-1.004,0.061
			c-1.41,0-2.117-1.021-2.117-3.061V200.904z M70.208,195.727c0-1.139-0.258-2.646-0.766-4.529
			c-0.551-2.117-1.139-3.492-1.766-4.119l-0.41-0.412c-0.473-0.471-0.787-0.707-0.943-0.707c-0.902,0-1.352,1.688-1.352,5.061
			c0,0.666,0.115,1.607,0.352,2.824c0.236,1.373,0.492,2.217,0.766,2.529c0.273,0.314,1.039,0.471,2.293,0.471
			C69.599,196.844,70.208,196.471,70.208,195.727z"/>
		<path fill="#BE1E2D" d="M61.442,235.793c-1.059-0.041-1.59-1.492-1.59-4.354c0-0.785,0.139-1.727,0.412-2.824
			c0.352-1.373,0.842-2.061,1.469-2.061c1.061,0,2.295,0.105,3.707,0.314c2.158,0.334,3.375,0.502,3.648,0.502
			c0.627,0.084,1.273,0.127,1.943,0.127h1.998c6.197,0,9.297-1.244,9.297-3.73c0-3.672-5.014-5.508-15.043-5.508
			c-1.754,0-3.727,0.158-5.91,0.471l-1.17-0.646c-0.234-1.02-0.352-1.846-0.352-2.471v-0.941c0-3.178,0.742-4.766,2.225-4.766
			c1.211,0,2.441,0.057,3.691,0.176c3.709,0.354,5.76,0.529,6.15,0.529h1.639c4.844,0,8.711-0.314,11.6-0.941
			c0.898,0.312,1.426,1.098,1.582,2.348v3.17c0,0.627-0.412,2.055-1.234,4.287c0-0.197,0.115,0.998,0.35,3.58
			c0.039,0.432,0.061,0.762,0.061,0.998c0,4.344-0.883,7.424-2.646,9.244c-1.766,1.822-4.805,2.73-9.119,2.73h-2.59
			c-0.117,0-0.842,0-2.176,0L61.442,235.793z"/>
		<path fill="#BE1E2D" d="M75.269,265.266c-1.846,0-4.277,0.1-7.297,0.295l-7.295,0.471c-0.627,0.039-1.922,0.059-3.883,0.059
			c-2.863,0-5.08-1.352-6.648-4.059c-1.295-2.197-1.941-4.844-1.941-7.941c0-8.119,1.686-12.885,5.059-14.297
			c0.629,0.393,1.158,1.02,1.59,1.883c0.432,0.861,0.646,1.666,0.646,2.412c0,0.195-0.639,1.441-1.914,3.734
			c-1.271,2.295-1.91,3.971-1.91,5.031c0,1.922,0.527,3.275,1.588,4.059c0.904,0.627,2.354,0.941,4.354,0.941
			c1.883,0,2.824-1.02,2.824-3.059c0-0.705-0.078-1.922-0.234-3.646c-0.039-0.434-0.059-0.766-0.059-1.002
			c0-6.627,3.646-9.941,10.943-9.941c3.84,0,7.332,0.783,10.471,2.352c3.92,1.961,5.883,4.668,5.883,8.119
			c0,0.824-0.137,1.707-0.41,2.648c-0.67,2.273-1.002,3.549-1.002,3.824c0,0.117,0.186,0.578,0.559,1.381
			c0.373,0.805,0.561,1.402,0.561,1.795c0,1.727-0.314,3.727-0.939,6.002l-1.061,0.354
			C82.444,265.738,79.149,265.266,75.269,265.266z M79.562,257.148c2.156-0.117,3.236-0.824,3.236-2.117
			c0-1.846-1.668-3.414-5-4.709c-2.904-1.137-5.514-1.705-7.826-1.705c-4.471,0-6.707,1.197-6.707,3.59
			c0,1.566,0.939,2.803,2.824,3.705c1.49,0.744,3.119,1.119,4.883,1.119h0.236c2.783,0.117,4.922,0.176,6.412,0.176h0.764
			C78.54,257.207,78.933,257.188,79.562,257.148z"/>
		<path fill="#BE1E2D" d="M59.558,290.035c-0.744-2.668-1.117-4.668-1.117-6c0-9.143,3.852-13.711,11.555-13.711
			c2.633,0,5.465,0.529,8.49,1.59c3.42,1.176,5.797,2.666,7.133,4.471c0.746,0.98,1.121,2.627,1.121,4.941
			c0,3.568-0.826,6.609-2.477,9.119c-1.889,2.943-4.525,4.414-7.906,4.414c-3.148,0-5.703-0.611-7.67-1.826
			c-2.398-1.451-3.6-3.646-3.6-6.588c0-0.902,0.197-2.246,0.59-4.029c0.393-1.785,0.59-3.131,0.59-4.031
			c0-0.117-0.102-0.176-0.295-0.176c-2.354,0-3.531,1.783-3.531,5.354c0,1.02,0.275,2.51,0.824,4.471
			c0.547,1.961,0.824,3.451,0.824,4.473c0,1.568-0.531,2.354-1.59,2.354C61.442,294.859,60.46,293.25,59.558,290.035z
			 M82.737,284.268c0-1.293-1.396-2.588-4.195-3.883c-2.402-1.1-4.432-1.646-6.084-1.646c-1.025,0-1.852,0.471-2.482,1.412
			c-0.553,0.824-0.828,1.764-0.828,2.824c0,1.371,1.143,2.51,3.428,3.412c1.891,0.744,3.801,1.117,5.73,1.117
			c1.143,0,2.129-0.254,2.957-0.766C82.247,286.152,82.737,285.326,82.737,284.268z"/>
		<path fill="#BE1E2D" d="M59.853,338.689c0-2.434,0.295-4.59,0.883-6.473l1.295-0.941c3.137,0.666,7.156,1,12.059,1
			c5.139,0,7.709-0.863,7.709-2.588c0-2.275-2.205-3.883-6.613-4.824c-2.77-0.588-5.773-0.883-9.012-0.883
			c-1.25,0-2.77,0.078-4.564,0.234c-1.17-0.586-1.756-2.352-1.756-5.293c0-1.375,0.371-2.453,1.111-3.236l0.525-0.354
			c0.234-0.117,0.471-0.176,0.703-0.176c0.781,0,1.658,0.096,2.635,0.293c2.379,0.473,3.82,0.707,4.328,0.707h2.633
			c6.555,0,9.832-1.197,9.832-3.59c0-2-2.148-3.412-6.447-4.234c-2.484-0.473-5.324-0.707-8.518-0.707
			c-1.854,0-3.688,0.078-5.5,0.234l-1.006-0.764c0-0.627-0.049-1.559-0.15-2.795c-0.098-1.234-0.146-2.168-0.146-2.795
			c0-1.646,0.572-2.471,1.715-2.471c1.771,0,3.938,0.078,6.5,0.236c5.75,0.352,9.375,0.529,10.871,0.529
			c2.205,0,4.137-0.314,5.791-0.941c1.223,0.744,1.832,2.096,1.832,4.059c0,2.51-0.393,4.334-1.174,5.473l-0.707,0.293
			c0.547,2.98,0.824,4.863,0.824,5.648c0,1.49-0.256,2.883-0.766,4.178c-0.08,0.156-0.234,0.51-0.471,1.059l-1.178,2.707
			l1.766,4.352c0.666,1.648,0.998,3.395,0.998,5.238c0,3.215-0.715,5.52-2.146,6.912c-1.432,1.391-3.754,2.088-6.971,2.088
			c-0.354,0-1.373-0.02-3.059-0.059h-2c-0.471,0-0.844-0.059-1.119-0.176c-0.273,0-0.352,0-0.234,0
			c-0.275,0-0.863,0.037-1.764,0.117l-4.824,0.412c-0.473,0.037-1.061,0.059-1.768,0.059c-0.586,0-1.086-0.266-1.5-0.795
			C60.06,339.896,59.853,339.314,59.853,338.689z"/>
		<path fill="#BE1E2D" d="M59.558,364.693c-0.744-2.668-1.117-4.668-1.117-6c0-9.143,3.852-13.711,11.555-13.711
			c2.633,0,5.465,0.531,8.49,1.59c3.42,1.178,5.797,2.666,7.133,4.471c0.746,0.98,1.121,2.627,1.121,4.941
			c0,3.568-0.826,6.609-2.477,9.119c-1.889,2.943-4.525,4.414-7.906,4.414c-3.148,0-5.703-0.609-7.67-1.826
			c-2.398-1.449-3.6-3.646-3.6-6.588c0-0.902,0.197-2.246,0.59-4.029c0.393-1.785,0.59-3.129,0.59-4.031
			c0-0.117-0.102-0.176-0.295-0.176c-2.354,0-3.531,1.783-3.531,5.354c0,1.02,0.275,2.51,0.824,4.471
			c0.547,1.961,0.824,3.451,0.824,4.473c0,1.568-0.531,2.354-1.59,2.354C61.442,369.518,60.46,367.908,59.558,364.693z
			 M82.737,358.926c0-1.293-1.396-2.588-4.195-3.883c-2.402-1.098-4.432-1.646-6.084-1.646c-1.025,0-1.852,0.471-2.482,1.412
			c-0.553,0.824-0.828,1.764-0.828,2.824c0,1.371,1.143,2.51,3.428,3.412c1.891,0.744,3.801,1.117,5.73,1.117
			c1.143,0,2.129-0.254,2.957-0.764C82.247,360.811,82.737,359.984,82.737,358.926z"/>
		<path fill="#BE1E2D" d="M61.442,399.697c-1.059-0.041-1.59-1.492-1.59-4.355c0-0.785,0.139-1.727,0.412-2.824
			c0.352-1.371,0.842-2.059,1.469-2.059c1.061,0,2.295,0.104,3.707,0.314c2.158,0.334,3.375,0.502,3.648,0.502
			c0.627,0.082,1.273,0.125,1.943,0.125h1.998c6.197,0,9.297-1.242,9.297-3.73c0-3.67-5.014-5.506-15.043-5.506
			c-1.754,0-3.727,0.156-5.91,0.471l-1.17-0.648c-0.234-1.02-0.352-1.844-0.352-2.469v-0.941c0-3.178,0.742-4.766,2.225-4.766
			c1.211,0,2.441,0.059,3.691,0.176c3.709,0.354,5.76,0.529,6.15,0.529h1.639c4.844,0,8.711-0.314,11.6-0.941
			c0.898,0.312,1.426,1.096,1.582,2.348v3.17c0,0.627-0.412,2.055-1.234,4.285c0-0.195,0.115,0.998,0.35,3.582
			c0.039,0.432,0.061,0.764,0.061,0.998c0,4.342-0.883,7.424-2.646,9.244c-1.766,1.82-4.805,2.73-9.119,2.73h-2.59
			c-0.117,0-0.842,0-2.176,0L61.442,399.697z"/>
		<path fill="#BE1E2D" d="M81.679,421.137c-0.273-1.533-0.51-3.029-0.705-4.484c-0.314-0.324-1.686-0.486-4.119-0.486
			c-3.293,0-6.373,0.1-9.236,0.295l-6.471,0.119c-1.02,0.037-1.531-1.199-1.531-3.715c0-1.471,0.434-2.98,1.295-4.525
			c0.588-0.193,1.529-0.291,2.826-0.291c-0.355,0,0.018,0,1.115,0h4.648c0.273,0,0.768,0,1.471,0l10.119,0.236l0.176-0.236
			l-0.115-2.352c-0.082-1.334,0.41-2.453,1.469-3.354c1.098,0.271,1.844,0.893,2.236,1.863l0.707,2.561
			c0.234,0.855,0.744,1.281,1.529,1.281c-0.551,0,1.588-0.156,6.412-0.471c0.666,0.039,1.215,0.061,1.646,0.061
			c1.961,0,2.943,1.488,2.943,4.469v0.883c0,2.785-0.746,4.176-2.236,4.176c-0.746,0-1.354-0.057-1.824-0.176l-5.117-0.41
			c-0.98,0-1.609,0-1.883,0c-0.865,0-1.295,0.725-1.295,2.176c0,1.686-0.961,2.844-2.883,3.469L81.679,421.137z"/>
		<path fill="#BE1E2D" d="M59.499,440.229c0-0.512,0.051-1.256,0.148-2.236s0.146-1.725,0.146-2.234
			c0-2.434,0.176-4.746,0.529-6.943c0.588-3.686,1.607-5.529,3.059-5.529c0.943,0,1.744,0.295,2.412,0.883s1,1.332,1,2.236
			c-2.275,3.449-3.412,6.154-3.412,8.115c0,0.553,0.158,1.275,0.473,2.182c0.35,1.096,0.725,1.646,1.117,1.646
			c0.469,0,1.236-1.531,2.295-4.59c0.43-1.217,1.059-3.061,1.881-5.531c1.531-2.627,3.766-3.939,6.707-3.939
			c2.785,0,5.314,0.566,7.59,1.703c2.863,1.412,4.295,3.412,4.295,6.002c0,0.824-0.156,2-0.471,3.529l-0.707,3.412
			c-0.549,2.746-1.41,4.617-2.588,5.617c-1.176,1-3.137,1.502-5.883,1.502c-1.688,0-2.904-0.236-3.646-0.707
			c-0.943-0.588-1.414-1.668-1.414-3.234c0-2.787,1.941-4.178,5.826-4.178h1.412c2.195,0,3.293-0.391,3.293-1.176
			c0-0.943-0.961-1.824-2.881-2.648c-1.689-0.705-3.082-1.061-4.178-1.061c-2.117,0-3.729,1.219-4.824,3.652
			c-0.512,1.135-1.551,3.389-3.117,6.762c-1.141,2.434-2.455,3.648-3.943,3.648c-1.295,0-2.49-0.844-3.59-2.529
			C60.009,443.051,59.499,441.602,59.499,440.229z"/>
	</g>
	<g>
		<path fill="#BE1E2D" d="M145.05,466.721c0.521-2.375-7.301-2.127-18.207-10.473c-2.654-2.949-5.402-7.285-5.607-12.766
			c-0.258-7.025,4.945-11.709,9.123-14.314c7.648-4.762,14.471-6.328,14.471-6.328s2.6,13.184,9.367,19.602
			c9.189,8.715,25.637,9.633,26.75-5.941c1.539-21.539-19.887-34.301-35.424-34.301c0.021-0.146-8.293-0.725-16.688,3.48
			c-2.959,1.322-6.295,4.053-7.252,4.812s-5.711,5.545-7.332,8.363c-1.916,3.334-2.666,7.082-3.25,9.5
			c-1,7.832-0.172,15.629,3.617,22.586c1.641,3.01,7.484,9.473,14.936,13.271C135.554,467.27,144.06,471.232,145.05,466.721z
			 M173.433,443.906c-2.189,2.48-11.867,0.494-16.287-4.76c-6.42-7.631-6.869-16.691-6.941-16.824
			C154.329,422.441,183.124,432.918,173.433,443.906z"/>
		<path fill="#BE1E2D" d="M129.563,406.752c-4.062-3.5-8.312-8.688-8.688-13.188c-0.357-4.291,5.953-7.941,8.85-9.328
			c10.613-5.08,24.316-6.254,35.746-5.773c2.762,0.117,3.143,0.459,3.143,0.459s9.553,10.674,20.387,17.416
			c12.373,7.697,47.436,21.91,57.584-0.025c10.488-22.672-29.65-31.195-44.559-35.191c-4.594-1.219-19.566-4.764-36.805-4.619
			c-1.938-2.521-3.797-5.041-5.434-7.475c21.674-3.645,22.902-40.689,4.197-47.451c4.348,1.572,21.449,10.191,25.893,12.154
			c9.742,4.289,20.338,8.438,30.938,9.982c10.297,1.502,24.322,1.652,28.375-5.58c4.641-8.295,0.865-17.377-4.934-22.02
			c-11.318-9.09-30.828-16.068-49.35-17.561c-27.17-2.191-50.604,3.945-50.604,3.945s-19.857-8.656-19.281-13.26
			c0.818-6.533,26.385-3.83,30.779-3.273c4.277,0.539,11.473,1.766,16.658,1.389c6.098-0.445-7.729-19.127-13.539-19.238
			c-5.811-0.109-17.748,1.125-29.229-5.98c-6.463-4.002-4.012-7.963,1.555-10.867c10.287-3.621,23.611-4.547,33.582-4.016
			c5.275,0.271,9.037,1.125,9.037,1.125s8.781,7.256,13.76,10.365c12.354,7.727,49.494,28.516,58.316,6.359
			c9.24-23.207-29.648-31.199-44.559-35.193c-3.033-0.807-10.615-2.621-20.365-3.725c5.189-18.021-5.328-40.26-30.635-45.238
			c-9.014-1.771-18.514,0.75-21.633,1.994c-1.395-1.201-6.248-5.576-7.248-11.354c-0.893-5.16,3.055-10.869,8.422-15.076
			c7.121-5.582,14.531-6.357,14.531-6.357s2.609,13.242,9.406,19.686c9.23,8.752,25.746,9.672,26.863-5.967
			c1.408-19.686-16.285-32.068-31.242-34.137c0.729-3.916,1.719-7.15,4.24-10.105c4.182-4.9,10.543-8.348,17.248-7.967
			c5.83,0.328,15.021,4.395,17.455,10.361c2.523,6.191-0.539,11.709,0.996,11.617c5.006-0.309,4.801-10.33,1.934-14.834
			c-4.01-6.303-9.516-9.969-16.973-11.043c-13.428-1.932-23.646,3.973-28.137,17.139c-0.594,1.75-1.137,3.316-1.533,4.447
			c-2.012-0.164-9.779-0.162-18.088,4.215c-3.826,2.018-9.271,5.105-13.555,13.5c-3.57,7-3.664,12.486-1.143,20.889
			c1.947,6.486,9.609,14.695,11.656,16.986l0,0c-22.301,11.26-12.334,36,7.506,44.854c-7.203,1.953-13.611,4.871-17.326,9.559
			c-1.096,1.062-1.926,2.236-2.357,3.531c-0.242,0.725-0.395,1.438-0.498,2.143c-0.025,0.096-0.068,0.178-0.09,0.273
			c-0.162,0.686-0.146,1.422,0,2.18c0.5,8.164,9.334,14.842,16.061,18.869c0,0-13.406,1.684-15.498,7.99
			c-1.498,4.555-1.123,7.123,0.238,10.926c3.508,9.805,21.295,17.166,26.936,20.545c-5.584,4.018-4.861,1.973-6.188,5.945
			c-0.416,1.254,0.125,3.16,1.205,3.25c1.078,0.09,2.684-0.15,4.301-0.598c1.664-0.096,6.354,0.043,15.195,3.082
			c5.758,2.68,10.832,6.525,14.436,11.969c8.555,12.914-7.277,23.846-17.832,19.889c0,0-3.771-8.295-6.596-12.631
			c-5.299-8.117-14.496-17.508-23.873-12.061c-7.617,4.428-11.305,19.574-6.453,27.287c6.889,10.943,15.559,17.441,40.395,17.443
			c1.486,2.504,3.082,5,4.734,7.422c-1.812,0.133-3.635,0.295-5.465,0.529c-21.137,2.705-48.789,8.855-40.676,35.303
			c1.654,5.389,8.541,13.248,13.574,17.738C126.675,409.189,127.991,407.648,129.563,406.752z M232.614,400.314
			c-1.48,2.545-15.896,2.078-27.48-3.014c-18.621-8.188-25.283-13.725-28.174-18.059
			C191.087,378.922,235.317,395.656,232.614,400.314z M231.97,249.105c-2.705,4.658-40.043-13.387-46.605-19.221
			C196.21,229.885,234.675,244.447,231.97,249.105z M173.181,151.307c-2.199,2.492-11.918,0.498-16.355-4.779
			c-6.449-7.664-6.898-16.762-6.971-16.896C153.997,129.75,182.913,140.273,173.181,151.307z M127.515,189.344
			c2.432-7.771,11.607-8.592,22.473-7.385c8.668,0.963,15.879,6.205,19.477,8.672c9.293,6.371,6.443,14.225,6.08,14.861
			c-0.586,0.008-1.205,0.025-1.852,0.053c-6.844-0.424-14.346-0.391-21.922,0.578c-4.078,0.523-8.533,1.111-12.957,1.93
			C133.171,203.578,126.063,193.992,127.515,189.344z M211.073,304.492c0.934,0.305,31.799,11.303,25.871,13.566
			c-9.324,3.539-24.17-2.096-33.158-5.078c-7.262-2.393-30.816-13.25-31.045-13.688
			C186.097,298.805,198.358,300.328,211.073,304.492z M120.591,311.49c1.133-5.398,8.209-3.842,13.535,1.908
			c4.797,5.178,9.096,14.693,8.951,15.191C136.854,326.924,118.538,321.301,120.591,311.49z"/>
		<path fill="#BE1E2D" d="M189.659,249.307c-6.889-0.57-10.701,6.6-7.385,12.625c3.277,5.957,8.732,7.041,14.932,7.76
			c-1.549-0.18,0.883-0.24,0.25-0.057C211.397,266.844,198.956,250.078,189.659,249.307z"/>
	</g>
	<g>
		<g>
			<path fill="#8DC63F" d="M219.669,153.23c6.287,13.52,17.857,23.875,31.34,30.027c2.668,1.217,5.48,0.83,7.578-1.273
				c6.123-6.131,10.85-13.189,13.645-21.389c0.133-0.393,0.205-0.771,0.232-1.139c8.609-13.436,17.244-26.832,26.229-40.049
				c12.51-18.412,25.219-36.74,35.795-56.355c1.332-2.469,0.479-6.275-2.271-7.447c-24.754-10.559-51.967-8.547-75.025,5.283
				c-20.088,12.047-36.018,32.633-40.965,55.684C213.618,128.723,214.394,141.891,219.669,153.23z"/>
		</g>
		<path fill="#FFDE17" d="M390.183,171.98c0,0,22.213-46.51,52.672-24.484c0,0,22.9,27.072-9.84,51.656
			c0,0,36.324,8.541,23.994,38.635c0,0-10.34,36.961-40.801,14.939c0,0,3.988,39.689-9.943,43.525
			c-13.932,3.834-43.541,13.111-36.189-34.152c0,0-25.621,38.451-40.965,29.775c-15.338-8.676-39.297-34.031-8.75-55.785
			c0,0-42-4.756-26.582-42.373c0,0,21.592-26.711,44.684-9.332c0,0-15.107-54.408,12.627-57.613
			C378.819,123.562,386.292,140.418,390.183,171.98z"/>
		<circle fill="#F26522" cx="372.724" cy="218.877" r="23.493"/>
		<path fill="#7F3F98" d="M240.411,502.936c-5.707-10.082-2.162-22.879,7.918-28.586c10.082-5.709,22.881-2.162,28.584,7.916
			c5.711,10.082,2.166,22.881-7.916,28.588C258.917,516.561,246.12,513.016,240.411,502.936z"/>
		<path fill="#7F3F98" d="M220.552,468.234c-5.252-9.275-1.99-21.049,7.283-26.299s21.049-1.988,26.303,7.283
			c5.25,9.275,1.984,21.049-7.287,26.299C237.573,480.77,225.804,477.51,220.552,468.234z"/>
		<g>
			<path fill="#EEAF21" d="M393.212,161.291c5.959-15.721,28.432-28.23,44.74-23.426c10.025,2.955,15.08,13.986,13.275,23.758
				c-1.77,9.582-9.373,17.654-18.707,20.166c-2.662,0.717-3.725,4.33-1.654,6.268c6.285,5.885,12.74,11.568,18.592,17.896
				c6.002,6.496,12.273,14.592,12.631,23.797c0.35,8.977-6.918,15.729-15.059,17.689c-9.82,2.367-21.027-0.318-30.703-2.143
				c-2.572-0.484-5.65,1.695-4.613,4.613c3.105,8.732,3.982,18.117-0.979,26.33c-3.828,6.338-10.75,10.055-17.834,11.455
				c-6.574,1.299-14.141-0.068-19.367-4.398c-6.834-5.662-7.807-14.77-6.836-23.055c0.457-3.904-5.199-4.836-6.988-1.893
				c-5.959,9.805-13.971,19.537-25.594,22.4c-7.527,1.854-15.211-0.99-20.633-6.262c-5.471-5.32-7.996-12.926-7.426-20.447
				c0.729-9.602,8.127-16.949,15.979-21.547c3.518-2.059,1.574-6.543-1.893-6.988c-16.152-2.07-39.557-13.332-33.148-33.17
				c6.824-21.121,33.387-15.541,49.846-12.408c2.369,0.449,4.744-1.031,4.748-3.617c0.012-9.051-1.104-18.072-1.213-27.125
				c-0.107-8.684,0.143-19.469,6.137-26.408c7.27-8.414,18.768-4.684,25.367,2.178c8.746,9.094,12.65,23.125,13.967,35.34
				c0.512,4.756,8.018,4.807,7.5,0c-2.322-21.557-17.998-61.584-46.826-46.984c-9.947,5.037-12.572,17.453-13.398,27.514
				c-0.975,11.85,0.982,23.648,0.967,35.486c1.582-1.205,3.164-2.41,4.746-3.615c-11.662-2.219-23.445-4.338-35.316-2.596
				c-12.127,1.777-20.467,10.064-24.158,21.492c-7.9,24.451,21.291,38.916,40.783,41.414c-0.631-2.328-1.262-4.658-1.893-6.988
				c-10.109,5.92-18.316,15.162-19.602,27.182c-1.055,9.844,2.678,19.547,9.529,26.592c7.074,7.273,17.182,10.121,27.045,8.379
				c13.855-2.447,24.078-14.707,30.963-26.035c-2.33-0.631-4.66-1.262-6.988-1.893c-1.213,10.338,0.941,21.219,9.033,28.357
				c7.113,6.277,16.832,7.842,25.957,6.451c9.15-1.395,17.43-6.809,22.619-14.398c6.596-9.646,5.889-22.189,2.139-32.736
				c-1.537,1.537-3.074,3.074-4.613,4.613c19.412,3.66,48.205,8.016,54.648-17.205c5.471-21.416-19.447-40.059-32.812-52.57
				c-0.551,2.09-1.102,4.178-1.654,6.268c25.064-6.744,34.875-43.553,9.461-56.754c-20.633-10.717-50.422,7.047-57.996,27.029
				C384.263,163.828,391.515,165.768,393.212,161.291L393.212,161.291z"/>
		</g>
		<g>
			<path fill="#452F8B" d="M265.862,519.629c13.309-0.648,22.801-9.062,23.627-22.549c0.699-11.416-5.752-24.479-16.471-29.199
				c-13.4-5.902-30.092,3.295-31.654,17.883c-1.689,15.791,14.461,31.279,29.701,30.92c4.828-0.113,4.84-7.613,0-7.5
				c-11.658,0.275-22.234-10.961-22.25-22.459c-0.016-10.598,13.936-15.947,22.355-11.422c7.301,3.924,10.875,13.127,10.844,21.029
				c-0.039,9.592-6.92,15.348-16.152,15.797C261.05,512.363,261.026,519.865,265.862,519.629L265.862,519.629z"/>
		</g>
		<g>
			<path fill="#452F8B" d="M239.255,477.295c5.846,2.223,12.545,2.725,17.291-2.006c4.158-4.145,4.662-10.934,4.166-16.434
				c-1.133-12.572-8.023-27.641-21.732-29.846c-14.273-2.295-21.785,10.861-21.596,23.447c0.211,14.031,9.51,27.299,24.342,27.572
				c4.84,0.09,4.83-7.41,0-7.5c-10.504-0.193-16.162-9.65-16.809-19.264c-0.541-8.047,3.086-18.469,12.924-16.887
				c9.561,1.537,13.66,12.656,15.174,21.033c0.695,3.85,0.764,8.463-1.281,11.928c-2.168,3.678-7.418,1.889-10.484,0.723
				C236.722,468.34,234.782,475.592,239.255,477.295L239.255,477.295z"/>
		</g>
		<g>
			<path fill="#7F3F98" d="M471.048,377.141c-11.281-2.631-18.295-13.906-15.664-25.188c2.631-11.283,13.91-18.295,25.188-15.662
				c11.285,2.629,18.297,13.908,15.666,25.188C493.604,372.76,482.329,379.77,471.048,377.141z"/>
			<path fill="#7F3F98" d="M432.067,368.244c-10.379-2.422-16.83-12.795-14.41-23.176c2.422-10.377,12.797-16.83,23.176-14.412
				c10.379,2.422,16.828,12.799,14.408,23.174C452.819,364.213,442.448,370.662,432.067,368.244z"/>
			<path fill="#7F3F98" d="M398.632,360.631c-8.123-1.893-13.17-10.012-11.273-18.137c1.891-8.119,10.01-13.168,18.133-11.275
				c8.123,1.895,13.166,10.014,11.275,18.135C414.872,357.477,406.753,362.525,398.632,360.631z"/>
			<g>
				<path fill="#452F8B" d="M500.462,369.842c9.117-10.953,8.818-24.826-2.197-34.35c-9.186-7.939-24.135-11.293-34.654-4.01
					c-11.793,8.164-13.523,26.838-1.84,35.709c11.459,8.697,30.391,7.881,40.049-3.174c3.168-3.625-2.115-8.951-5.303-5.303
					c-7.045,8.064-19.807,8.701-28.76,3.527c-9.279-5.363-8.035-18.971,0.289-24.734c7.43-5.143,17.709-1.969,24.381,2.854
					c8.504,6.146,9.283,16.307,2.732,24.178C492.089,368.227,497.366,373.561,500.462,369.842L500.462,369.842z"/>
			</g>
			<g>
				<path fill="#452F8B" d="M451.312,360.678c5.482-2.754,10.301-7.082,10.352-13.627c0.049-6.043-4.785-11.232-9.252-14.658
					c-10.07-7.725-26.082-13.016-36.967-4.076c-10.992,9.029-6.488,23.223,2.84,31.529c10.416,9.275,26.428,11.611,36.697,0.924
					c3.352-3.484-1.945-8.795-5.303-5.303c-7.201,7.494-17.797,5.664-25.393-0.338c-6.467-5.111-11.518-14.279-4.281-20.896
					c7.121-6.516,18.592-1.834,25.572,2.482c3.268,2.02,6.867,4.959,8.23,8.682c1.621,4.424-2.926,7.119-6.281,8.805
					C443.202,356.371,447.001,362.842,451.312,360.678L451.312,360.678z"/>
			</g>
			<g>
				<path fill="#452F8B" d="M415.659,352.24c14.334-20.035-23.029-44.207-36.855-25.143c-14.67,20.227,20.252,38.615,36.492,28.252
					c4.062-2.594,0.305-9.088-3.785-6.477c-8.441,5.387-33.996-2.559-27.949-15.311c6.992-14.748,35.25,1.434,25.621,14.893
					C406.362,352.398,412.87,356.137,415.659,352.24L415.659,352.24z"/>
			</g>
		</g>
		<g>
			<path fill="#B94126" d="M394.495,235.643c12.43-9.18,17.631-24.305,7.6-37.441c-8.438-11.051-23.809-16.115-36.539-9.592
				c-14.9,7.635-21.367,30.104-10.893,43.516c10.285,13.172,30.387,15.424,43.08,4.588c1.891-1.613,3.416-3.66,4.812-5.701
				c2.738-4.004-3.764-7.75-6.477-3.785c-7.592,11.092-23.156,11.547-32.947,3.049c-10.816-9.385-6.203-26.957,4.742-34.324
				c8.986-6.049,20.615-1.777,27.322,5.586c8.385,9.205,4.797,20.773-4.486,27.629C386.864,232.006,390.599,238.52,394.495,235.643
				L394.495,235.643z"/>
		</g>
		<g>
			<path fill="#8DC63F" d="M353.815,404.828c0,0,25.494-23.389,40.383-9.322c0,0-20.268,22.463-36.623,18.359
				c0,0,26.902,36.18,6.441,48.434c0,0-27.977-5.811-25.242-35.938c0,0-4.201,40.084-27.689,38.324c0,0-3.412-34.424,21.539-42.623"
				/>
			<path fill="#BE1E2D" d="M366.261,368.652c-7.975-9.473-75.906-48.037-96.17-25.578c-20.268,22.457,21.047,89.74,28.646,92.871
				C322.058,445.561,382.392,387.807,366.261,368.652z"/>
			<g>
				<path fill="#89241B" d="M368.044,382.959c-15.9,14.055-26.365,33.281-42.215,47.494c-6.422,5.762-15.197,11.691-24.227,9.256
					c-7.662-2.066-10.838-11.578-12.904-18.252c-2.791-9.027-4.34-18.389-7.02-27.449c-2.467-8.342-6.887-15.656-10.9-23.303
					c-3.316-6.32-7.197-13.359-7.818-20.605c-0.6-7.012,5.094-9.141,11.189-9.75c15.711-1.574,32.479,3.881,46.893,9.594
					c15.729,6.232,31.115,15.488,41.746,28.861c3.01,3.787,8.279-1.559,5.303-5.301c-14.768-18.584-38.018-29.512-60.332-36.043
					c-10.836-3.172-22.277-5.443-33.609-4.611c-6.619,0.484-14.049,2.625-17.217,9.023c-2.879,5.812-1.172,12.756,0.904,18.523
					c2.801,7.781,6.943,15.061,10.871,22.309c8.723,16.102,8.871,34.926,16.844,51.283c3.473,7.127,9.625,12.793,17.729,13.656
					c9.471,1.006,17.834-3.857,25.016-9.498c17.799-13.975,28.223-35.01,45.051-49.885
					C376.978,385.053,371.651,379.77,368.044,382.959L368.044,382.959z"/>
			</g>
			<g>
				<path fill="#4B8A3F" d="M365.935,409.051c7.152-7.645,17.922-5.445,27-3.135c-0.748-1.836-1.494-3.674-2.242-5.51
					c-5.301,8.818-16.285,14.59-26.551,13.438c-2.512-0.281-4.152,2.596-3.617,4.748c4.131,16.607,8.832,31.979,7.482,49.318
					c1.25-1.25,2.5-2.5,3.75-3.75c-13.564-0.256-18.984-18.305-27.064-26.643c-2.154-2.225-5.244-0.828-6.268,1.654
					c-2.209,5.361-4.051,10.906-6.902,15.973c-3.043,5.406-7.934,8.912-13.312,11.766c1.881,1.078,3.762,2.158,5.643,3.238
					c-0.906-9.605-0.475-21.744,8.877-27.16c4.182-2.424,0.408-8.906-3.785-6.477c-11.773,6.82-13.766,21.203-12.592,33.637
					c0.27,2.842,2.975,4.654,5.643,3.238c6.273-3.328,11.553-7.537,15.441-13.527c3.684-5.67,5.662-12.486,8.221-18.693
					c-2.09,0.551-4.18,1.102-6.268,1.654c10.172,10.5,15.061,28.514,32.367,28.84c2.162,0.041,3.594-1.742,3.75-3.75
					c1.402-17.994-3.463-34.072-7.75-51.312c-1.205,1.582-2.41,3.164-3.615,4.746c12.807,1.438,26.486-6.27,33.027-17.152
					c1.232-2.051,0.094-4.914-2.24-5.508c-11.773-2.996-25.172-4.689-34.297,5.064C357.333,407.275,362.624,412.59,365.935,409.051
					L365.935,409.051z"/>
			</g>
		</g>
		<g>
			<path fill="#4B8A3F" d="M323.466,55.959c-1.047-0.793-1.42-2.242-1.443-1.824c0.07-1.236-0.15,0.471-0.26,0.848
				c-0.52,1.77-1.137,3.016-1.924,4.662c-2.447,5.119-5.336,10.035-8.232,14.908c-8.1,13.623-16.861,26.861-25.727,39.996
				c-8.359,12.385-16.889,24.666-25.705,36.73c-2.553,3.492-5.109,6.992-7.848,10.344c-0.617,0.756-1.242,1.527-1.959,2.195
				c1.096-1.021,2.68-0.467,0.809-0.951c-8.875-2.301-17.512-9.283-23.664-16.119c-10.68-11.865-13.879-27.598-10.342-42.977
				c6.836-29.707,32.568-53.57,62.672-58.355C295.226,42.971,310.497,47.9,323.466,55.959c4.119,2.561,7.883-3.93,3.785-6.477
				c-18.705-11.623-40.311-15.426-61.389-8.338c-13.844,4.656-26.322,13.398-36.477,23.795
				c-10.385,10.633-17.387,25.764-20.164,40.236c-2.99,15.576,0.691,31.34,10.461,43.826c6.854,8.76,16.082,15.754,26.355,20.008
				c2.447,1.014,6.012,2.42,8.547,0.947c2.1-1.221,3.641-3.742,5.088-5.6c17.811-22.889,34.012-47.273,49.576-71.723
				c5.65-8.875,11.27-17.84,16.074-27.209c2.168-4.223,7.014-12.09,1.928-15.943C323.394,46.561,319.663,53.078,323.466,55.959z"/>
		</g>
	</g>
</g>
</svg>
